<svg width="48" height="48" viewBox="0 0 48 48" xmlns="http://www.w3.org/2000/svg">
<path d="M14.8 8L10.75 13.4H38.05L34 8H14.8Z"/>
<path fill-rule="evenodd" clip-rule="evenodd" d="M10 36.8V15.4H38.8V36.8C38.8 37.6487 38.4629 38.4626 37.8627 39.0627C37.2626 39.6629 36.4487 40 35.6 40H13.2C12.3513 40 11.5374 39.6629 10.9373 39.0627C10.3371 38.4626 10 37.6487 10 36.8ZM19 20.8C19 20.2478 18.5523 19.8 18 19.8C17.4477 19.8 17 20.2478 17 20.8C17 22.7627 17.7796 24.6449 19.1674 26.0326C20.5552 27.4204 22.4374 28.2 24.4 28.2C26.3626 28.2 28.2448 27.4204 29.6326 26.0326C31.0204 24.6449 31.8 22.7627 31.8 20.8C31.8 20.2478 31.3523 19.8 30.8 19.8C30.2477 19.8 29.8 20.2478 29.8 20.8C29.8 22.2322 29.2311 23.6057 28.2184 24.6184C27.2057 25.6311 25.8322 26.2 24.4 26.2C22.9678 26.2 21.5943 25.6311 20.5816 24.6184C19.5689 23.6057 19 22.2322 19 20.8Z"/>
</svg>
