<svg width="48" height="48" viewBox="0 0 48 48" xmlns="http://www.w3.org/2000/svg">
<path d="M24.05 18.46H39.03C38.1567 16.1093 36.7627 14.032 34.848 12.228C32.9347 10.4253 30.752 9.21601 28.3 8.60001L23.316 17.192C23.1413 17.4747 23.1407 17.7567 23.314 18.038C23.4873 18.3207 23.7327 18.462 24.05 18.462M17.696 21.192C17.8693 21.4747 18.114 21.616 18.43 21.616C18.746 21.616 18.9913 21.4747 19.166 21.192L26.738 8.20601C26.3713 8.13534 25.9153 8.08334 25.37 8.05001C24.8247 8.01668 24.368 8.00001 24 8.00001C21.8 8.00001 19.75 8.41668 17.85 9.25001C15.95 10.0833 14.2667 11.2 12.8 12.6L17.696 21.192ZM8.5 28H18.38C18.688 28 18.9333 27.8587 19.116 27.576C19.2987 27.2933 19.3027 27.0113 19.128 26.73L11.708 13.816C10.5387 15.2587 9.62867 16.8333 8.978 18.54C8.326 20.248 8 22.068 8 24C8 24.7 8.042 25.3753 8.126 26.026C8.21 26.6767 8.33467 27.3347 8.5 28ZM19.778 39.4L24.75 30.808C24.9233 30.5253 24.9193 30.2433 24.738 29.962C24.5567 29.6807 24.312 29.5393 24.004 29.538H8.968C9.84267 31.89 11.25 33.968 13.19 35.772C15.13 37.576 17.3267 38.7853 19.78 39.4M24 40C26.2 40 28.25 39.5833 30.15 38.75C32.05 37.9167 33.7333 36.8 35.2 35.4L30.304 26.808C30.1307 26.5253 29.886 26.384 29.57 26.384C29.254 26.384 29.0087 26.5253 28.834 26.808L21.338 39.724C21.7047 39.816 22.14 39.8853 22.644 39.932C23.148 39.9787 23.6 40.0013 24 40ZM36.292 34.184C37.3587 32.8173 38.2433 31.2453 38.946 29.468C39.6487 27.6907 40 25.868 40 24C40 23.3 39.9587 22.6253 39.876 21.976C39.7933 21.3267 39.668 20.668 39.5 20H29.62C29.312 20 29.0667 20.1413 28.884 20.424C28.7013 20.7067 28.6973 20.9887 28.872 21.27L36.292 34.184ZM23.988 42C21.5187 42 19.1913 41.5287 17.006 40.586C14.8207 39.6433 12.9113 38.3547 11.278 36.72C9.64467 35.0853 8.35667 33.176 7.414 30.992C6.47133 28.808 6 26.4813 6 24.012C6 21.5133 6.47333 19.1727 7.42 16.99C8.368 14.8073 9.65467 12.904 11.28 11.28C12.9053 9.65601 14.8133 8.36934 17.004 7.42001C19.1947 6.47068 21.5227 5.99734 23.988 6.00001C26.4813 6.00001 28.8207 6.47334 31.006 7.42001C33.1927 8.36801 35.098 9.65468 36.722 11.28C38.346 12.9053 39.632 14.8087 40.58 16.99C41.528 19.1713 42.0013 21.512 42 24.012C42 26.4813 41.5267 28.8107 40.58 31C39.632 33.1893 38.3453 35.096 36.72 36.72C35.0947 38.344 33.1913 39.6307 31.01 40.58C28.8287 41.5293 26.488 42.0027 23.988 42Z"/>
</svg>
