<svg width="48" height="48" viewBox="0 0 48 48"  xmlns="http://www.w3.org/2000/svg">
<path d="M40.7092 12.1914C40.9767 12.318 41.2127 12.5025 41.4 12.7317C41.5881 12.9604 41.723 13.228 41.7951 13.5152C41.8671 13.8025 41.8745 14.1021 41.8167 14.3925L39.4167 26.3925C39.3248 26.8457 39.0793 27.2532 38.7215 27.5462C38.3637 27.8391 37.9157 27.9994 37.4533 28H17.315L17.785 30.6667H38C38.3536 30.6667 38.6928 30.8071 38.9428 31.0572C39.1929 31.3072 39.3333 31.6464 39.3333 32C39.3333 32.3536 39.1929 32.6928 38.9428 32.9428C38.6928 33.1929 38.3536 33.3333 38 33.3333H16.6667C16.3532 33.3334 16.0497 33.223 15.8095 33.0215C15.5693 32.8201 15.4078 32.5404 15.3533 32.2317L11.5483 10.6667H7.33333C6.97971 10.6667 6.64057 10.5262 6.39052 10.2761C6.14048 10.0261 6 9.68696 6 9.33333C6 8.97971 6.14048 8.64057 6.39052 8.39052C6.64057 8.14048 6.97971 8 7.33333 8H12.6667C12.9802 7.99993 13.2837 8.11033 13.5238 8.31181C13.764 8.51328 13.9255 8.79294 13.98 9.10167L14.4908 12H39.8533C40.1493 11.9995 40.4416 12.0649 40.7092 12.1914Z" />
<path d="M18 40C19.4728 40 20.6667 38.8061 20.6667 37.3333C20.6667 35.8605 19.4728 34.6666 18 34.6666C16.5273 34.6666 15.3334 35.8605 15.3334 37.3333C15.3334 38.8061 16.5273 40 18 40Z" />
<path d="M36.6667 40C38.1394 40 39.3333 38.8061 39.3333 37.3333C39.3333 35.8605 38.1394 34.6666 36.6667 34.6666C35.1939 34.6666 34 35.8605 34 37.3333C34 38.8061 35.1939 40 36.6667 40Z" />
</svg>
