<svg width="48" height="48" viewBox="0 0 48 48"  xmlns="http://www.w3.org/2000/svg">
<path d="M12.5371 40V33.6C12.5371 32.9867 12.6976 32.4336 13.0185 31.9408C13.3394 31.448 13.7672 31.0544 14.302 30.76L22.1641 26.8V24L16.5884 26.76C16.2675 26.92 15.9333 27.04 15.5856 27.12C15.238 27.2 14.8904 27.24 14.5427 27.24C13.7137 27.24 12.9313 27.0267 12.1953 26.6C11.4594 26.1733 10.8914 25.56 10.4914 24.76C10.117 24.04 9.95654 23.2736 10.01 22.4608C10.0635 21.648 10.3176 20.8944 10.7722 20.2L15.7461 12.8L12.5371 8H22.1641C25.7207 8 28.7494 9.24 31.2503 11.72C33.7512 14.2 35.0011 17.2267 35 20.8V40H12.5371Z"/>
</svg>
