<svg width="48" height="48" viewBox="0 0 48 48" xmlns="http://www.w3.org/2000/svg">
<path d="M27.942 27.942L13.2 34.8L20.058 20.058L34.8 13.2M24 6C21.6362 6 19.2956 6.46558 17.1117 7.37017C14.9278 8.27475 12.9435 9.60062 11.2721 11.2721C7.89642 14.6477 6 19.2261 6 24C6 28.7739 7.89642 33.3523 11.2721 36.7279C12.9435 38.3994 14.9278 39.7252 17.1117 40.6298C19.2956 41.5344 21.6362 42 24 42C28.7739 42 33.3523 40.1036 36.7279 36.7279C40.1036 33.3523 42 28.7739 42 24C42 21.6362 41.5344 19.2956 40.6298 17.1117C39.7252 14.9278 38.3994 12.9435 36.7279 11.2721C35.0565 9.60062 33.0722 8.27475 30.8883 7.37017C28.7044 6.46558 26.3638 6 24 6ZM24 22.02C23.4749 22.02 22.9712 22.2286 22.5999 22.5999C22.2286 22.9712 22.02 23.4749 22.02 24C22.02 24.5251 22.2286 25.0287 22.5999 25.4001C22.9712 25.7714 23.4749 25.98 24 25.98C24.5251 25.98 25.0287 25.7714 25.4001 25.4001C25.7714 25.0287 25.98 24.5251 25.98 24C25.98 23.4749 25.7714 22.9712 25.4001 22.5999C25.0287 22.2286 24.5251 22.02 24 22.02Z"/>
</svg>
