<svg width="48" height="48" viewBox="0 0 48 48" xmlns="http://www.w3.org/2000/svg">
<path d="M21.066 9.64456C21.9858 9.21992 22.9869 9 24 9C25.0131 9 26.0142 9.21992 26.934 9.64456L36.258 13.9466C36.7782 14.1868 37.2187 14.5711 37.5274 15.0538C37.8361 15.5365 38.0001 16.0976 38 16.6706V20.3906H36C35.3516 20.39 34.7204 20.5996 34.2011 20.9879C33.6818 21.3762 33.3022 21.9223 33.1194 22.5444C32.9365 23.1665 32.9601 23.8311 33.1866 24.4387C33.4131 25.0463 33.8305 25.5641 34.376 25.9146C31.85 27.3786 28.206 28.3906 23.998 28.3906C19.79 28.3906 16.148 27.3766 13.622 25.9126C14.167 25.5623 14.5838 25.0449 14.8101 24.4379C15.0365 23.8309 15.0601 23.1669 14.8774 22.5454C14.6948 21.9238 14.3157 21.3781 13.797 20.99C13.2783 20.602 12.6478 20.3923 12 20.3926H10V16.6706C9.99952 16.0972 10.1633 15.5357 10.4721 15.0526C10.7808 14.5695 11.2215 14.185 11.742 13.9446L21.066 9.64456ZM17.394 17.4706C17.15 17.3661 16.8745 17.3628 16.6281 17.4614C16.3816 17.5601 16.1845 17.7526 16.08 17.9966C15.9755 18.2406 15.9722 18.5161 16.0709 18.7625C16.1695 19.0089 16.362 19.2061 16.606 19.3106L23 22.0506V25.3906C23 25.6558 23.1054 25.9101 23.2929 26.0977C23.4804 26.2852 23.7348 26.3906 24 26.3906C24.2652 26.3906 24.5196 26.2852 24.7071 26.0977C24.8946 25.9101 25 25.6558 25 25.3906V22.0506L31.394 19.3106C31.5148 19.2588 31.6243 19.1838 31.7161 19.0897C31.8079 18.9957 31.8803 18.8845 31.9291 18.7625C31.978 18.6405 32.0023 18.51 32.0007 18.3786C31.9992 18.2472 31.9717 18.1174 31.92 17.9966C31.8683 17.8757 31.7932 17.7663 31.6992 17.6745C31.6052 17.5827 31.494 17.5103 31.3719 17.4614C31.2499 17.4126 31.1195 17.3882 30.9881 17.3898C30.8566 17.3914 30.7268 17.4188 30.606 17.4706L24 20.3046L17.394 17.4706ZM35 23.3906C35 23.1253 35.1054 22.871 35.2929 22.6834C35.4804 22.4959 35.7348 22.3906 36 22.3906H41C41.2652 22.3906 41.5196 22.4959 41.7071 22.6834C41.8946 22.871 42 23.1253 42 23.3906V28.3906C42 28.6558 41.8946 28.9101 41.7071 29.0977C41.5196 29.2852 41.2652 29.3906 41 29.3906C40.7348 29.3906 40.4804 29.2852 40.2929 29.0977C40.1054 28.9101 40 28.6558 40 28.3906V26.4306C39.4045 27.1265 38.7338 27.7543 38 28.3026C37.6 28.6052 37.1753 28.8939 36.726 29.1686C33.47 31.1606 28.97 32.3906 24 32.3906C19.03 32.3906 14.53 31.1606 11.272 29.1706C10.8344 28.9038 10.41 28.6161 10 28.3086C9.26635 27.761 8.59559 27.1338 8 26.4386V28.3906C8 28.6558 7.89464 28.9101 7.70711 29.0977C7.51957 29.2852 7.26522 29.3906 7 29.3906C6.73478 29.3906 6.48043 29.2852 6.29289 29.0977C6.10536 28.9101 6 28.6558 6 28.3906V23.3906C6 23.1253 6.10536 22.871 6.29289 22.6834C6.48043 22.4959 6.73478 22.3906 7 22.3906H12C12.2652 22.3906 12.5196 22.4959 12.7071 22.6834C12.8946 22.871 13 23.1253 13 23.3906C13 23.6558 12.8946 23.9101 12.7071 24.0977C12.5196 24.2852 12.2652 24.3906 12 24.3906H8.96C9.244 24.8239 9.59067 25.2479 10 25.6626C10.2427 25.9106 10.5087 26.1532 10.798 26.3906C11.2791 26.7804 11.7856 27.1378 12.314 27.4606C13.134 27.9646 14.058 28.4186 15.064 28.8086C17.596 29.7966 20.66 30.3886 23.998 30.3886C27.338 30.3886 30.404 29.7946 32.938 28.8086C33.8911 28.4407 34.81 27.9896 35.684 27.4606C36.244 27.1179 36.7493 26.7612 37.2 26.3906C37.4893 26.1506 37.756 25.9072 38 25.6606C38.4093 25.2446 38.7547 24.8212 39.036 24.3906H36C35.7348 24.3906 35.4804 24.2852 35.2929 24.0977C35.1054 23.9101 35 23.6558 35 23.3906ZM24 34.3906C18.67 34.3906 13.674 33.0526 10 30.7346V32.1106C9.9999 32.6836 10.1639 33.2446 10.4726 33.7273C10.7813 34.2101 11.2218 34.5943 11.742 34.8346L21.066 39.1366C21.9858 39.5612 22.9869 39.7811 24 39.7811C25.0131 39.7811 26.0142 39.5612 26.934 39.1366L36.258 34.8346C36.7782 34.5943 37.2187 34.2101 37.5274 33.7273C37.8361 33.2446 38.0001 32.6836 38 32.1106V30.7326C34.326 33.0526 29.328 34.3906 24 34.3906Z"/>
</svg>
