<svg width="116" height="116" viewBox="0 0 116 116"  xmlns="http://www.w3.org/2000/svg">
<path fill-rule="evenodd" clip-rule="evenodd" d="M33.0056 55.121C33.636 60.6822 41.4939 61.6502 45.4668 62.2005C54.1593 63.2778 60.8799 59.2249 68.4426 56.4555C74.3536 54.6017 80.3375 55.0532 86.394 57.8096C88.9532 59.27 91.1816 61.1554 93.0789 63.4654C95.6671 66.8505 97.3821 70.9657 97.9359 75.063L95.151 70.765C90.4404 65.6514 84.9899 62.1447 78.3346 61.5296C70.894 60.9793 64.2805 63.9598 57.5304 66.0893C51.1665 67.6786 44.7855 67.0288 38.3877 64.1398C32.5967 60.9645 31.8813 59.169 31.315 57.502C31.3155 57.5162 31.4383 60.5938 32.7496 62.4516C35.1627 65.8701 44.1557 69.3263 49.0534 69.4973C53.2196 69.6428 56.3371 69.3122 59.6752 68.4364C62.7946 67.3127 65.6083 66.5692 68.7177 65.3322C74.4723 63.4544 84.3916 62.8084 89.7504 68.3341C86.524 67.159 83.2689 66.7553 79.9855 67.1227C77.0348 67.5879 74.7798 69.0794 73.2203 71.5974C72.2161 74.6425 72.3614 75.8563 75.0028 77.5774C56.5953 81.337 41.9018 80.9954 30.4759 67.864C35.6578 79.213 56.9879 85.753 76.9984 79.3103C81.57 82.048 85.6486 80.8592 89.8765 78.7831C89.7764 84.953 83.8609 89.4314 78.5418 90.2507C70.7866 91.2406 59.5999 93.0375 51.8495 90.614C56.8267 93.3194 61.176 96.9034 64.8971 101.366C67.6317 103.719 58.7756 97.7258 55.668 96.01C48.6459 92.496 41.3024 91.6703 34.6928 85.266C28.2224 78.9966 25.6099 74.2978 24.3745 65.774C23.6137 60.5246 24.2969 55.176 25.252 51.1615C26.7618 44.8158 29.9833 36.1035 37.7549 30.0069C33.4916 29.535 29.0112 29.908 25.252 32.1741C28.2554 31.1223 31.7308 30.4507 34.9011 31.0698C34.1163 31.8069 33.366 32.5769 32.6504 33.3797C30.1132 33.4101 27.7914 34.1321 25.6853 35.5458C27.4306 34.9019 29.4695 34.5682 31.3219 34.7355C30.5907 35.6278 29.9017 36.557 29.2705 37.5228C28.3496 37.8527 25.1719 38.7629 24.8568 39.7651C26.0751 39.2838 27.334 38.9743 28.6331 38.8366C27.365 41.272 26.7038 46.0853 23.6657 46.9192C21.5627 46.9327 21.5442 43.2942 21.8717 41.9377C22.0688 41.2104 22.3198 40.5115 22.6243 39.841C23.0926 38.517 23.3444 37.1547 23.3799 35.7543C23.2504 33.3099 21.0362 31.9106 18.8226 31.6464C21.4369 30.1285 24.2223 28.9457 27.1548 28.1991C31.484 27.2781 35.9281 27.0683 40.2044 28.3504L46.0579 27.0483C46.0815 27.0442 52.6354 25.9027 56.4931 27.1971L56.4945 27.1976L56.495 27.1978C58.2136 27.7381 59.0824 28.3985 60.4532 29.5675C60.4659 29.5793 62.6915 31.6493 62.9732 32.3945C63.3701 33.4446 58.5846 35.5856 58.6511 35.6984C58.746 35.8575 62.3735 34.3086 62.7151 34.8877C63.6386 36.4539 59.9103 39.5659 59.9103 39.5659C57.7377 41.5444 54.6789 42.6725 52.6197 42.1461C45.8364 40.6556 44.9198 35.1094 45.3873 30.6359C45.3924 30.5344 45.225 30.4786 45.1031 30.4815C43.8404 33.4346 44.0523 36.2907 45.7385 39.0496C47.5922 41.7429 50.1489 43.0444 53.4085 42.9539C52.3004 43.6772 51.1408 44.2978 49.9299 44.8158C50.1916 47.9047 48.948 50.1789 46.1989 51.6381C47.4129 49.4303 47.8795 47.088 47.5987 44.6117C47.2177 46.418 46.5774 48.125 45.678 49.7322C44.6534 51.2765 43.3223 52.4759 41.6849 53.3302C39.3484 50.6895 39.0109 47.804 40.6726 44.6745C41.5638 43.2354 42.8112 42.5679 44.0736 41.5749C42.5818 42.0257 40.9057 43.1772 40.149 44.5249C39.6196 45.4679 39.0915 47.3504 39.041 47.5327C38.1957 47.7442 37.1157 47.7674 35.7916 47.6172C35.7916 47.6172 32.6535 52.015 33.0056 55.121ZM47.9828 32.7127C47.4767 38.535 53.9151 42.0199 58.0761 39.4794C55.8171 40.4718 48.8028 40.3444 47.9828 32.7127ZM34.0673 39.3628C34.1702 38.868 34.3627 38.4203 34.6449 38.02C35.756 38.4643 38.2368 42.2686 36.9452 42.974C34.9684 43.383 33.7169 41.0513 34.0673 39.3628ZM38.2591 38.5961C37.9887 37.9265 38.321 33.1082 39.4258 34.3899C40.7243 35.762 42.2369 38.4614 41.595 40.4537C40.1009 40.548 38.9888 39.9288 38.2591 38.5961ZM54.5103 30.2309C55.4942 29.7176 56.7081 30.0991 57.2214 31.083C57.7346 32.067 57.353 33.2807 56.3691 33.794C55.3852 34.3072 54.1716 33.9257 53.6583 32.9418C53.145 31.9579 53.5265 30.7442 54.5103 30.2309Z"/>
<path fill-rule="evenodd" clip-rule="evenodd" d="M59.5439 7.22534C75.4129 7.34235 88.4884 9.25352 91.6611 11.7732C92.1427 12.1558 92.3953 12.5533 92.3955 12.9597L92.3848 13.1082C92.2701 13.8615 91.2856 14.5779 89.5928 15.2322C101.999 24.7356 110 39.7018 110 56.5369C110 85.2557 86.7188 108.537 58 108.537C29.2812 108.537 6 85.2557 6 56.5369C6.00017 39.7008 14.0017 24.7336 26.4092 15.2302C24.605 14.533 23.6036 13.7674 23.6035 12.9597C23.6037 12.604 23.7978 12.2555 24.1689 11.9177L24.3389 11.7732C27.6139 9.17224 41.4407 7.21951 58 7.21948L59.5439 7.22534ZM91.3672 19.3025C87.9448 21.756 74.283 23.5915 57.9492 23.5916L56.1865 23.5837C40.7267 23.4581 27.9726 21.6874 24.5869 19.3425C14.4019 28.4977 8.00015 41.7689 8 56.5369C8 84.1511 30.3858 106.537 58 106.537C85.6142 106.537 108 84.1511 108 56.5369C108 41.747 101.579 28.4589 91.3672 19.3025ZM31.585 16.6345C30.7284 16.8063 29.9432 16.9855 29.2354 17.1707C27.995 17.4952 27.0855 17.8152 26.4629 18.0984C26.6472 18.1825 26.8597 18.2751 27.1045 18.3679C28.6506 18.9539 31.0036 19.52 34.0508 20.0085C40.1143 20.9807 48.5651 21.5915 57.9492 21.5916C67.3329 21.5915 75.7832 20.9806 81.8467 20.0085C84.8941 19.5199 87.2478 18.954 88.7939 18.3679C89.0382 18.2753 89.2495 18.1824 89.4336 18.0984C88.811 17.8153 87.9017 17.495 86.6621 17.1707C85.9685 16.9892 85.2008 16.8139 84.3643 16.6453C78.0547 17.9006 68.5858 18.6999 58 18.7L56.2295 18.6921C46.3335 18.6084 37.5415 17.825 31.585 16.6345ZM56.2305 14.6179C49.4792 14.6719 43.2666 15.0414 38.1582 15.6326C43.7086 16.2998 50.5617 16.6999 58 16.7C65.4158 16.6999 72.2497 16.302 77.791 15.6384C72.6535 15.0416 66.3944 14.6689 59.5908 14.6169C59.1701 14.6149 58.7472 14.6115 58.3223 14.6111C58.2068 14.6109 58.0913 14.6101 57.9756 14.6101C57.39 14.6102 56.8081 14.6148 56.2305 14.6179ZM58 9.21948C49.7903 9.21949 42.2856 9.70414 36.458 10.5027C33.5417 10.9023 31.0798 11.3758 29.1758 11.8943C27.7976 12.2696 26.8291 12.6408 26.2061 12.9587C26.4302 13.0733 26.7058 13.2014 27.041 13.3337C27.8157 13.6394 28.7935 13.9403 29.96 14.2283C35.1904 13.3105 44.9256 12.6789 56.2119 12.6179C56.7874 12.6133 57.3666 12.6101 57.9492 12.6101H58C58.1053 12.6101 58.2104 12.611 58.3154 12.6111L59.4863 12.616C59.5246 12.6162 59.5633 12.6167 59.6016 12.6169C70.9663 12.6719 80.7796 13.3056 86.0391 14.2283C87.2061 13.9403 88.184 13.6395 88.959 13.3337C89.2938 13.2016 89.568 13.0732 89.792 12.9587C89.1688 12.641 88.2006 12.2694 86.8232 11.8943C84.9192 11.3758 82.4573 10.9023 79.541 10.5027C73.7135 9.70418 66.2095 9.21949 58 9.21948Z" />
</svg>
