<svg width="48" height="48" viewBox="0 0 48 48" xmlns="http://www.w3.org/2000/svg">
<path fill-rule="evenodd" clip-rule="evenodd" d="M40 35.7273C40 35.3415 39.8468 34.9715 39.574 34.6988C39.3012 34.426 38.9312 34.2727 38.5455 34.2727H9.45454C9.06877 34.2727 8.69881 34.426 8.42603 34.6988C8.15325 34.9715 8 35.3415 8 35.7273C8 36.113 8.15325 36.483 8.42603 36.7558C8.69881 37.0286 9.06877 37.1818 9.45454 37.1818H38.5455C38.9312 37.1818 39.3012 37.0286 39.574 36.7558C39.8468 36.483 40 36.113 40 35.7273ZM40 24.0909C40 23.7051 39.8468 23.3352 39.574 23.0624C39.3012 22.7896 38.9312 22.6364 38.5455 22.6364H23.4545C23.0688 22.6364 22.6988 22.7896 22.426 23.0624C22.1532 23.3352 22 23.7051 22 24.0909C22 24.4767 22.1532 24.8466 22.426 25.1194C22.6988 25.3922 23.0688 25.5455 23.4545 25.5455H38.5455C38.9312 25.5455 39.3012 25.3922 39.574 25.1194C39.8468 24.8466 40 24.4767 40 24.0909ZM40 12.4545C40 12.0688 39.8468 11.6988 39.574 11.426C39.3012 11.1532 38.9312 11 38.5455 11H9.45454C9.06877 11 8.69881 11.1532 8.42603 11.426C8.15325 11.6988 8 12.0688 8 12.4545C8 12.8403 8.15325 13.2103 8.42603 13.4831C8.69881 13.7558 9.06877 13.9091 9.45454 13.9091H38.5455C38.9312 13.9091 39.3012 13.7558 39.574 13.4831C39.8468 13.2103 40 12.8403 40 12.4545Z"/>
</svg>
