<svg width="48" height="48" viewBox="0 0 48 48" xmlns="http://www.w3.org/2000/svg">
<path d="M39.3749 29.6275C39.5819 29.5043 39.8116 29.424 40.0503 29.3912C40.289 29.3584 40.5318 29.3739 40.7644 29.4368C40.997 29.4996 41.2146 29.6085 41.4044 29.7569C41.5941 29.9054 41.7521 30.0905 41.869 30.3011C41.9859 30.5118 42.0593 30.7438 42.0849 30.9833C42.1105 31.2229 42.0877 31.4652 42.018 31.6958C41.9482 31.9264 41.8329 32.1406 41.6788 32.3258C41.5247 32.511 41.335 32.6634 41.1209 32.7739L24.9206 41.7741C24.6534 41.9223 24.353 42 24.0476 42C23.7421 42 23.4417 41.9223 23.1745 41.7741L6.97421 32.7739C6.76014 32.6634 6.57043 32.511 6.41633 32.3258C6.26223 32.1406 6.14689 31.9264 6.07712 31.6958C6.00735 31.4652 5.98459 31.2229 6.01018 30.9833C6.03577 30.7438 6.10919 30.5118 6.2261 30.3011C6.343 30.0905 6.501 29.9054 6.69074 29.7569C6.88048 29.6085 7.0981 29.4996 7.33069 29.4368C7.56328 29.3739 7.80612 29.3584 8.04481 29.3912C8.2835 29.424 8.51318 29.5043 8.72024 29.6275L24.0476 38.1417L39.3749 29.6275ZM39.3749 22.4273C39.5819 22.3042 39.8116 22.2238 40.0503 22.1911C40.289 22.1583 40.5318 22.1738 40.7644 22.2366C40.997 22.2994 41.2146 22.4083 41.4044 22.5568C41.5941 22.7053 41.7521 22.8903 41.869 23.101C41.9859 23.3116 42.0593 23.5436 42.0849 23.7832C42.1105 24.0228 42.0877 24.265 42.018 24.4956C41.9482 24.7262 41.8329 24.9405 41.6788 25.1257C41.5247 25.3109 41.335 25.4633 41.1209 25.5738L24.9206 34.574C24.6534 34.7221 24.353 34.7999 24.0476 34.7999C23.7421 34.7999 23.4417 34.7221 23.1745 34.574L6.97421 25.5738C6.76014 25.4633 6.57043 25.3109 6.41633 25.1257C6.26223 24.9405 6.14689 24.7262 6.07712 24.4956C6.00735 24.265 5.98459 24.0228 6.01018 23.7832C6.03577 23.5436 6.10919 23.3116 6.2261 23.101C6.343 22.8903 6.501 22.7053 6.69074 22.5568C6.88048 22.4083 7.0981 22.2994 7.33069 22.2366C7.56328 22.1738 7.80612 22.1583 8.04481 22.1911C8.2835 22.2238 8.51318 22.3042 8.72024 22.4273L24.0476 30.9415L39.3749 22.4273ZM23.3815 6.12622C23.6293 6.02822 23.8956 5.98643 24.1615 6.00386C24.4273 6.02129 24.686 6.09751 24.9188 6.22702L41.1191 15.2272C41.3996 15.3831 41.6333 15.6112 41.796 15.8878C41.9586 16.1644 42.0444 16.4795 42.0444 16.8004C42.0444 17.1213 41.9586 17.4364 41.796 17.713C41.6333 17.9896 41.3996 18.2177 41.1191 18.3737L24.9188 27.3738C24.6516 27.522 24.3512 27.5997 24.0457 27.5997C23.7403 27.5997 23.4399 27.522 23.1727 27.3738L6.97241 18.3737C6.69193 18.2177 6.45825 17.9896 6.29555 17.713C6.13285 17.4364 6.04706 17.1213 6.04706 16.8004C6.04706 16.4795 6.13285 16.1644 6.29555 15.8878C6.45825 15.6112 6.69193 15.3831 6.97241 15.2272L23.1727 6.22702L23.3815 6.12622Z"/>
</svg>
