<svg width="48" height="48" viewBox="0 0 48 48" xmlns="http://www.w3.org/2000/svg">
<path d="M16.8889 8C18.3034 8 19.6599 8.5619 20.6601 9.5621C21.6603 10.5623 22.2222 11.9188 22.2222 13.3333V15.1111C22.2222 16.5256 21.6603 17.8822 20.6601 18.8823C19.6599 19.8825 18.3034 20.4444 16.8889 20.4444H13.3333C11.9188 20.4444 10.5623 19.8825 9.5621 18.8823C8.5619 17.8822 8 16.5256 8 15.1111V13.3333C8 11.9188 8.5619 10.5623 9.5621 9.5621C10.5623 8.5619 11.9188 8 13.3333 8H16.8889ZM16.8889 24C18.3034 24 19.6599 24.5619 20.6601 25.5621C21.6603 26.5623 22.2222 27.9188 22.2222 29.3333V34.6667C22.2222 36.0812 21.6603 37.4377 20.6601 38.4379C19.6599 39.4381 18.3034 40 16.8889 40H13.3333C11.9188 40 10.5623 39.4381 9.5621 38.4379C8.5619 37.4377 8 36.0812 8 34.6667V29.3333C8 27.9188 8.5619 26.5623 9.5621 25.5621C10.5623 24.5619 11.9188 24 13.3333 24H16.8889ZM34.6667 8C36.0812 8 37.4377 8.5619 38.4379 9.5621C39.4381 10.5623 40 11.9188 40 13.3333V34.6667C40 36.0812 39.4381 37.4377 38.4379 38.4379C37.4377 39.4381 36.0812 40 34.6667 40H31.1111C29.6966 40 28.3401 39.4381 27.3399 38.4379C26.3397 37.4377 25.7778 36.0812 25.7778 34.6667V13.3333C25.7778 11.9188 26.3397 10.5623 27.3399 9.5621C28.3401 8.5619 29.6966 8 31.1111 8H34.6667Z"/>
</svg>
