<svg width="128" height="128" viewBox="0 0 128 128" fill="none" xmlns="http://www.w3.org/2000/svg">
<path d="M76.9553 4.20487C77.4258 4.43272 77.5022 4.72714 77.7034 5.20319C77.779 5.3789 77.8546 5.55462 77.9326 5.73567C78.0095 5.92112 78.0864 6.10657 78.1656 6.29764C78.28 6.56534 78.28 6.56534 78.3968 6.83845C78.6269 7.37856 78.8528 7.92028 79.0786 8.46218C79.1578 8.64803 79.237 8.83388 79.3185 9.02536C79.3936 9.20237 79.4687 9.37939 79.546 9.56177C79.6479 9.80096 79.6479 9.80096 79.7519 10.045C79.8993 10.4318 79.8993 10.4318 79.8993 10.7601C80.0093 10.7042 80.1192 10.6483 80.2325 10.5907C81.2677 10.0649 82.3038 9.54063 83.3407 9.01813C83.8738 8.74943 84.4066 8.48014 84.9387 8.20945C85.452 7.94834 85.9661 7.68883 86.4808 7.43043C86.7729 7.28323 87.0642 7.13437 87.3555 6.9855C87.5329 6.89676 87.7103 6.80802 87.8931 6.71659C88.0495 6.6375 88.2059 6.55841 88.367 6.47692C88.7627 6.32841 88.7627 6.32841 89.2551 6.49255C89.3982 6.84767 89.3982 6.84767 89.5141 7.32221C89.5584 7.49878 89.6027 7.67536 89.6484 7.85729C89.6946 8.05013 89.7409 8.24298 89.7885 8.44167C89.8902 8.84967 89.9919 9.25766 90.0937 9.66563C90.1452 9.87523 90.1967 10.0848 90.2498 10.3008C90.4852 11.2526 90.7317 12.2014 90.9785 13.1503C91.0491 13.4236 91.0491 13.4236 91.1212 13.7024C91.4543 14.9878 91.7994 16.2698 92.148 17.5512C92.539 18.9902 92.903 20.4329 93.2424 21.8849C93.6317 23.5481 94.0445 25.2053 94.603 26.821C94.6927 27.2825 94.6562 27.5459 94.5074 27.9944C94.2611 28.3516 94.0142 28.6776 93.738 29.01C93.5725 29.2148 93.4071 29.4198 93.2418 29.6248C93.1538 29.7331 93.0658 29.8414 92.9752 29.953C92.5034 30.5386 92.0442 31.1339 91.5837 31.7285C91.3889 31.9794 91.194 32.2303 90.999 32.4812C90.9013 32.607 90.8035 32.7328 90.7028 32.8625C90.4019 33.2495 90.1004 33.6361 89.7988 34.0225C89.6004 34.2768 89.4021 34.5312 89.2038 34.7855C89.1083 34.9077 89.0129 35.0299 88.9146 35.1558C88.485 35.7075 88.0591 36.2609 87.6451 36.8244C87.5765 36.9176 87.5079 37.0108 87.4373 37.1069C87.2582 37.3517 87.0807 37.5977 86.9033 37.8438C86.8128 37.9517 86.7222 38.0596 86.6289 38.1708C86.5206 38.1708 86.4122 38.1708 86.3006 38.1708C86.2801 38.0769 86.2595 37.983 86.2383 37.8862C85.8532 36.1364 85.4508 34.3982 84.9575 32.6756C84.5943 31.3992 84.2959 30.109 84.0027 28.815C82.7044 28.9191 81.4534 29.1953 80.185 29.4776C79.5086 29.628 78.8317 29.7758 78.1547 29.9236C77.9441 29.9696 77.9441 29.9696 77.7292 30.0166C76.2362 30.3416 74.7391 30.6454 73.2416 30.9488C71.0483 31.3939 68.8619 31.8634 66.6786 32.3547C64.758 32.7866 62.8333 33.1934 60.9043 33.5857C59.4325 33.8852 57.9644 34.1965 56.4997 34.529C53.9784 35.1005 51.4433 35.6055 48.9093 36.1167C48.5726 36.1848 48.2359 36.2529 47.8992 36.3211C47.6575 36.3698 47.6575 36.3698 47.411 36.4196C46.3945 36.6263 45.3855 36.8503 44.3801 37.106C43.902 37.1956 43.4541 37.1996 42.9687 37.186C42.4937 35.0737 42.1588 32.9483 41.8608 30.8052C41.8423 30.6739 41.8239 30.5426 41.8049 30.4073C41.7517 30.0275 41.6996 29.6477 41.6479 29.2677C41.6321 29.1539 41.6162 29.0402 41.5999 28.9229C41.5144 28.2804 41.4762 27.6575 41.4915 27.0095C39.8102 27.8433 38.2818 28.6763 36.8957 29.964C36.7582 30.0903 36.6206 30.2166 36.4789 30.3468C35.3215 31.4558 34.2238 32.727 33.3924 34.1046C32.9926 34.5326 32.5079 34.647 31.9614 34.806C31.7381 34.8757 31.515 34.9459 31.292 35.0163C31.1833 35.0502 31.0747 35.084 30.9628 35.1189C30.2981 35.3318 29.6566 35.5944 29.0172 35.8729C28.8099 35.9605 28.8099 35.9605 28.5985 36.0498C26.9429 36.8035 26.0323 37.8057 25.3895 39.5076C25.217 40.0559 25.1169 40.5527 25.0779 41.1252C23.8977 41.4844 22.7083 41.8127 21.4669 41.7818C21.4455 41.6903 21.4241 41.5987 21.402 41.5044C20.8731 39.2502 20.3231 37.0081 19.6717 34.7855C19.342 33.6453 19.068 32.4939 18.7997 31.3379C18.7672 31.1979 18.7346 31.0578 18.701 30.9135C18.6698 30.779 18.6387 30.6445 18.6066 30.5058C18.5217 30.1653 18.4213 29.8355 18.3137 29.5017C18.1793 28.9593 18.2214 28.6901 18.3483 28.1585C23.105 27.1967 27.8614 26.2397 32.6379 25.3809C33.1995 25.2798 33.7606 25.1767 34.3212 25.0704C34.4382 25.0483 34.5551 25.0261 34.6756 25.0033C34.9971 24.9421 35.3186 24.8806 35.64 24.8191C36.4236 24.6786 37.2087 24.5706 37.9985 24.4699C38.553 24.3894 38.553 24.3894 39.1491 24.2253C39.7956 24.0614 40.4396 23.9598 41.101 23.8711C43.6658 23.5039 45.7819 23.1822 47.8552 21.5382C48.6123 20.9724 49.4341 20.502 50.242 20.0132C50.611 19.7873 50.9798 19.5611 51.3486 19.3349C51.7285 19.1026 52.1086 18.8706 52.4886 18.6386C52.6784 18.5226 52.8683 18.4066 53.0581 18.2906C55.323 16.9073 57.5964 15.5396 59.8813 14.1896C61.6302 13.1561 63.3721 12.1112 65.1131 11.0645C65.2802 10.9641 65.4473 10.8636 65.6195 10.7601C65.7125 10.7041 65.8056 10.6482 65.9014 10.5906C67.0511 9.89939 68.2019 9.21017 69.3555 8.52566C69.4614 8.46284 69.5672 8.40003 69.6763 8.33531C70.2327 8.00531 70.7893 7.67571 71.3461 7.34641C72.3626 6.74474 73.377 6.14115 74.3809 5.51863C74.5323 5.42529 74.6838 5.33194 74.8398 5.23576C75.1138 5.06627 75.3868 4.89515 75.6585 4.72212C75.837 4.61209 75.837 4.61209 76.019 4.49984C76.1197 4.43631 76.2204 4.37278 76.3241 4.30733C76.6166 4.19465 76.6166 4.19465 76.9553 4.20487Z" fill="white"/>
<path d="M77.2277 65.5695C77.5615 65.7902 77.8784 66.0261 78.1964 66.269C78.4457 66.4513 78.6953 66.6332 78.9453 66.8146C79.075 66.9092 79.2047 67.0039 79.3383 67.1014C82.6874 69.5124 86.2443 71.5392 90.2399 72.6395C90.4048 72.6893 90.4048 72.6893 90.573 72.7402C91.7045 73.0447 92.8563 73.0117 94.0185 73.0015C94.375 72.9985 94.7315 72.9982 95.088 72.9982C96.0608 72.9948 96.9945 72.9803 97.9543 72.8036C98.3939 72.7852 98.8271 72.796 99.2674 72.8036C98.893 73.178 98.6979 73.2253 98.1928 73.3576C97.9537 73.4211 97.9537 73.4211 97.7097 73.4859C97.5331 73.5316 97.3566 73.5772 97.1747 73.6243C96.9898 73.6731 96.8048 73.722 96.6143 73.7723C96.0856 73.9117 95.5567 74.0501 95.0276 74.188C93.9736 74.4628 92.9201 74.7393 91.8666 75.0158C91.4716 75.1192 91.0766 75.2219 90.6815 75.3246C89.321 75.6796 87.9691 76.0545 86.6217 76.4564C85.6494 76.7451 84.6707 76.9974 83.6847 77.2353C82.0304 77.6422 80.389 78.0827 78.7504 78.5484C76.6826 79.1352 74.6161 79.7154 72.5285 80.2276C71.5442 80.47 70.5674 80.7337 69.5917 81.0083C68.5023 81.3146 67.41 81.6096 66.3171 81.9029C65.0032 82.2556 63.6899 82.6104 62.3778 82.9698C60.7461 83.4162 59.1117 83.8523 57.477 84.2872C56.1178 84.649 54.7595 85.0137 53.4016 85.3805C52.0731 85.7393 50.7431 86.0917 49.4111 86.4372C47.9013 86.8289 46.3959 87.2353 44.8916 87.6477C43.8821 87.9242 42.8716 88.1965 41.8608 88.4683C41.6837 88.516 41.5066 88.5637 41.3242 88.6128C40.3987 88.8617 39.4731 89.1102 38.5473 89.3583C38.1746 89.4583 37.8019 89.5583 37.4292 89.6583C37.2507 89.7061 37.0723 89.754 36.8884 89.8032C35.7664 90.105 34.6495 90.4189 33.5374 90.7553C33.1206 90.8586 33.1206 90.8586 32.4641 90.8586C31.8641 88.7604 31.2665 86.6616 30.6707 84.5623C30.5092 83.9934 30.3476 83.4246 30.1857 82.8558C30.0271 82.2987 29.8689 81.7416 29.7109 81.1844C29.6223 80.8722 29.5333 80.5601 29.4444 80.2481C29.3907 80.0584 29.3369 79.8687 29.2816 79.6732C29.2107 79.4239 29.2107 79.4239 29.1385 79.1696C29.026 78.7456 28.9337 78.3229 28.8531 77.8918C29.0968 77.8106 29.0968 77.8106 29.3455 77.7277C29.4538 77.5652 29.5621 77.4027 29.6737 77.2353C29.9956 77.1171 29.9956 77.1171 30.3918 77.0365C30.6118 76.9897 30.6118 76.9897 30.8362 76.942C30.9942 76.9101 31.1523 76.8783 31.3151 76.8455C31.6467 76.7747 31.9782 76.7033 32.3095 76.6313C32.475 76.5954 32.6404 76.5595 32.8108 76.5225C33.4715 76.3721 34.1215 76.1922 34.7722 76.0043C35.9866 75.6559 37.2088 75.3569 38.4388 75.0691C39.4552 74.8305 40.4636 74.5702 41.471 74.2962C42.3397 74.0628 43.2138 73.8505 44.0869 73.6346C45.248 73.347 46.4041 73.0497 47.5543 72.7215C48.9045 72.3367 50.267 72.0099 51.6346 71.6925C52.5217 71.4846 53.3986 71.2576 54.2736 71.0032C55.435 70.6664 56.6051 70.3821 57.782 70.1056C59.0635 69.8006 60.3426 69.4959 61.6084 69.1311C63.0996 68.7017 64.606 68.3347 66.1119 67.9616C68.3963 67.3982 68.3963 67.3982 70.6667 66.7819C71.8112 66.4562 72.9606 66.1527 74.1136 65.8586C74.3661 65.7929 74.3661 65.7929 74.6238 65.7258C76.5937 65.2287 76.5937 65.2287 77.2277 65.5695Z" fill="white"/>
<path d="M13.5884 39.1557C14.0605 40.3777 14.4259 41.5952 14.7271 42.8693C15.0098 44.0336 15.3017 45.1903 15.6504 46.3367C15.9934 47.4657 16.283 48.6035 16.5627 49.7497C16.8147 50.7725 17.1026 51.7804 17.4071 52.7886C17.6596 53.6324 17.8611 54.4808 18.0502 55.3411C18.212 56.0129 18.4063 56.6721 18.6048 57.3338C19.498 60.3279 19.498 60.3279 19.169 60.9858C18.8556 61.2096 18.5308 61.3989 18.1964 61.5898C17.6214 61.9558 17.1471 62.4414 16.9353 63.1042C16.6442 64.664 16.9802 66.2415 17.7502 67.6218C18.4758 68.6528 19.405 69.3986 20.6463 69.685C21.2472 69.7566 21.848 69.8083 22.4518 69.8491C22.9062 71.1444 23.2561 72.4604 23.6007 73.7884C23.6941 74.1468 23.7875 74.5052 23.8809 74.8636C24.3422 76.6372 24.7998 78.4113 25.2421 80.1897C26.0004 80.1355 26.7587 80.0814 27.54 80.0256C27.9191 81.488 28.2983 82.9505 28.6889 84.4572C28.0688 84.7053 27.5172 84.8877 26.8751 85.0458C26.6836 85.0933 26.492 85.1408 26.2947 85.1897C25.992 85.2639 25.992 85.2639 25.6832 85.3395C25.4778 85.3903 25.2724 85.4411 25.0608 85.4934C24.6521 85.5944 24.2434 85.6953 23.8347 85.7959C23.1134 85.9737 22.3927 86.1538 21.6721 86.3345C21.3302 86.42 20.9882 86.5055 20.6463 86.591C19.9699 84.4043 19.3172 82.2119 18.6939 80.0094C18.3103 78.6547 17.9175 77.3027 17.5226 75.9512C17.1006 74.5064 16.6813 73.0607 16.2627 71.6149C16.194 71.3777 16.1253 71.1405 16.0566 70.9032C15.7762 69.9351 15.4959 68.967 15.2158 67.9988C14.2537 64.6738 13.2835 61.3514 12.3047 58.0313C12.0935 57.3148 11.8826 56.5982 11.6718 55.8816C11.6382 55.7673 11.6045 55.653 11.5699 55.5351C11.2837 54.5622 10.9995 53.5886 10.716 52.6149C10.3891 51.4929 10.0616 50.3711 9.73123 49.2501C9.35107 47.9601 8.97417 46.6691 8.59891 45.3777C8.37457 44.6063 8.14878 43.8356 7.91612 43.0668C7.87761 42.9388 7.8391 42.8108 7.79943 42.6789C7.72858 42.444 7.65704 42.2093 7.58464 41.9749C7.42363 41.4393 7.35126 41.0361 7.35126 40.4688C7.51037 40.429 7.66948 40.3893 7.83341 40.3483C7.93848 40.322 8.04356 40.2957 8.15182 40.2686C8.38639 40.21 8.621 40.1516 8.85565 40.0933C9.47205 39.9399 10.0876 39.7841 10.7019 39.6225C10.8179 39.5924 10.9338 39.5623 11.0533 39.5313C11.3775 39.447 11.7014 39.3617 12.0253 39.2763C12.5666 39.1634 13.0378 39.132 13.5884 39.1557Z" fill="white"/>
<path d="M26.5552 95.6183C30.5634 95.6183 34.5716 95.6183 38.7012 95.6183C38.7012 96.8641 38.7012 98.1099 38.7012 99.3934C36.1013 99.3934 33.5014 99.3934 30.8227 99.3934C30.8227 100.314 30.8227 101.235 30.8227 102.184C33.1518 102.184 35.4809 102.184 37.8805 102.184C37.8805 103.375 37.8805 104.567 37.8805 105.795C35.5515 105.795 33.2224 105.795 30.8227 105.795C30.8227 106.878 30.8227 107.961 30.8227 109.077C33.4768 109.077 36.1309 109.077 38.8654 109.077C38.8654 110.215 38.8654 111.352 38.8654 112.524C34.803 112.524 30.7406 112.524 26.5552 112.524C26.5552 106.945 26.5552 101.366 26.5552 95.6183Z" fill="#CD2D2D"/>
<path d="M82.5159 96.9664C83.5896 97.8994 84.6287 98.9629 84.9876 100.379C84.9966 100.707 84.9984 101.035 84.9876 101.363C84.5125 101.474 84.0372 101.583 83.5617 101.692C83.4276 101.723 83.2936 101.754 83.1555 101.787C81.7344 102.109 81.7344 102.109 81.2125 102.02C80.9932 101.767 80.9932 101.767 80.8226 101.425C80.2634 100.433 79.5205 99.7385 78.4222 99.3938C76.7409 99.2319 75.5185 99.3373 74.1957 100.42C72.9522 101.939 72.8849 103.58 73.0057 105.467C73.1995 106.755 73.7567 107.796 74.7464 108.648C75.8243 109.329 77.2045 109.211 78.4222 109.078C79.5541 108.799 80.1128 108.272 80.7406 107.303C80.902 107.022 81.0608 106.738 81.2125 106.452C82.5775 106.547 83.841 106.901 85.1517 107.272C84.9599 108.776 84.1755 110.058 83.0705 111.083C80.8487 112.789 78.1755 113.088 75.4677 112.853C73.4047 112.564 71.5399 111.505 70.2154 109.898C68.4692 107.56 68.2493 104.654 68.6206 101.829C69.0291 99.7549 70.3241 97.984 72.0209 96.7676C75.1673 94.9462 79.4919 94.7369 82.5159 96.9664Z" fill="white"/>
<path d="M105.669 95.6183C110.327 95.6183 114.985 95.6183 119.784 95.6183C119.784 96.8641 119.784 98.1099 119.784 99.3934C118.159 99.3934 116.535 99.3934 114.86 99.3934C114.86 103.727 114.86 108.06 114.86 112.524C113.398 112.524 111.935 112.524 110.429 112.524C110.429 108.245 110.429 103.966 110.429 99.5575C108.858 99.5575 107.287 99.5575 105.669 99.5575C105.669 98.2576 105.669 96.9576 105.669 95.6183Z" fill="white"/>
<path d="M17.3635 33.0829C17.9819 34.9067 18.5018 36.7511 18.9322 38.6275C19.2722 40.1081 19.6714 41.5715 20.0878 43.0323C20.6379 44.9666 21.151 46.9026 21.6102 48.8606C21.8384 49.8287 22.0835 50.7876 22.3594 51.7431C22.7438 53.0835 23.067 54.4379 23.3853 55.7952C23.4341 56.002 23.483 56.2089 23.5333 56.422C23.8215 57.664 24.0655 58.9048 24.2572 60.1653C23.6396 60.3712 23.0636 60.347 22.421 60.3397C22.2979 60.339 22.1749 60.3382 22.0481 60.3375C21.745 60.3355 21.4418 60.3326 21.1387 60.3294C21.0947 60.1397 21.0506 59.9499 21.0053 59.7543C20.5792 57.9331 20.1282 56.1188 19.6614 54.3077C19.609 54.1035 19.5565 53.8993 19.5024 53.6889C19.1807 52.446 18.8444 51.2079 18.4989 49.9715C18.2563 49.1027 18.019 48.2326 17.7854 47.3614C17.7527 47.2396 17.7201 47.1179 17.6864 46.9924C17.6198 46.7439 17.5532 46.4955 17.4865 46.247C16.9894 44.3937 16.4864 42.5438 15.9376 40.7049C15.3423 38.7083 14.8439 36.6896 14.3508 34.6657C14.2621 34.3019 14.1721 33.9385 14.0808 33.5753C14.4739 33.4922 14.8671 33.4103 15.2605 33.3291C15.3711 33.3056 15.4816 33.2821 15.5955 33.2579C16.1941 33.1353 16.7524 33.0544 17.3635 33.0829Z" fill="white"/>
<path d="M95.6564 30.4563C95.7647 30.4563 95.8731 30.4563 95.9847 30.4563C96.0102 30.5569 96.0357 30.6575 96.0621 30.7612C96.5352 32.6185 97.0183 34.4652 97.6132 36.2876C97.7713 36.7969 97.9059 37.3073 98.032 37.8253C98.2191 38.5726 98.437 39.312 98.649 40.0525C98.8416 40.7358 99.0031 41.4055 99.1033 42.11C98.8132 42.3262 98.5224 42.5414 98.2313 42.7562C98.0694 42.8762 97.9076 42.9962 97.7408 43.1198C96.963 43.6522 96.2578 43.6111 95.3486 43.609C95.2043 43.6091 95.0599 43.6093 94.9111 43.6094C94.6048 43.6096 94.2985 43.6093 93.9922 43.6086C93.529 43.6077 93.0658 43.6086 92.6026 43.6096C88.6062 43.6115 88.6062 43.6115 87.8497 43.1871C87.4785 42.5253 87.2871 41.8879 87.2855 41.1251C87.5342 40.5513 87.9088 40.1234 88.3216 39.6582C88.4288 39.5293 88.5361 39.4005 88.6466 39.2677C88.955 38.8985 89.2687 38.5345 89.5834 38.1707C89.8306 37.8706 90.077 37.5699 90.322 37.2679C90.4362 37.1298 90.5505 36.9916 90.6682 36.8493C91.2788 36.096 91.8689 35.3268 92.462 34.5597C93.2377 33.5592 94.0309 32.5742 94.8359 31.5971C95.2904 31.0567 95.2904 31.0567 95.6564 30.4563Z" fill="white"/>
<path fill-rule="evenodd" clip-rule="evenodd" d="M55.9892 96.5803C54.3957 95.6183 52.2213 95.6183 43.9535 95.6183V112.524L48.2723 112.555C48.337 112.556 48.4017 112.556 48.4663 112.557C49.0373 112.563 49.6082 112.569 50.1792 112.571L50.7017 112.572C52.2198 112.593 53.5249 112.442 54.9526 111.909C56.7809 111.144 58.2408 110.045 59.0547 108.195L59.2182 107.764C59.5174 106.98 59.6818 106.222 59.7382 105.383C59.8554 102.609 59.6601 100.191 57.7236 98.0213C57.0525 97.3894 56.5578 96.9236 55.9892 96.5803ZM52.8921 99.7194C52.148 99.3935 51.2612 99.3935 48.3852 99.3935V108.913C48.678 108.913 48.9684 108.918 49.2556 108.923C51.1027 108.955 52.8228 108.985 54.2633 107.672C55.0684 106.546 55.3419 105.32 55.3507 103.959C55.3273 102.48 55.0421 101.455 53.9658 100.378C53.5272 100.075 53.2238 99.8646 52.8921 99.7194Z" fill="#CD2D2D"/>
<path d="M52.1604 4.68701C52.4635 5.24664 52.7636 5.80785 53.0631 6.36941C53.1493 6.5283 53.2354 6.6872 53.3241 6.85091C53.4463 7.08101 53.4463 7.08101 53.5709 7.31575C53.6466 7.45672 53.7222 7.59768 53.8002 7.74292C53.9659 8.13387 53.9659 8.13387 53.9659 8.79041C53.632 9.08666 53.632 9.08666 53.158 9.39117C52.9816 9.50637 52.8052 9.62156 52.6235 9.74024C52.4281 9.86475 52.2327 9.98925 52.0373 10.1138C51.8369 10.2439 51.6367 10.3743 51.4367 10.5049C51.1236 10.7093 50.8105 10.9136 50.4969 11.117C49.3614 11.8539 48.2421 12.6139 47.1235 13.376C46.9277 13.5091 46.7319 13.6421 46.5361 13.7752C45.3319 14.5938 44.1301 15.4157 42.9316 16.2426C42.4752 16.5573 42.0176 16.8702 41.5595 17.1825C39.15 18.8251 36.7526 20.4802 34.4337 22.2496C34.3254 22.1954 34.2171 22.1412 34.1054 22.0854C34.4877 21.6983 34.871 21.3122 35.2544 20.9262C35.3608 20.8184 35.4672 20.7106 35.5769 20.5995C36.0939 20.08 36.6145 19.576 37.1727 19.1008C38.1737 18.2378 39.086 17.28 40.0143 16.3407C40.3866 15.964 40.7594 15.588 41.1325 15.2122C41.215 15.1284 41.2974 15.0446 41.3824 14.9583C41.822 14.5156 42.272 14.0964 42.7464 13.691C43.5853 12.9643 44.3602 12.1747 45.1403 11.3862C45.4144 11.1092 45.6891 10.8328 45.9641 10.5565C46.7446 9.77198 47.5242 8.9865 48.303 8.20035C48.7817 7.7173 49.2612 7.23504 49.7411 6.75327C49.9235 6.56988 50.1055 6.38617 50.2873 6.20216C50.5399 5.94643 50.7934 5.69171 51.0473 5.4372C51.1913 5.29196 51.3353 5.14672 51.4837 4.99707C51.8321 4.68701 51.8321 4.68701 52.1604 4.68701Z" fill="#CD2D2D"/>
<path d="M104.274 72.1162C104.495 72.1131 104.495 72.1131 104.72 72.1101C106.142 72.107 107.406 72.3625 108.623 73.1317C108.931 73.4612 109.107 73.7722 109.321 74.1679C109.583 74.57 109.826 74.8277 110.172 75.1527C111.103 76.054 111.526 77.0838 111.629 78.3636C111.615 79.0827 111.411 79.4853 110.921 80.0255C110.182 80.4748 109.553 80.623 108.709 80.489C106.732 79.8434 105.455 78.2155 104.328 76.5721C104.245 76.4524 104.163 76.3326 104.079 76.2093C103.997 76.0896 103.915 75.9698 103.83 75.8465C102.986 74.6409 101.985 73.6373 100.909 72.6393C101.657 71.8916 103.266 72.1169 104.274 72.1162Z" fill="#CD2D2D"/>
<path d="M27.54 69.0281C27.6678 69.3143 27.6678 69.3143 27.7616 69.6915C27.7977 69.8323 27.8339 69.9732 27.8711 70.1184C27.9265 70.3486 27.9265 70.3486 27.983 70.5836C28.0224 70.7409 28.0618 70.8982 28.1024 71.0604C28.1854 71.3943 28.2675 71.7285 28.3485 72.063C28.4723 72.5726 28.5997 73.0813 28.7277 73.5899C28.808 73.9145 28.888 74.2392 28.9678 74.5639C29.0248 74.7912 29.0248 74.7912 29.0828 75.023C29.2784 75.8378 29.3876 76.5611 29.3455 77.3991C29.0349 77.51 28.7236 77.6191 28.412 77.7273C28.2387 77.7883 28.0654 77.8492 27.8869 77.912C27.4114 78.0456 27.0448 78.0847 26.5552 78.0556C26.2909 77.1549 26.0605 76.2487 25.8371 75.3371C25.5935 74.3488 25.3376 73.3685 25.0472 72.3929C24.7532 71.3909 24.5653 70.3899 24.4214 69.3564C25.4177 69.0384 26.5204 68.6882 27.54 69.0281Z" fill="white"/>
<path d="M104.356 49.4962C105.367 52.3294 106.066 55.2528 106.738 58.1821C106.824 58.5509 106.913 58.9188 107.004 59.2867C107.034 59.413 107.065 59.5394 107.096 59.6695C107.155 59.9105 107.214 60.1513 107.274 60.3919C107.417 60.9846 107.507 61.5246 107.474 62.1347C105.699 61.2974 104.903 60.2858 104.223 58.4613C103.908 57.5058 103.708 56.5352 103.514 55.5487C103.436 55.1584 103.357 54.7681 103.277 54.378C103.221 54.0989 103.221 54.0989 103.163 53.8142C103.015 53.1475 102.828 52.4968 102.625 51.8449C102.543 51.4291 102.566 51.2033 102.714 50.8093C103.006 50.4579 103.006 50.4579 103.36 50.1117C103.477 49.9958 103.594 49.8798 103.714 49.7604C104.027 49.4962 104.027 49.4962 104.356 49.4962Z" fill="white"/>
<path fill-rule="evenodd" clip-rule="evenodd" d="M19.2156 96.4034C17.9171 95.6183 16.1439 95.6183 8.00777 95.6183V112.524H12.2753V106.78H13.9167C13.9167 106.873 13.9167 106.944 13.9276 107.012C13.9607 107.219 14.0932 107.41 14.6245 108.175C14.6438 108.202 14.6631 108.229 14.6823 108.256C15.0773 108.808 15.4627 109.346 15.731 109.975C16.0503 110.807 16.3676 111.606 16.9718 112.274C17.2558 112.455 17.4678 112.591 17.697 112.685C18.3727 112.96 19.197 112.872 22.4517 112.524C22.4517 112.412 22.4517 112.334 22.4362 112.26C22.4016 112.094 22.2894 111.944 21.9262 111.458C21.1622 110.449 20.423 109.424 19.6974 108.387L19.3844 107.939C19.0387 107.443 18.6932 106.947 18.3483 106.451L18.8407 106.123C19.404 105.815 19.9538 105.504 20.4821 105.138C21.5216 104.138 21.8116 102.747 21.8521 101.352C21.8743 99.7014 21.4626 98.4584 20.318 97.2596C19.9024 96.9019 19.5774 96.6222 19.2156 96.4034ZM14.0193 99.3627L12.2754 99.3935V103.333L14.204 103.353L14.8091 103.362L15.2888 103.365C15.5473 103.368 15.6694 103.369 15.7912 103.364C15.9001 103.36 16.0088 103.35 16.2146 103.333C16.8474 103.08 17.1756 102.775 17.5277 102.184C17.6617 101.445 17.6323 100.892 17.261 100.235C16.4044 99.4682 15.6798 99.3396 14.5634 99.3491L14.0193 99.3627Z" fill="#CD2D2D"/>
<path d="M102.386 19.4594C102.911 19.7119 103.406 19.9991 103.904 20.3005C104.051 20.389 104.197 20.4774 104.348 20.5686C104.514 20.6695 104.514 20.6695 104.684 20.7724C104.425 21.4116 103.988 21.8364 103.502 22.3086C103.418 22.392 103.334 22.4754 103.247 22.5614C102.978 22.8276 102.708 23.0926 102.437 23.3576C102.084 23.7049 101.731 24.0528 101.379 24.4014C101.294 24.4857 101.208 24.57 101.12 24.6569C100.562 25.2133 100.035 25.7873 99.5239 26.3872C99.0833 26.8924 98.606 27.3601 98.1287 27.8303C97.9838 27.9741 97.9838 27.9741 97.836 28.1207C97.6023 28.3526 97.368 28.5839 97.1336 28.8151C97.0253 28.7609 96.917 28.7068 96.8054 28.651C97.9107 26.7575 99.0294 24.876 100.208 23.0273C100.957 21.8515 101.676 20.6589 102.386 19.4594Z" fill="#CD2D2D"/>
<path d="M100.088 117.777C101.388 117.777 102.688 117.777 104.027 117.777C104.027 118.048 104.027 118.319 104.027 118.598C103.052 118.598 102.077 118.598 101.073 118.598C101.073 119.139 101.073 119.681 101.073 120.239C101.994 120.239 102.914 120.239 103.863 120.239C103.863 120.51 103.863 120.781 103.863 121.06C102.942 121.06 102.022 121.06 101.073 121.06C101.073 121.655 101.073 122.251 101.073 122.865C102.102 122.865 103.131 122.865 104.191 122.865C104.191 123.136 104.191 123.407 104.191 123.686C102.837 123.686 101.483 123.686 100.088 123.686C100.088 121.736 100.088 119.786 100.088 117.777Z" fill="white"/>
<path d="M72.0208 117.613C72.3458 117.613 72.6708 117.613 73.0056 117.613C73.0301 118.269 73.0479 118.926 73.0597 119.583C73.0646 119.806 73.0713 120.029 73.0799 120.252C73.1582 122.342 73.1582 122.342 72.5401 123.09C71.8151 123.793 70.9936 123.741 70.0332 123.732C69.4166 123.672 69.1336 123.504 68.7381 123.029C68.371 122.453 68.3716 121.978 68.3778 121.303C68.3788 121.098 68.3799 120.893 68.381 120.681C68.3837 120.467 68.3865 120.254 68.3893 120.034C68.3908 119.817 68.3923 119.601 68.3938 119.378C68.3977 118.844 68.4031 118.311 68.4098 117.777C68.6806 117.777 68.9515 117.777 69.2305 117.777C69.2329 117.897 69.2353 118.017 69.2377 118.14C69.25 118.686 69.2659 119.232 69.2818 119.777C69.2855 119.966 69.2892 120.155 69.293 120.349C69.2988 120.532 69.3046 120.714 69.3106 120.902C69.3149 121.07 69.3192 121.238 69.3237 121.41C69.4059 121.955 69.5451 122.27 69.887 122.701C70.7531 122.812 70.7531 122.812 71.543 122.516C71.9895 122.078 71.9455 121.772 71.9567 121.155C71.962 120.949 71.9673 120.743 71.9727 120.531C71.9762 120.209 71.9762 120.209 71.9798 119.88C71.9844 119.661 71.9893 119.441 71.9945 119.222C72.0061 118.686 72.0148 118.149 72.0208 117.613Z" fill="white"/>
<path d="M117.979 117.613C118.416 117.789 118.738 117.998 119.128 118.269C118.994 118.587 118.994 118.587 118.8 118.926C118.637 118.98 118.475 119.034 118.307 119.09C118.25 119.009 118.192 118.927 118.133 118.844C117.652 118.471 117.255 118.544 116.666 118.597C116.29 118.899 116.29 118.899 116.317 119.357C116.324 119.485 116.331 119.614 116.338 119.746C117.052 120.059 117.765 120.344 118.505 120.593C118.856 120.757 119.053 120.918 119.292 121.224C119.361 121.934 119.371 122.356 119.087 123.009C118.659 123.528 118.315 123.665 117.647 123.747C115.979 123.78 115.979 123.78 115.383 123.275C115.265 123.14 115.147 123.004 115.024 122.865C115.106 122.621 115.106 122.621 115.189 122.373C115.496 122.229 115.496 122.229 115.845 122.208C115.916 122.288 115.987 122.368 116.061 122.451C116.439 122.792 116.677 122.756 117.179 122.742C117.325 122.739 117.471 122.737 117.621 122.734C117.975 122.74 117.975 122.74 118.143 122.537C118.15 122.263 118.15 121.99 118.143 121.716C117.981 121.648 117.818 121.581 117.651 121.511C115.493 120.577 115.493 120.577 115.189 119.911C115.107 119.36 115.067 118.963 115.362 118.474C116.131 117.527 116.811 117.479 117.979 117.613Z" fill="white"/>
<path d="M40.9171 117.796C41.2319 117.995 41.5293 118.2 41.8198 118.433C41.7115 118.65 41.6031 118.867 41.4915 119.09C40.835 119.09 40.835 119.09 40.3426 118.762C39.7861 118.672 39.2577 118.671 38.7012 118.762C38.1944 119.131 38.1944 119.131 37.8805 119.582C37.8264 119.636 37.7722 119.691 37.7164 119.746C37.6212 120.718 37.632 121.548 38.2088 122.373C38.6978 122.771 39.2399 122.757 39.8579 122.746C40.3082 122.683 40.6172 122.446 40.9991 122.208C41.4608 122.26 41.4608 122.26 41.8198 122.373C41.7845 122.867 41.6461 123.039 41.2966 123.398C40.43 123.923 39.3377 123.832 38.3729 123.686C37.5195 123.297 36.975 122.722 36.5675 121.88C36.438 120.883 36.4137 119.919 36.8342 118.997C37.9629 117.839 39.2821 117.065 40.9171 117.796Z" fill="white"/>
<path d="M105.669 95.6183C110.327 95.6183 114.985 95.6183 119.784 95.6183C119.784 96.8641 119.784 98.1099 119.784 99.3934C118.159 99.3934 116.535 99.3934 114.86 99.3934C114.86 99.3392 114.86 99.2851 114.86 99.2293C116.377 99.2293 117.894 99.2293 119.456 99.2293C119.456 98.146 119.456 97.0627 119.456 95.9466C114.96 95.9466 110.465 95.9466 105.833 95.9466C105.833 97.0299 105.833 98.1132 105.833 99.2293C107.404 99.2293 108.974 99.2293 110.593 99.2293C110.593 103.617 110.593 108.004 110.593 112.524C110.539 112.524 110.484 112.524 110.429 112.524C110.429 108.245 110.429 103.966 110.429 99.5575C108.858 99.5575 107.287 99.5575 105.669 99.5575C105.669 98.2576 105.669 96.9576 105.669 95.6183Z" fill="white"/>
<path fill-rule="evenodd" clip-rule="evenodd" d="M98.6108 95.6183H94.1792L94.1587 95.6694C94.0052 96.0531 93.8517 96.4369 93.6978 96.8205C93.4653 97.3996 93.2324 97.9785 92.9996 98.5574C91.7258 101.724 90.452 104.89 89.2416 108.081C89.0854 108.495 88.9287 108.909 88.7695 109.321C88.6708 109.576 88.5724 109.831 88.4744 110.087L88.3421 110.432C88.0606 111.162 87.909 111.738 87.7779 112.524H92.0454L92.7019 110.719L93.0302 109.242L99.2674 109.406L100.252 112.524H104.848C104.806 112.397 104.763 112.27 104.721 112.143C104.283 110.825 103.843 109.502 103.317 108.216C102.939 107.337 102.599 106.459 102.304 105.549C102.057 104.785 101.788 104.04 101.473 103.302C101.275 102.842 101.086 102.385 100.923 101.912C100.521 100.657 100.066 99.4259 99.5954 98.196C99.5122 97.9786 99.4291 97.7612 99.3462 97.5438C99.1016 96.9017 98.8563 96.26 98.6108 95.6183ZM97.0069 102.024C96.8051 101.408 96.6589 100.962 96.1488 100.542C95.9978 100.966 95.8476 101.389 95.6981 101.812L95.5128 102.338L95.3313 102.846L95.155 103.348C95.0634 103.606 95.002 103.78 94.9476 103.955C94.8367 104.313 94.7552 104.68 94.5074 105.795H98.1184C98.1184 105.721 98.1184 105.661 98.1147 105.602C98.0993 105.358 98.0206 105.117 97.6174 103.886L97.4106 103.261L97.2096 102.637L97.0124 102.041L97.0069 102.024Z" fill="white"/>
<path d="M52.8169 117.613C54.3335 117.613 55.8502 117.613 57.4127 117.613C57.4127 117.938 57.4127 118.263 57.4127 118.597C56.8169 118.597 56.2211 118.597 55.6072 118.597C55.6072 120.276 55.6072 121.956 55.6072 123.686C55.2822 123.686 54.9573 123.686 54.6224 123.686C54.6224 122.006 54.6224 120.327 54.6224 118.597C54.0266 118.597 53.4308 118.597 52.8169 118.597C52.8169 118.272 52.8169 117.947 52.8169 117.613Z" fill="white"/>
<path d="M72.0208 117.613C72.3458 117.613 72.6708 117.613 73.0056 117.613C73.0302 118.269 73.0479 118.926 73.0597 119.583C73.0647 119.806 73.0714 120.029 73.0799 120.252C73.1582 122.342 73.1582 122.342 72.544 123.091C72.0871 123.538 71.6834 123.67 71.036 123.686C71.1223 123.533 71.1223 123.533 71.2104 123.378C71.2612 123.263 71.312 123.148 71.3643 123.029C71.3101 122.921 71.256 122.812 71.2001 122.701C71.3064 122.641 71.4127 122.582 71.5222 122.52C71.9019 122.228 71.9019 122.228 71.9463 121.731C71.9497 121.541 71.9532 121.351 71.9567 121.155C71.962 120.949 71.9673 120.743 71.9727 120.531C71.9751 120.316 71.9774 120.101 71.9798 119.88C71.9844 119.661 71.9893 119.441 71.9945 119.222C72.0062 118.686 72.0148 118.149 72.0208 117.613Z" fill="white"/>
<path fill-rule="evenodd" clip-rule="evenodd" d="M11.5124 117.881C10.9481 117.613 10.2562 117.613 8.17193 117.613V123.686H9.15674V121.552L10.0903 121.572C10.7963 121.588 11.3135 121.548 11.9471 121.224C12.3392 120.789 12.5715 120.448 12.6613 119.863C12.6632 119.809 12.6656 119.757 12.6679 119.706C12.6877 119.262 12.7042 118.894 12.4145 118.512C12.0418 118.214 11.7929 118.014 11.5124 117.881ZM11.204 118.668C10.948 118.54 10.622 118.55 9.15675 118.598V120.731C9.77447 120.761 10.3494 120.786 10.9622 120.731C11.1979 120.589 11.3077 120.522 11.3916 120.432C11.4648 120.353 11.5184 120.256 11.6188 120.075C11.6918 119.564 11.728 119.25 11.4316 118.816C11.3447 118.753 11.2772 118.705 11.204 118.668Z" fill="white"/>
<path d="M24.0932 117.777C24.364 117.777 24.6348 117.777 24.9138 117.777C24.9138 119.673 24.9138 121.568 24.9138 123.522C24.643 123.522 24.3722 123.522 24.0932 123.522C24.0932 121.626 24.0932 119.73 24.0932 117.777Z" fill="white"/>
<path fill-rule="evenodd" clip-rule="evenodd" d="M86.1673 117.736L84.4952 117.777V123.686H85.48V121.388L86.4648 121.552C86.748 121.913 86.9694 122.235 87.1931 122.629C87.4209 123.037 87.6289 123.326 87.942 123.686C88.2773 123.722 88.4316 123.738 88.5856 123.735C88.717 123.733 88.8481 123.716 89.091 123.686C89.091 123.514 89.091 123.432 89.0611 123.363C89.0339 123.301 88.9819 123.249 88.8826 123.149C88.7423 123.017 88.6655 122.945 88.5981 122.865C88.5167 122.768 88.4489 122.66 88.2991 122.422L87.9933 121.932C87.8115 121.641 87.63 121.351 87.4496 121.06C87.8039 121.06 87.967 121.06 88.113 121.01C88.2376 120.967 88.3497 120.888 88.5575 120.742C88.7855 120.431 88.8728 120.313 88.9197 120.18C88.9488 120.097 88.9625 120.009 88.9845 119.867C88.9919 119.11 88.9724 118.668 88.453 118.087C87.8271 117.707 87.4083 117.709 86.69 117.718L86.1673 117.736ZM87.5273 118.67C87.2718 118.54 86.9444 118.55 85.48 118.597V120.567L86.1878 120.577C86.4443 120.581 86.701 120.578 86.9572 120.567C87.456 120.401 87.6337 120.322 87.942 119.911C88.0108 119.452 88.0221 119.206 87.7554 118.82C87.6684 118.757 87.6008 118.707 87.5273 118.67Z" fill="white"/>
<path d="M36.9334 19.673C37.0293 19.7108 37.1252 19.7487 37.224 19.7877C37.0022 20.305 36.7823 20.5779 36.3251 20.9033C36.2151 20.9827 36.1051 21.062 35.9917 21.1437C35.8197 21.2647 35.8197 21.2647 35.6442 21.388C35.4703 21.5128 35.4703 21.5128 35.2929 21.64C35.0074 21.8445 34.7206 22.0473 34.4337 22.2497C34.3254 22.1956 34.2171 22.1414 34.1054 22.0856C34.4987 21.6685 34.8966 21.2561 35.2954 20.8443C35.4074 20.7255 35.5193 20.6067 35.6346 20.4843C35.7436 20.3727 35.8525 20.2611 35.9648 20.1461C36.0645 20.0421 36.1642 19.9381 36.2669 19.8309C36.5675 19.6236 36.5675 19.6236 36.9334 19.673Z" fill="#CD2D2D"/>
<path d="M116.994 18.3104C116.666 18.6387 116.666 18.6387 116.307 18.7515C115.634 19.0653 115.196 19.5771 114.696 20.1159C114.588 20.0076 114.48 19.8993 114.368 19.7876C114.549 19.6025 114.73 19.4179 114.912 19.2337C115.013 19.1309 115.113 19.028 115.217 18.9221C115.822 18.3503 116.181 18.2743 116.994 18.3104Z" fill="#CD2D2D"/>
<path d="M71.6925 97.0956C71.6925 97.588 71.6925 97.588 71.4053 97.9233C71.2834 98.0395 71.1616 98.1556 71.036 98.2753C70.9141 98.3927 70.7923 98.5102 70.6667 98.6311C70.5245 98.7648 70.5245 98.7648 70.3795 98.9011C70.2711 98.8469 70.1628 98.7927 70.0512 98.7369C70.2317 98.5243 70.4131 98.3124 70.5949 98.1009C70.6958 97.9829 70.7967 97.8648 70.9007 97.7431C71.2001 97.4239 71.2001 97.4239 71.6925 97.0956Z" fill="white"/>
<path d="M99.2674 72.8034C98.8995 73.1713 98.7076 73.2272 98.2108 73.3471C98.0181 73.3969 98.0181 73.3969 97.8216 73.4477C97.4619 73.4599 97.4619 73.4599 97.1689 73.2208C97.1031 73.1372 97.0373 73.0536 96.9695 72.9675C97.7513 72.8112 98.4741 72.7897 99.2674 72.8034Z" fill="white"/>
<path d="M98.2826 27.3379C98.0274 27.9644 97.6201 28.3542 97.1336 28.8151C97.0253 28.7609 96.917 28.7068 96.8054 28.651C97.4977 27.3379 97.4977 27.3379 98.2826 27.3379Z" fill="#CD2D2D"/>
<path d="M71.5284 123.029C71.3335 123.357 71.3335 123.357 71.036 123.686C70.5949 123.727 70.5949 123.727 70.2153 123.686C70.2695 123.469 70.3237 123.252 70.3795 123.029C70.8736 122.876 71.0141 122.858 71.5284 123.029Z" fill="white"/>
<path d="M35.4185 20.7723C35.5269 20.9348 35.6352 21.0973 35.7468 21.2647C35.3135 21.5897 34.8802 21.9147 34.4337 22.2496C34.3254 22.1954 34.2171 22.1412 34.1054 22.0854C34.5388 21.6521 34.9721 21.2188 35.4185 20.7723Z" fill="#CD2D2D"/>
<path d="M115.845 117.941C116.008 117.995 116.17 118.049 116.338 118.105C116.18 118.237 116.18 118.237 116.02 118.372C115.618 118.835 115.571 119.146 115.517 119.747C115.463 119.747 115.409 119.747 115.353 119.747C115.292 118.514 115.292 118.514 115.599 118.105C115.68 118.051 115.761 117.997 115.845 117.941Z" fill="white"/>
<path d="M97.9543 26.6813C98.4467 26.6813 98.4467 26.6813 98.775 26.8454C98.6667 27.0621 98.5583 27.2787 98.4467 27.502C98.1759 27.502 97.9051 27.502 97.626 27.502C97.7344 27.2311 97.8427 26.9603 97.9543 26.6813Z" fill="#CD2D2D"/>
<path d="M106.161 61.1498C106.286 61.2073 106.412 61.2649 106.541 61.3242C106.99 61.5312 106.99 61.5312 107.474 61.3139C107.474 61.5847 107.474 61.8556 107.474 62.1346C106.346 61.5191 106.346 61.5191 106.161 61.1498Z" fill="white"/>
<path d="M42.1481 14.207C42.3106 14.2612 42.4731 14.3154 42.6405 14.3712C42.0717 14.8587 42.0717 14.8587 41.4915 15.356C41.3832 15.3018 41.2749 15.2477 41.1633 15.1918C41.4882 14.8669 41.8132 14.5419 42.1481 14.207Z" fill="#CD2D2D"/>
<path d="M95.6564 30.4563C95.7647 30.4563 95.8731 30.4563 95.9847 30.4563C95.9193 30.93 95.855 31.0836 95.482 31.4001C95.3771 31.4678 95.2721 31.5355 95.164 31.6053C95.164 31.0274 95.2795 30.8767 95.6564 30.4563Z" fill="white"/>
<path d="M119.292 19.2539C118.787 18.8124 118.287 18.5244 117.651 18.3101C116.511 18.0807 115.827 18.2846 115.011 19.1051L114.696 19.4591C112.035 22.4127 110.333 26.0988 108.715 29.6868C106.165 35.349 103.705 40.6867 98.5826 44.4539L98.1185 44.736C97.1148 45.1341 96.6076 45.3352 96.0814 45.426C95.5439 45.5187 94.9866 45.4963 93.86 45.4511C93.5685 45.4463 93.277 45.4429 92.9854 45.441C91.3838 45.4337 89.7915 45.3919 88.194 45.2727C87.803 45.2428 87.4119 45.2152 87.0207 45.1896L86.5376 45.1594L86.5375 45.1594C84.8473 45.0538 83.1571 44.9482 81.4683 44.8232C79.2529 44.6579 77.0368 44.515 74.8191 44.3853L74.3033 44.3551C71.6965 44.2019 69.0894 44.0524 66.4821 43.9074C64.553 43.8 62.624 43.6911 60.695 43.5805C59.4534 43.5092 58.2117 43.4384 56.9699 43.3706C55.8491 43.3096 54.7285 43.2475 53.608 43.1824L53.4273 43.1718L53.4269 43.1718C52.9002 43.1409 52.3735 43.11 51.8467 43.0819C51.2947 43.053 50.7428 43.023 50.191 42.9903L49.5812 42.9536C49.4855 42.949 49.3903 42.9449 49.2957 42.9409C48.4501 42.9047 47.6478 42.8704 46.887 42.4417L46.4156 42.1098L46.0478 41.8655L45.7322 41.6366C45.3566 41.3659 44.9834 41.0923 44.6111 40.8172L44.4381 40.6891L44.438 40.6891C44.0056 40.3688 43.5742 40.0493 43.1222 39.7565C42.6332 39.4496 42.1752 39.1332 41.7185 38.7784C41.4079 38.2732 41.2507 38.0175 41.1637 37.7398C41.0745 37.4552 41.0591 37.1474 41.028 36.5241C41.0133 36.1927 41.0061 36.0299 40.9886 35.8682C40.9718 35.712 40.9453 35.5569 40.8933 35.252C40.5393 33.536 40.2895 31.8099 40.0517 30.0744L40.0143 29.7996C39.5126 29.9066 39.1482 29.9843 38.8168 30.1345C37.9382 30.5326 37.2905 31.4404 34.9261 34.7544L34.9261 34.7545C34.8707 34.8346 34.8183 34.9131 34.7674 34.9895C34.457 35.4548 34.1992 35.8414 33.613 36.0368C33.4039 36.0931 33.1909 36.1489 32.9755 36.2054L32.9746 36.2056C31.2805 36.6494 29.4324 37.1336 28.0837 38.2321C27.1227 39.1952 26.868 39.9832 26.8219 41.3404C26.8366 41.6449 26.8437 41.7902 26.8284 41.9331C26.8144 42.0636 26.7818 42.1922 26.7193 42.438L26.7193 42.4381L26.2949 42.692C25.7084 42.9416 25.327 43.2333 24.8471 43.6419L24.5445 43.9051L24.2342 44.1663L23.9367 44.4225C23.5423 44.7618 23.2812 45.0594 23.1083 45.5567L23.1083 45.5567C23.2728 45.8796 23.3396 46.0107 23.4161 46.136C23.4683 46.2216 23.525 46.3045 23.6206 46.444L23.6206 46.444L23.929 46.8698C24.1286 47.1499 24.3276 47.4353 24.528 47.7226L24.528 47.7227C25.356 48.9102 26.2063 50.1298 27.2117 51.1373H27.7041L27.8683 49.9883C28.0318 50.0701 28.1138 50.1111 28.1992 50.1436C28.2852 50.1763 28.3744 50.2003 28.5537 50.2485L28.998 50.3551L29.4931 50.4754C30.7734 50.786 32.0548 51.0971 33.3193 51.4677L33.6541 51.5681C33.968 51.6554 34.1168 51.6967 34.2617 51.7489C34.3923 51.7959 34.5197 51.8518 34.762 51.958C35.3342 52.4087 35.559 52.8812 35.7932 53.5648L35.9135 53.9353C36.0467 54.3293 36.1794 54.7234 36.3096 55.1185C36.3999 55.3929 36.4909 55.667 36.5827 55.9409C36.8536 56.7462 37.1222 57.5523 37.3881 58.3593C36.9626 58.344 36.5869 58.3551 36.1695 58.4443L35.7506 58.5651L35.2722 58.7017L34.762 58.8517C34.2183 59.0097 33.675 59.1687 33.1322 59.3297L32.5667 59.498C32.2351 59.5962 31.9031 59.6934 31.571 59.7907C30.2132 60.1884 28.8534 60.5866 27.5188 61.0534C26.1453 61.5378 24.8262 61.8649 23.3734 62.0091L22.9416 62.0504C22.645 62.0788 22.3484 62.1068 22.0517 62.1344C20.8428 62.2338 19.8308 62.3444 18.8677 63.1692C18.7678 63.3148 18.7014 63.4114 18.6595 63.5177C18.5767 63.7275 18.5891 63.9749 18.626 64.7106C18.759 65.7041 19.2005 66.8807 19.959 67.5611C20.3401 67.796 20.5993 67.9557 20.8809 68.0434C21.4799 68.2297 22.1803 68.0901 24.3701 67.6535C25.1178 67.4871 25.8601 67.3322 26.6167 67.2124C26.9251 67.1646 27.2328 67.1129 27.54 67.0585C28.8023 66.7149 30.0146 66.6796 31.3162 66.6867L31.6947 66.6892C33.6771 66.6937 35.6505 66.7515 37.6293 66.8713L38.0732 66.8988H38.0732C39.5648 66.9911 41.0555 67.0833 42.5503 67.1056L43.0508 67.1098C44.9721 67.1467 46.5443 66.7429 48.2211 65.7964C50.6634 64.3733 52.6956 63.6928 55.501 63.4797C55.7864 63.4585 56.0718 63.4369 56.3572 63.4146C57.1942 63.3493 58.0315 63.2886 58.869 63.2304C59.4296 63.1916 59.9901 63.1528 60.5506 63.1133L60.9718 63.0833C61.6759 63.0339 62.3794 62.984 63.0817 62.9129C65.1256 62.6924 67.1392 62.5805 69.1959 62.5819C69.7277 62.584 70.2594 62.5858 70.7913 62.584C75.1958 62.5668 78.6181 62.9328 82.1299 65.7826C82.3163 65.9346 82.5029 66.0863 82.6897 66.2378C87.8403 70.2888 92.6555 71.144 99.1033 70.4233C99.3524 70.3949 99.6095 70.3643 99.8728 70.3329C102.374 70.0351 105.443 69.6697 107.724 70.4899L108.131 70.6695C110.387 71.6141 111.693 73.1202 113.055 75.1011C113.158 75.2519 113.262 75.4053 113.366 75.5602L113.367 75.5617L113.367 75.5618C114.457 77.1749 115.659 78.9522 117.486 79.6969C118.099 79.7953 118.615 79.7919 119.179 79.502C119.857 78.7737 120.006 78.2159 120 77.2432L119.99 76.8246C119.987 76.4192 119.982 76.0147 119.969 75.6095C119.88 74.0797 119.014 73.1283 117.907 72.1364C116.331 70.7442 114.885 69.2004 113.568 67.5611C112.053 65.6751 110.533 64.5228 108.268 63.6563C106.809 63.1068 105.392 62.5511 104.05 61.7516C102.07 60.2065 101.336 57.406 100.796 55.0766C100.773 54.9724 100.75 54.8684 100.727 54.7646C100.595 54.1551 100.464 53.5534 100.23 52.9704L100.23 52.9703C100.151 52.7953 100.111 52.707 100.088 52.6144C100.065 52.5203 100.06 52.4217 100.05 52.2229V52.2228L100.057 51.8451L100.061 51.4636C100.448 50.6713 100.648 50.2639 100.919 49.9117C101.206 49.5391 101.573 49.2283 102.328 48.5885L102.653 48.2854C103.379 47.6046 104.11 46.9498 104.906 46.3516C105.756 45.7223 106.497 45.0998 107.175 44.2865L107.474 43.9153C110.291 40.5956 111.996 36.6658 113.676 32.6874C114.162 31.5362 114.654 30.3879 115.154 29.2427L115.476 28.5071C116.28 26.6425 117.177 24.9014 118.221 23.1581L118.43 22.8097L118.8 22.1878C118.991 21.8804 119.171 21.5735 119.338 21.2524C119.583 20.5973 119.577 19.8956 119.292 19.2539Z" fill="#CD2D2D"/>
<path d="M29.5096 41.6178C30.6977 41.6744 31.4654 41.9628 32.464 42.6026V43.095C32.017 43.3158 31.569 43.5343 31.1202 43.7516L30.7377 43.9413C30.0048 44.2936 29.7336 44.424 29.453 44.4491C29.2881 44.4639 29.12 44.4423 28.8531 44.4081V44.0798L29.1788 43.8766C29.5605 43.607 29.5605 43.607 29.5737 43.1085L29.5506 42.5718L29.5327 42.0313L29.5096 41.6178Z" fill="white"/>
</svg>
