<svg width="128" height="128" viewBox="0 0 128 128" fill="none" xmlns="http://www.w3.org/2000/svg">
<path d="M77.6748 1.76835C78.1592 2.00298 78.2379 2.30616 78.445 2.79636C78.5229 2.97731 78.6008 3.15826 78.6811 3.34469C78.7603 3.53565 78.8395 3.72662 78.9211 3.92338C79.0389 4.19904 79.0389 4.19904 79.1591 4.48028C79.396 5.03645 79.6287 5.59429 79.8612 6.15231C79.9427 6.34369 80.0243 6.53507 80.1082 6.73224C80.1856 6.91452 80.2629 7.0968 80.3425 7.28461C80.4475 7.53092 80.4475 7.53092 80.5545 7.78222C80.7063 8.18054 80.7063 8.18054 80.7063 8.51858C80.8195 8.46103 80.9328 8.40348 81.0494 8.34419C82.1155 7.80271 83.1823 7.26285 84.2501 6.7248C84.7991 6.44811 85.3477 6.1708 85.8956 5.89206C86.4242 5.62318 86.9536 5.35596 87.4836 5.08987C87.7844 4.93829 88.0844 4.785 88.3843 4.6317C88.567 4.54032 88.7497 4.44894 88.938 4.3548C89.099 4.27335 89.26 4.19191 89.4259 4.10799C89.8333 3.95507 89.8334 3.95507 90.3404 4.12409C90.4878 4.48977 90.4878 4.48977 90.6071 4.97843C90.6528 5.16026 90.6984 5.34209 90.7455 5.52943C90.7931 5.72801 90.8407 5.92659 90.8897 6.13119C90.9944 6.55133 91.0992 6.97145 91.204 7.39157C91.257 7.6074 91.3101 7.82323 91.3648 8.04561C91.6072 9.02572 91.8609 10.0028 92.1151 10.9799C92.1879 11.2613 92.1879 11.2613 92.2621 11.5484C92.6051 12.8721 92.9605 14.1922 93.3194 15.5117C93.722 16.9936 94.0969 18.4791 94.4464 19.9744C94.8473 21.687 95.2724 23.3936 95.8474 25.0573C95.9398 25.5325 95.9023 25.8037 95.749 26.2656C95.4954 26.6335 95.2411 26.9691 94.9567 27.3114C94.7863 27.5223 94.6159 27.7334 94.4457 27.9445C94.3551 28.0561 94.2646 28.1676 94.1712 28.2825C93.6854 28.8855 93.2125 29.4985 92.7384 30.1107C92.5377 30.3691 92.337 30.6275 92.1362 30.8859C92.0356 31.0154 91.9349 31.145 91.8312 31.2785C91.5213 31.677 91.2109 32.0751 90.9003 32.473C90.696 32.7349 90.4918 32.9968 90.2876 33.2587C90.1893 33.3846 90.091 33.5104 89.9898 33.6401C89.5474 34.2081 89.1089 34.778 88.6826 35.3583C88.6119 35.4543 88.5413 35.5503 88.4685 35.6492C88.2842 35.9013 88.1013 36.1546 87.9187 36.408C87.8254 36.5191 87.7322 36.6303 87.6361 36.7447C87.5246 36.7447 87.413 36.7447 87.2981 36.7447C87.2769 36.648 87.2557 36.5513 87.2339 36.4517C86.8373 34.6499 86.423 32.86 85.915 31.0861C85.541 29.7717 85.2337 28.4431 84.9318 27.1107C83.5949 27.2178 82.3067 27.5022 81.0005 27.7929C80.304 27.9478 79.6069 28.1 78.9098 28.2522C78.693 28.2996 78.693 28.2996 78.4717 28.348C76.9343 28.6826 75.3926 28.9955 73.8505 29.3079C71.592 29.7662 69.3406 30.2497 67.0923 30.7556C65.1145 31.2003 63.1327 31.6192 61.1462 32.0232C59.6307 32.3317 58.1189 32.6522 56.6106 32.9946C54.0143 33.5831 51.4038 34.1031 48.7944 34.6296C48.4477 34.6997 48.1009 34.7698 47.7542 34.84C47.5054 34.8902 47.5054 34.8902 47.2515 34.9414C46.2048 35.1543 45.1658 35.3849 44.1305 35.6483C43.6381 35.7406 43.1769 35.7447 42.6771 35.7306C42.1879 33.5555 41.843 31.3669 41.5362 29.16C41.5172 29.0248 41.4982 28.8896 41.4786 28.7503C41.4238 28.3592 41.3702 27.968 41.317 27.5768C41.3007 27.4596 41.2843 27.3425 41.2675 27.2218C41.1794 26.5602 41.1401 25.9187 41.1559 25.2515C39.4246 26.11 37.8507 26.9678 36.4234 28.2938C36.2817 28.4239 36.1401 28.5539 35.9942 28.6879C34.8024 29.83 33.672 31.139 32.8159 32.5576C32.4042 32.9984 31.905 33.1161 31.3422 33.2798C31.1124 33.3517 30.8826 33.4239 30.653 33.4964C30.5411 33.5313 30.4292 33.5661 30.3139 33.602C29.6294 33.8213 28.969 34.0917 28.3105 34.3785C28.0971 34.4687 28.0971 34.4687 27.8793 34.5607C26.1745 35.3368 25.2368 36.3688 24.5749 38.1213C24.3972 38.686 24.2942 39.1976 24.254 39.7871C23.0386 40.157 21.8139 40.495 20.5356 40.4632C20.5135 40.3689 20.4915 40.2747 20.4687 40.1776C19.9241 37.8562 19.3577 35.5474 18.6869 33.2587C18.3475 32.0846 18.0654 30.899 17.7891 29.7086C17.7555 29.5644 17.7219 29.4202 17.6874 29.2716C17.6553 29.1331 17.6232 28.9945 17.5901 28.8518C17.5028 28.5011 17.3994 28.1615 17.2886 27.8178C17.1501 27.2592 17.1935 26.982 17.3242 26.4346C22.2224 25.4442 27.1203 24.4587 32.0389 23.5744C32.6172 23.4703 33.195 23.3641 33.7723 23.2546C33.8927 23.2318 34.0131 23.209 34.1372 23.1855C34.4683 23.1225 34.7993 23.0592 35.1303 22.9958C35.9373 22.8511 36.7457 22.7399 37.559 22.6363C38.13 22.5533 38.13 22.5533 38.7438 22.3844C39.4095 22.2156 40.0727 22.111 40.7538 22.0196C43.3949 21.6415 45.5739 21.3102 47.7089 19.6174C48.4885 19.0347 49.3347 18.5504 50.1667 18.047C50.5466 17.8143 50.9265 17.5815 51.3063 17.3485C51.6975 17.1093 52.0888 16.8704 52.4802 16.6315C52.6757 16.512 52.8711 16.3926 53.0666 16.2731C55.3989 14.8487 57.7399 13.4403 60.0927 12.0501C61.8937 10.9859 63.6874 9.90987 65.4802 8.83206C65.6523 8.72861 65.8244 8.62516 66.0017 8.51858C66.0975 8.46097 66.1933 8.40336 66.292 8.344C67.4759 7.63228 68.6609 6.92255 69.8488 6.21768C69.9579 6.15299 70.0669 6.08831 70.1792 6.02166C70.7521 5.68185 71.3253 5.34244 71.8987 5.00335C72.9454 4.38378 73.99 3.76223 75.0237 3.1212C75.1797 3.02507 75.3356 2.92895 75.4963 2.82991C75.7784 2.65538 76.0595 2.47917 76.3394 2.30099C76.5231 2.18768 76.5231 2.18768 76.7106 2.07209C76.8143 2.00667 76.9179 1.94126 77.0247 1.87386C77.326 1.75782 77.326 1.75782 77.6748 1.76835Z" fill="black"/>
<path d="M77.9552 64.9586C78.299 65.1858 78.6253 65.4287 78.9528 65.6788C79.2095 65.8666 79.4665 66.0539 79.7239 66.2407C79.8575 66.3382 79.9911 66.4356 80.1287 66.5361C83.5773 69.0188 87.2401 71.1058 91.3546 72.2389C91.5244 72.2902 91.5244 72.2902 91.6976 72.3426C92.8628 72.6561 94.0487 72.6222 95.2456 72.6117C95.6127 72.6086 95.9798 72.6082 96.3469 72.6083C97.3487 72.6047 98.3101 72.5899 99.2985 72.4079C99.7511 72.389 100.197 72.4001 100.651 72.4079C100.265 72.7934 100.064 72.8422 99.5441 72.9783C99.2978 73.0437 99.2978 73.0437 99.0465 73.1105C98.8647 73.1575 98.6829 73.2045 98.4956 73.253C98.3052 73.3033 98.1148 73.3536 97.9186 73.4054C97.3742 73.549 96.8295 73.6915 96.2847 73.8335C95.1994 74.1165 94.1145 74.4012 93.0296 74.6858C92.6229 74.7923 92.2161 74.8982 91.8093 75.0039C90.4083 75.3695 89.0162 75.7554 87.6288 76.1694C86.6275 76.4667 85.6197 76.7265 84.6044 76.9714C82.9008 77.3904 81.2106 77.8441 79.5232 78.3236C77.394 78.9278 75.266 79.5253 73.1162 80.0528C72.1026 80.3024 71.0968 80.5738 70.0921 80.8566C68.9703 81.172 67.8455 81.4759 66.7201 81.7779C65.3671 82.1411 64.0147 82.5064 62.6636 82.8765C60.9834 83.3362 59.3003 83.7853 57.6169 84.2331C56.2173 84.6056 54.8186 84.9812 53.4204 85.359C52.0523 85.7284 50.6828 86.0913 49.3111 86.447C47.7564 86.8504 46.2062 87.2689 44.6571 87.6935C43.6177 87.9783 42.577 88.2587 41.5362 88.5386C41.3539 88.5877 41.1715 88.6368 40.9836 88.6874C40.0306 88.9437 39.0774 89.1996 38.1242 89.455C37.7403 89.558 37.3565 89.661 36.9727 89.764C36.789 89.8133 36.6052 89.8625 36.4159 89.9132C35.2605 90.2239 34.1104 90.5472 32.9651 90.8937C32.536 91 32.536 91 31.8599 91C31.2421 88.8394 30.6268 86.6782 30.0131 84.5164C29.8469 83.9306 29.6804 83.3448 29.5137 82.7591C29.3505 82.1855 29.1875 81.6118 29.0248 81.038C28.9336 80.7166 28.842 80.3952 28.7504 80.0738C28.6951 79.8785 28.6397 79.6831 28.5827 79.4819C28.5098 79.2252 28.5098 79.2252 28.4354 78.9633C28.3195 78.5266 28.2245 78.0914 28.1415 77.6475C28.3925 77.5638 28.3925 77.5638 28.6485 77.4785C28.7601 77.3111 28.8716 77.1438 28.9866 76.9714C29.318 76.8497 29.318 76.8497 29.726 76.7667C29.9525 76.7185 29.9525 76.7185 30.1836 76.6693C30.3464 76.6366 30.5091 76.6038 30.6768 76.57C31.0182 76.4971 31.3596 76.4236 31.7008 76.3495C31.8711 76.3125 32.0415 76.2755 32.217 76.2374C32.8973 76.0825 33.5666 75.8973 34.2367 75.7038C35.4872 75.345 36.7458 75.0371 38.0124 74.7408C39.059 74.4951 40.0974 74.227 41.1348 73.9449C42.0294 73.7045 42.9294 73.4859 43.8285 73.2635C45.0241 72.9675 46.2147 72.6613 47.3991 72.3234C48.7895 71.927 50.1925 71.5905 51.6007 71.2637C52.5142 71.0496 53.4173 70.8158 54.3183 70.554C55.5142 70.2071 56.7191 69.9144 57.9311 69.6296C59.2506 69.3155 60.5678 69.0017 61.8713 68.6261C63.4068 68.1839 64.9581 67.8061 66.5088 67.4218C68.8611 66.8417 68.8611 66.8417 71.1991 66.207C72.3776 65.8717 73.5612 65.5591 74.7485 65.2563C75.0085 65.1886 75.0085 65.1886 75.2738 65.1195C77.3024 64.6076 77.3024 64.6076 77.9552 64.9586Z" fill="black"/>
<path d="M12.4227 37.7589C12.9089 39.0172 13.2851 40.2709 13.5953 41.5829C13.8864 42.7819 14.187 43.9729 14.546 45.1534C14.8992 46.3161 15.1975 47.4877 15.4855 48.668C15.7449 49.7212 16.0415 50.7591 16.3551 51.7973C16.615 52.6662 16.8225 53.5398 17.0173 54.4257C17.1838 55.1175 17.3839 55.7963 17.5884 56.4777C18.5081 59.5608 18.5081 59.5608 18.1694 60.2384C17.8466 60.4688 17.5121 60.6637 17.1678 60.8603C16.5757 61.2372 16.0873 61.7373 15.8691 62.4198C15.5694 64.026 15.9154 65.6505 16.7083 67.0717C17.4555 68.1334 18.4123 68.9014 19.6905 69.1964C20.3093 69.2701 20.928 69.3233 21.5497 69.3654C22.0177 70.6992 22.378 72.0543 22.7329 73.4218C22.829 73.7909 22.9252 74.16 23.0214 74.529C23.4965 76.3553 23.9677 78.1823 24.4231 80.0136C25.2039 79.9578 25.9848 79.902 26.7893 79.8446C27.1798 81.3505 27.5702 82.8565 27.9725 84.4081C27.3339 84.6635 26.7659 84.8513 26.1047 85.0142C25.9074 85.0631 25.7102 85.112 25.507 85.1623C25.1953 85.2387 25.1953 85.2387 24.8773 85.3165C24.6658 85.3688 24.4543 85.4212 24.2364 85.475C23.8156 85.5791 23.3947 85.6829 22.9738 85.7865C22.231 85.9696 21.4889 86.1551 20.7469 86.3412C20.3948 86.4293 20.0427 86.5173 19.6905 86.6053C18.994 84.3535 18.3219 82.0959 17.6801 79.8279C17.285 78.4328 16.8805 77.0407 16.4739 75.649C16.0394 74.1612 15.6076 72.6725 15.1765 71.1837C15.1058 70.9394 15.0351 70.6951 14.9643 70.4508C14.6756 69.4539 14.387 68.457 14.0985 67.46C13.1078 64.0361 12.1087 60.6148 11.1008 57.196C10.8833 56.4582 10.6661 55.7203 10.4491 54.9824C10.4144 54.8646 10.3798 54.7469 10.3441 54.6255C10.0494 53.6236 9.7568 52.6211 9.46489 51.6184C9.12824 50.463 8.79095 49.3079 8.45077 48.1535C8.0593 46.8251 7.67119 45.4958 7.28477 44.1659C7.05375 43.3716 6.82125 42.578 6.58166 41.7863C6.54201 41.6544 6.50236 41.5226 6.4615 41.3868C6.38855 41.1449 6.31488 40.9033 6.24032 40.6619C6.07453 40.1104 6 39.6951 6 39.111C6.16384 39.07 6.32769 39.0291 6.49649 38.9869C6.6047 38.9598 6.7129 38.9327 6.82438 38.9048C7.06593 38.8445 7.30752 38.7843 7.54915 38.7243C8.18389 38.5663 8.81778 38.4059 9.45036 38.2395C9.56976 38.2085 9.68916 38.1775 9.81217 38.1456C10.146 38.0588 10.4796 37.9709 10.8131 37.883C11.3705 37.7668 11.8557 37.7344 12.4227 37.7589Z" fill="black"/>
<path d="M16.3102 31.5053C16.9469 33.3834 17.4823 35.2826 17.9255 37.2148C18.2756 38.7395 18.6867 40.2465 19.1155 41.7507C19.682 43.7425 20.2103 45.7362 20.6832 47.7523C20.9181 48.7493 21.1705 49.7367 21.4547 50.7206C21.8505 52.1009 22.1833 53.4956 22.511 54.8933C22.5614 55.1063 22.6117 55.3193 22.6635 55.5388C22.9603 56.8176 23.2115 58.0954 23.409 59.3934C22.7729 59.6054 22.1798 59.5805 21.5181 59.573C21.3914 59.5722 21.2647 59.5715 21.1341 59.5707C20.8219 59.5687 20.5098 59.5657 20.1976 59.5624C20.1523 59.367 20.107 59.1716 20.0603 58.9702C19.6215 57.0948 19.1571 55.2266 18.6764 53.3615C18.6224 53.1513 18.5684 52.941 18.5127 52.7244C18.1813 51.4445 17.8351 50.1696 17.4793 48.8963C17.2295 48.0017 16.9851 47.1058 16.7446 46.2086C16.7109 46.0832 16.6773 45.9578 16.6426 45.8286C16.574 45.5727 16.5054 45.3169 16.4368 45.061C15.9248 43.1526 15.407 41.2476 14.8418 39.3541C14.2288 37.2981 13.7156 35.2193 13.2078 33.1352C13.1164 32.7606 13.0238 32.3863 12.9298 32.0123C13.3345 31.9268 13.7395 31.8425 14.1446 31.7588C14.2584 31.7346 14.3723 31.7104 14.4896 31.6855C15.1059 31.5592 15.6808 31.476 16.3102 31.5053Z" fill="black"/>
<path d="M96.9322 28.8008C97.0437 28.8008 97.1553 28.8008 97.2702 28.8008C97.2965 28.9044 97.3228 29.008 97.3499 29.1147C97.8372 31.0273 98.3346 32.929 98.9472 34.8056C99.11 35.33 99.2486 35.8556 99.3784 36.389C99.5711 37.1585 99.7955 37.9199 100.014 38.6824C100.212 39.3861 100.378 40.0757 100.482 40.8011C100.183 41.0238 99.8834 41.2454 99.5837 41.4666C99.417 41.5902 99.2503 41.7137 99.0786 41.841C98.2777 42.3892 97.5515 42.347 96.6153 42.3447C96.4666 42.3449 96.3179 42.3451 96.1647 42.3452C95.8493 42.3453 95.5339 42.345 95.2185 42.3443C94.7415 42.3434 94.2645 42.3443 93.7875 42.3454C89.6722 42.3473 89.6722 42.3473 88.8932 41.9103C88.511 41.2289 88.3139 40.5725 88.3122 39.787C88.5684 39.1961 88.9541 38.7555 89.3792 38.2764C89.4896 38.1437 89.6001 38.011 89.7139 37.8743C90.0314 37.4941 90.3544 37.1193 90.6785 36.7447C90.9331 36.4357 91.1868 36.126 91.4391 35.8151C91.5567 35.6728 91.6744 35.5305 91.7956 35.3839C92.4244 34.6082 93.032 33.8162 93.6427 33.0263C94.4415 31.996 95.2584 30.9817 96.0873 29.9755C96.5553 29.419 96.5553 29.419 96.9322 28.8008Z" fill="black"/>
<path d="M52.1422 2.26489C52.4543 2.84117 52.7633 3.41908 53.0718 3.99734C53.1605 4.16096 53.2491 4.32459 53.3405 4.49317C53.4663 4.73011 53.4663 4.73011 53.5947 4.97184C53.6726 5.117 53.7505 5.26216 53.8307 5.41171C54.0014 5.81429 54.0014 5.81429 54.0014 6.49037C53.6576 6.79543 53.6576 6.79543 53.1695 7.109C52.9879 7.22762 52.8062 7.34624 52.6191 7.46845C52.4179 7.59667 52.2166 7.72487 52.0154 7.85308C51.8091 7.98706 51.6029 8.12133 51.3969 8.25586C51.0746 8.46635 50.7522 8.67668 50.4292 8.88618C49.2599 9.64498 48.1073 10.4276 46.9554 11.2123C46.7538 11.3494 46.5522 11.4864 46.3505 11.6234C45.1105 12.4664 43.873 13.3128 42.6388 14.1642C42.1688 14.4883 41.6977 14.8106 41.2259 15.1321C38.7447 16.8236 36.276 18.528 33.8881 20.3499C33.7766 20.2941 33.665 20.2384 33.5501 20.1809C33.9437 19.7823 34.3384 19.3847 34.7332 18.9872C34.8428 18.8762 34.9524 18.7652 35.0653 18.6508C35.5977 18.1158 36.1338 17.5968 36.7087 17.1075C37.7394 16.2188 38.6788 15.2326 39.6348 14.2652C40.0181 13.8774 40.402 13.4901 40.7862 13.1032C40.8711 13.0169 40.956 12.9306 41.0435 12.8417C41.4963 12.3859 41.9596 11.9542 42.4481 11.5368C43.312 10.7884 44.11 9.97536 44.9132 9.16338C45.1955 8.87811 45.4784 8.59347 45.7615 8.30899C46.5653 7.50113 47.368 6.69229 48.1701 5.88275C48.663 5.38533 49.1567 4.88873 49.6509 4.39262C49.8387 4.20377 50.0262 4.0146 50.2134 3.82511C50.4735 3.56178 50.7346 3.29948 50.996 3.0374C51.1443 2.88784 51.2926 2.73827 51.4454 2.58418C51.8042 2.26489 51.8042 2.26489 52.1422 2.26489Z" fill="#CD2D2D"/>
<path d="M105.806 71.6997C106.033 71.6966 106.033 71.6966 106.266 71.6935C107.73 71.6903 109.031 71.9534 110.285 72.7455C110.602 73.0848 110.783 73.405 111.003 73.8125C111.273 74.2265 111.523 74.492 111.88 74.8266C112.838 75.7547 113.274 76.8152 113.38 78.133C113.366 78.8735 113.155 79.2881 112.651 79.8443C111.89 80.307 111.242 80.4596 110.373 80.3217C108.338 79.6569 107.022 77.9805 105.861 76.2882C105.777 76.165 105.692 76.0417 105.605 75.9146C105.521 75.7913 105.436 75.6681 105.349 75.541C104.48 74.2996 103.449 73.2661 102.341 72.2385C103.111 71.4684 104.769 71.7005 105.806 71.6997Z" fill="#CD2D2D"/>
<path d="M26.7893 68.5201C26.9209 68.8147 26.9209 68.8147 27.0176 69.2031C27.0547 69.3482 27.0919 69.4933 27.1302 69.6427C27.1873 69.8798 27.1873 69.8798 27.2456 70.1218C27.2861 70.2838 27.3267 70.4458 27.3684 70.6128C27.454 70.9566 27.5384 71.3008 27.6219 71.6452C27.7494 72.17 27.8806 72.6938 28.0124 73.2176C28.0951 73.5518 28.1775 73.8861 28.2597 74.2205C28.3183 74.4545 28.3183 74.4545 28.3781 74.6933C28.5795 75.5323 28.692 76.2772 28.6485 77.14C28.3287 77.2543 28.0081 77.3666 27.6872 77.4781C27.5088 77.5408 27.3304 77.6036 27.1465 77.6682C26.6569 77.8058 26.2794 77.846 25.7752 77.8161C25.5031 76.8886 25.2658 75.9554 25.0358 75.0167C24.785 73.999 24.5214 72.9895 24.2224 71.9849C23.9197 70.9531 23.7261 69.9223 23.578 68.8581C24.6039 68.5307 25.7394 68.1701 26.7893 68.5201Z" fill="black"/>
<path d="M105.89 48.4069C106.932 51.3244 107.651 54.3347 108.343 57.3512C108.432 57.731 108.524 58.1098 108.617 58.4886C108.648 58.6187 108.68 58.7488 108.713 58.8828C108.773 59.131 108.834 59.3789 108.896 59.6267C109.043 60.2371 109.136 60.7931 109.102 61.4213C107.273 60.5591 106.454 59.5174 105.754 57.6387C105.429 56.6547 105.223 55.6552 105.024 54.6394C104.943 54.2375 104.862 53.8356 104.78 53.4339C104.721 53.1465 104.721 53.1465 104.662 52.8533C104.51 52.1668 104.317 51.4967 104.108 50.8254C104.023 50.3972 104.047 50.1647 104.2 49.759C104.5 49.3972 104.5 49.3972 104.865 49.0407C104.986 48.9213 105.106 48.8019 105.229 48.6789C105.552 48.4069 105.552 48.4069 105.89 48.4069Z" fill="black"/>
<path d="M103.862 17.4764C104.402 17.7365 104.913 18.0323 105.425 18.3427C105.576 18.4337 105.727 18.5248 105.882 18.6186C106.054 18.7226 106.054 18.7226 106.228 18.8286C105.961 19.4868 105.511 19.9242 105.011 20.4105C104.925 20.4964 104.838 20.5823 104.749 20.6707C104.471 20.9449 104.193 21.2178 103.915 21.4906C103.551 21.8483 103.187 22.2066 102.825 22.5655C102.737 22.6523 102.649 22.7392 102.559 22.8286C101.984 23.4016 101.441 23.9926 100.915 24.6104C100.461 25.1306 99.9696 25.6122 99.478 26.0964C99.3289 26.2445 99.3289 26.2445 99.1766 26.3955C98.9359 26.6342 98.6947 26.8724 98.4534 27.1105C98.3418 27.0547 98.2303 26.999 98.1153 26.9415C99.2535 24.9917 100.406 23.0542 101.619 21.1505C102.391 19.9397 103.131 18.7117 103.862 17.4764Z" fill="#CD2D2D"/>
<path d="M96.9322 28.8008C97.0437 28.8008 97.1553 28.8008 97.2702 28.8008C97.2029 29.2885 97.1367 29.4468 96.7526 29.7726C96.6445 29.8424 96.5365 29.9121 96.4251 29.9839C96.4251 29.3889 96.544 29.2337 96.9322 28.8008Z" fill="black"/>
<path d="M121.271 17.2651C120.751 16.8105 120.236 16.5139 119.581 16.2932C118.407 16.057 117.702 16.2669 116.863 17.1119L116.538 17.4763C113.798 20.5179 112.045 24.3136 110.38 28.0083C107.753 33.8389 105.22 39.3354 99.9455 43.2147L99.4675 43.5052L99.4674 43.5053C98.4339 43.9152 97.9117 44.1223 97.3698 44.2158C96.8164 44.3113 96.2425 44.2882 95.0824 44.2416L95.0823 44.2416C94.7821 44.2367 94.482 44.2332 94.1818 44.2312C92.5324 44.2237 90.8929 44.1806 89.2478 44.0579C88.8452 44.0272 88.4424 43.9987 88.0396 43.9723L87.5421 43.9412L87.5412 43.9412C85.801 43.8325 84.0607 43.7238 82.322 43.595C80.0406 43.4248 77.7587 43.2777 75.475 43.1441L74.9439 43.1131C72.2595 42.9553 69.5749 42.8014 66.89 42.652C64.9034 42.5414 62.917 42.4293 60.9307 42.3154C59.6521 42.242 58.3735 42.169 57.0947 42.0993C55.9407 42.0364 54.7867 41.9724 53.6328 41.9054L53.4468 41.8945L53.4451 41.8944C52.9032 41.8626 52.3612 41.8309 51.8191 41.8019C51.2507 41.7722 50.6824 41.7412 50.1142 41.7076L49.4862 41.6698C49.3879 41.6651 49.2901 41.6609 49.1929 41.6567L49.1923 41.6567C48.3215 41.6195 47.4953 41.5842 46.712 41.1426L46.2265 40.8009L45.8478 40.5493L45.5227 40.3137C45.136 40.0349 44.7517 39.7531 44.3683 39.4698L44.1901 39.338L44.1901 39.3379C43.7448 39.0081 43.3006 38.6791 42.8351 38.3776C42.3316 38.0616 41.8599 37.7357 41.3897 37.3704C41.0698 36.8502 40.9079 36.5869 40.8183 36.3009C40.7265 36.0078 40.7107 35.6909 40.6786 35.049V35.049C40.6635 34.7077 40.6561 34.5401 40.6381 34.3736C40.6207 34.2128 40.5935 34.0531 40.5399 33.7391C40.1754 31.9721 39.9181 30.1946 39.6733 28.4074L39.6348 28.1245C39.1181 28.2347 38.7429 28.3147 38.4016 28.4694C37.4969 28.8793 36.8299 29.8141 34.3952 33.2268L34.3952 33.2268C34.3381 33.3093 34.2842 33.3901 34.2317 33.4688C33.9121 33.948 33.6466 34.346 33.043 34.5472C32.8279 34.6052 32.6088 34.6626 32.3872 34.7206L32.3856 34.7211C30.6411 35.1781 28.7381 35.6767 27.3492 36.8079C26.3596 37.7996 26.0973 38.6111 26.0499 40.0087L26.0499 40.0087C26.0651 40.3222 26.0723 40.4718 26.0565 40.619C26.0421 40.7534 26.0085 40.8857 25.9443 41.1389L25.9442 41.139L25.5072 41.4004C24.9033 41.6575 24.5105 41.9578 24.0164 42.3786L23.7047 42.6496L23.3852 42.9186L23.0788 43.1824C22.6727 43.5318 22.4039 43.8383 22.2258 44.3503L22.2259 44.3504C22.3952 44.6829 22.464 44.8179 22.5427 44.9469C22.5965 45.035 22.6549 45.1203 22.7532 45.2639L22.7533 45.2641L23.0709 45.7025C23.2764 45.9909 23.4814 46.2849 23.6877 46.5807C24.5403 47.8036 25.416 49.0595 26.4513 50.097H26.9584L27.1274 48.9138C27.2957 48.998 27.3802 49.0403 27.4681 49.0737C27.5567 49.1074 27.6486 49.1321 27.8332 49.1817L28.2907 49.2915L28.8006 49.4154C30.1189 49.7353 31.4385 50.0556 32.7406 50.4372L33.0853 50.5406C33.4086 50.6305 33.5618 50.673 33.7111 50.7268C33.8455 50.7752 33.9767 50.8327 34.2262 50.9421C34.8154 51.4062 35.0469 51.8928 35.2881 52.5967L35.4119 52.9782C35.5491 53.384 35.6857 53.7898 35.8198 54.1966C35.9128 54.4791 36.0066 54.7614 36.1011 55.0435C36.38 55.8728 36.6566 56.7028 36.9305 57.5338C36.4923 57.5181 36.1054 57.5295 35.6756 57.6213L35.2442 57.7457L34.7515 57.8865L34.2262 58.0409C33.6663 58.2036 33.1068 58.3674 32.5479 58.5331L31.9655 58.7064C31.6243 58.8075 31.2826 58.9076 30.9407 59.0077L30.9403 59.0078C29.542 59.4173 28.1419 59.8274 26.7675 60.3081C25.3532 60.8069 23.9948 61.1437 22.4988 61.2923L22.0542 61.3348C21.7487 61.364 21.4433 61.3928 21.1378 61.4212C19.8929 61.5236 18.8508 61.6375 17.8591 62.4869C17.7561 62.6368 17.6878 62.7363 17.6446 62.8457C17.5594 63.0617 17.5722 63.3165 17.6102 64.0741C17.7471 65.0972 18.2018 66.3087 18.9828 67.0094C19.3752 67.2513 19.6422 67.4157 19.9322 67.506C20.549 67.6979 21.2702 67.5541 23.5252 67.1045C24.2951 66.9331 25.0594 66.7737 25.8386 66.6503C26.1561 66.6011 26.473 66.5479 26.7893 66.4918C28.0892 66.138 29.3376 66.1017 30.6779 66.109L31.0676 66.1115C33.109 66.1162 35.1411 66.1757 37.1788 66.2991L37.6359 66.3273L37.636 66.3273C39.1719 66.4224 40.7069 66.5174 42.2461 66.5403L42.7616 66.5446C44.74 66.5826 46.359 66.1668 48.0857 65.1921C50.6006 63.7268 52.6934 63.026 55.5822 62.8066C55.8761 62.7848 56.17 62.7625 56.4638 62.7396C57.3257 62.6723 58.1879 62.6097 59.0504 62.5498C59.6276 62.5099 60.2048 62.47 60.782 62.4292L61.2157 62.3984C61.9407 62.3475 62.6652 62.2961 63.3884 62.2229C65.4931 61.9959 67.5666 61.8806 69.6845 61.8821C70.2321 61.8842 70.7797 61.886 71.3273 61.8842C75.8629 61.8665 79.387 62.2434 83.0033 65.178C83.1952 65.3345 83.3873 65.4907 83.5797 65.6467C88.8835 69.8183 93.842 70.6988 100.482 69.9567C100.738 69.9275 101.003 69.896 101.274 69.8637C103.85 69.557 107.01 69.1808 109.358 70.0254L109.778 70.2102C112.101 71.1829 113.446 72.7338 114.848 74.7737C114.955 74.9295 115.062 75.088 115.17 75.248C116.293 76.9092 117.529 78.7394 119.412 79.5063C120.042 79.6076 120.574 79.604 121.155 79.3056C121.853 78.5555 122.006 77.9811 122 76.9796L121.989 76.5484C121.987 76.131 121.982 75.7145 121.968 75.2972C121.876 73.7219 120.984 72.7422 119.845 71.7208C118.221 70.2872 116.733 68.6974 115.376 67.0094C113.816 65.0673 112.252 63.8807 109.919 62.9884C108.416 62.4226 106.957 61.8503 105.575 61.0271C103.537 59.436 102.781 56.5522 102.225 54.1534C102.201 54.0462 102.177 53.9391 102.154 53.8322C102.017 53.2046 101.882 52.585 101.642 51.9846C101.56 51.8043 101.519 51.7134 101.496 51.6181C101.472 51.5211 101.467 51.4196 101.457 51.2149V51.2147L101.464 50.8259L101.467 50.433L101.467 50.433C101.867 49.6171 102.072 49.1976 102.351 48.835C102.646 48.4513 103.024 48.1311 103.802 47.4723L104.137 47.1603C104.884 46.4591 105.637 45.7849 106.457 45.1689C107.333 44.5209 108.095 43.8798 108.794 43.0424L109.102 42.6601C112.002 39.2417 113.758 35.195 115.488 31.0982C115.988 29.9128 116.495 28.7303 117.01 27.551L117.341 26.7935C118.169 24.8735 119.093 23.0806 120.168 21.2854L120.384 20.9267L120.764 20.2863C120.961 19.9697 121.147 19.6537 121.318 19.323C121.57 18.6484 121.565 17.9259 121.271 17.2651Z" fill="#CD2D2D"/>
<path d="M28.8176 40.2942C30.0409 40.3524 30.8316 40.6495 31.8599 41.3083V41.8154C31.3995 42.0428 30.9382 42.2677 30.4761 42.4914L30.0822 42.6869C29.3275 43.0496 29.0482 43.1839 28.7592 43.2098C28.5895 43.225 28.4163 43.2028 28.1415 43.1675V42.8295L28.4769 42.6202C28.87 42.3426 28.87 42.3426 28.8836 41.8292L28.8598 41.2766L28.8413 40.72L28.8176 40.2942Z" fill="white"/>
<path d="M25.5552 93.6183C29.5634 93.6183 33.5716 93.6183 37.7012 93.6183C37.7012 94.8641 37.7012 96.1099 37.7012 97.3934C35.1013 97.3934 32.5014 97.3934 29.8227 97.3934C29.8227 98.3142 29.8227 99.235 29.8227 100.184C32.1518 100.184 34.4809 100.184 36.8806 100.184C36.8806 101.375 36.8806 102.567 36.8806 103.795C34.5515 103.795 32.2224 103.795 29.8227 103.795C29.8227 104.878 29.8227 105.961 29.8227 107.077C32.4768 107.077 35.1309 107.077 37.8654 107.077C37.8654 108.215 37.8654 109.352 37.8654 110.524C33.803 110.524 29.7406 110.524 25.5552 110.524C25.5552 104.945 25.5552 99.3663 25.5552 93.6183Z" fill="#CD2D2D"/>
<path d="M81.5159 94.9664C82.5895 95.8994 83.6287 96.9629 83.9876 98.3786C83.9966 98.7067 83.9984 99.0353 83.9876 99.3634C83.5125 99.4739 83.0372 99.5831 82.5617 99.6917C82.4276 99.723 82.2936 99.7543 82.1555 99.7866C80.7344 100.109 80.7344 100.109 80.2125 100.02C79.9932 99.7673 79.9932 99.7673 79.8226 99.425C79.2634 98.433 78.5205 97.7385 77.4222 97.3938C75.7409 97.2319 74.5185 97.3373 73.1957 98.4196C71.9522 99.9394 71.8849 101.58 72.0057 103.467C72.1995 104.755 72.7567 105.796 73.7464 106.648C74.8243 107.329 76.2045 107.211 77.4222 107.078C78.5541 106.799 79.1128 106.272 79.7406 105.303C79.902 105.022 80.0608 104.738 80.2125 104.452C81.5774 104.547 82.841 104.901 84.1517 105.272C83.9599 106.776 83.1755 108.058 82.0705 109.083C79.8487 110.789 77.1755 111.088 74.4677 110.853C72.4047 110.564 70.5399 109.505 69.2154 107.898C67.4692 105.56 67.2493 102.654 67.6206 99.8293C68.0291 97.7549 69.3241 95.984 71.0209 94.7676C74.1673 92.9462 78.4919 92.7369 81.5159 94.9664Z" fill="black"/>
<path d="M104.669 93.6183C109.327 93.6183 113.985 93.6183 118.784 93.6183C118.784 94.8641 118.784 96.1099 118.784 97.3934C117.159 97.3934 115.535 97.3934 113.86 97.3934C113.86 101.727 113.86 106.06 113.86 110.524C112.398 110.524 110.935 110.524 109.429 110.524C109.429 106.245 109.429 101.966 109.429 97.5575C107.858 97.5575 106.287 97.5575 104.669 97.5575C104.669 96.2576 104.669 94.9576 104.669 93.6183Z" fill="black"/>
<path fill-rule="evenodd" clip-rule="evenodd" d="M54.9892 94.5803C53.3957 93.6183 51.2213 93.6183 42.9535 93.6183V110.524L47.2723 110.555C47.337 110.556 47.4017 110.556 47.4663 110.557C48.0373 110.563 48.6082 110.569 49.1792 110.571L49.7017 110.572C51.2198 110.593 52.5249 110.442 53.9526 109.909C55.7809 109.144 57.2408 108.045 58.0547 106.195L58.2182 105.764C58.5174 104.98 58.6818 104.222 58.7382 103.383C58.8554 100.609 58.6601 98.1913 56.7236 96.0213C56.0525 95.3894 55.5578 94.9236 54.9892 94.5803ZM51.8921 97.7194C51.148 97.3935 50.2612 97.3935 47.3852 97.3935V106.913C47.678 106.913 47.9684 106.918 48.2556 106.923C50.1027 106.955 51.8228 106.985 53.2633 105.672C54.0685 104.546 54.3419 103.32 54.3507 101.959C54.3273 100.48 54.0421 99.4546 52.9658 98.3783C52.5272 98.0747 52.2238 97.8646 51.8921 97.7194Z" fill="#CD2D2D"/>
<path fill-rule="evenodd" clip-rule="evenodd" d="M18.2156 94.4034C16.9171 93.6183 15.1439 93.6183 7.00778 93.6183V110.524H11.2753V104.78H12.9167C12.9167 104.873 12.9167 104.944 12.9277 105.012C12.9607 105.219 13.0932 105.41 13.6245 106.175C13.6438 106.202 13.6631 106.229 13.6823 106.256C14.0774 106.808 14.4627 107.346 14.731 107.975C15.0503 108.807 15.3676 109.606 15.9718 110.274C16.2558 110.455 16.4679 110.591 16.697 110.685C17.3727 110.96 18.197 110.872 21.4517 110.524C21.4517 110.412 21.4517 110.334 21.4362 110.26C21.4016 110.094 21.2894 109.944 20.9262 109.458C20.1622 108.449 19.423 107.424 18.6974 106.387L18.3845 105.939C18.0387 105.443 17.6932 104.947 17.3483 104.451L17.8408 104.123C18.404 103.815 18.9538 103.504 19.4821 103.138C20.5216 102.138 20.8116 100.747 20.8521 99.3518C20.8743 97.7014 20.4626 96.4584 19.318 95.2596C18.9024 94.9019 18.5774 94.6222 18.2156 94.4034ZM13.0193 97.3627L11.2754 97.3935V101.333L13.204 101.353L13.8091 101.362L14.2888 101.365C14.5473 101.368 14.6694 101.369 14.7912 101.364C14.9001 101.36 15.0088 101.35 15.2146 101.333C15.8474 101.08 16.1756 100.775 16.5277 100.184C16.6617 99.4455 16.6323 98.8915 16.261 98.2347C15.4044 97.4682 14.6798 97.3396 13.5634 97.3491L13.0193 97.3627Z" fill="#CD2D2D"/>
<path d="M99.0881 115.777C100.388 115.777 101.688 115.777 103.027 115.777C103.027 116.048 103.027 116.319 103.027 116.598C102.052 116.598 101.077 116.598 100.073 116.598C100.073 117.139 100.073 117.681 100.073 118.239C100.994 118.239 101.914 118.239 102.863 118.239C102.863 118.51 102.863 118.781 102.863 119.06C101.942 119.06 101.022 119.06 100.073 119.06C100.073 119.655 100.073 120.251 100.073 120.865C101.102 120.865 102.131 120.865 103.191 120.865C103.191 121.136 103.191 121.407 103.191 121.686C101.837 121.686 100.483 121.686 99.0881 121.686C99.0881 119.736 99.0881 117.786 99.0881 115.777Z" fill="black"/>
<path d="M71.0208 115.613C71.3458 115.613 71.6708 115.613 72.0056 115.613C72.0301 116.269 72.0479 116.926 72.0597 117.583C72.0646 117.806 72.0713 118.029 72.0799 118.252C72.1582 120.342 72.1582 120.342 71.5401 121.09C70.8151 121.793 69.9936 121.741 69.0332 121.732C68.4166 121.672 68.1336 121.504 67.7381 121.029C67.371 120.453 67.3716 119.978 67.3777 119.303C67.3788 119.098 67.3799 118.893 67.381 118.681C67.3837 118.467 67.3865 118.254 67.3893 118.034C67.3908 117.817 67.3923 117.601 67.3938 117.378C67.3976 116.844 67.403 116.311 67.4098 115.777C67.6806 115.777 67.9515 115.777 68.2305 115.777C68.2329 115.897 68.2353 116.017 68.2377 116.14C68.25 116.686 68.2658 117.232 68.2818 117.777C68.2855 117.966 68.2892 118.155 68.293 118.349C68.2988 118.532 68.3046 118.714 68.3106 118.902C68.3149 119.07 68.3192 119.238 68.3237 119.41C68.4059 119.955 68.5451 120.27 68.887 120.701C69.7531 120.812 69.7531 120.812 70.543 120.516C70.9895 120.078 70.9455 119.772 70.9567 119.155C70.962 118.949 70.9673 118.743 70.9727 118.531C70.9762 118.209 70.9762 118.209 70.9798 117.88C70.9844 117.661 70.9893 117.441 70.9945 117.222C71.0061 116.686 71.0148 116.149 71.0208 115.613Z" fill="black"/>
<path d="M116.979 115.613C117.416 115.789 117.738 115.998 118.128 116.269C117.994 116.587 117.994 116.587 117.8 116.926C117.637 116.98 117.475 117.034 117.307 117.09C117.25 117.009 117.192 116.927 117.133 116.844C116.652 116.471 116.255 116.544 115.666 116.597C115.29 116.899 115.29 116.899 115.317 117.357C115.324 117.485 115.331 117.614 115.338 117.746C116.052 118.059 116.765 118.344 117.505 118.593C117.856 118.757 118.053 118.918 118.292 119.224C118.361 119.934 118.371 120.356 118.087 121.009C117.659 121.528 117.315 121.665 116.647 121.747C114.979 121.78 114.979 121.78 114.383 121.275C114.265 121.14 114.147 121.004 114.024 120.865C114.106 120.621 114.106 120.621 114.189 120.373C114.496 120.229 114.496 120.229 114.845 120.208C114.916 120.288 114.987 120.368 115.061 120.451C115.439 120.792 115.677 120.756 116.179 120.742C116.325 120.739 116.471 120.737 116.621 120.734C116.975 120.74 116.975 120.74 117.143 120.537C117.15 120.263 117.15 119.99 117.143 119.716C116.981 119.648 116.818 119.581 116.651 119.511C114.493 118.577 114.493 118.577 114.189 117.911C114.107 117.36 114.067 116.963 114.362 116.474C115.131 115.527 115.811 115.479 116.979 115.613Z" fill="black"/>
<path d="M39.9171 115.796C40.232 115.995 40.5294 116.2 40.8198 116.433C40.7115 116.65 40.6031 116.867 40.4915 117.09C39.835 117.09 39.835 117.09 39.3426 116.762C38.7861 116.672 38.2577 116.671 37.7012 116.762C37.1944 117.131 37.1944 117.131 36.8805 117.582C36.8264 117.636 36.7722 117.691 36.7164 117.746C36.6212 118.718 36.632 119.548 37.2088 120.373C37.6978 120.771 38.2399 120.757 38.8579 120.746C39.3082 120.683 39.6172 120.446 39.9991 120.208C40.4608 120.26 40.4608 120.26 40.8198 120.373C40.7845 120.867 40.6461 121.039 40.2966 121.398C39.43 121.923 38.3377 121.832 37.373 121.686C36.5195 121.297 35.975 120.722 35.5675 119.88C35.4381 118.883 35.4137 117.919 35.8342 116.997C36.963 115.839 38.2821 115.065 39.9171 115.796Z" fill="black"/>
<path fill-rule="evenodd" clip-rule="evenodd" d="M97.6108 93.6183H93.1792L93.1587 93.6694C93.0052 94.0531 92.8517 94.4369 92.6978 94.8205C92.4653 95.3996 92.2324 95.9785 91.9996 96.5574C90.7258 99.7236 89.452 102.89 88.2416 106.081C88.0854 106.495 87.9287 106.909 87.7695 107.321C87.6708 107.576 87.5724 107.831 87.4744 108.087L87.3421 108.432C87.0606 109.162 86.909 109.738 86.7779 110.524H91.0454L91.7019 108.719L92.0302 107.242L98.2674 107.406L99.2522 110.524H103.848C103.806 110.397 103.763 110.27 103.721 110.143C103.283 108.825 102.843 107.502 102.317 106.216C101.939 105.337 101.599 104.459 101.304 103.549C101.057 102.785 100.788 102.04 100.473 101.302C100.275 100.842 100.086 100.385 99.9234 99.9118C99.5215 98.6572 99.0663 97.4259 98.5954 96.196C98.5122 95.9786 98.4291 95.7612 98.3462 95.5438C98.1016 94.9017 97.8563 94.26 97.6108 93.6183ZM96.0069 100.024C95.8051 99.4081 95.6589 98.9619 95.1488 98.5425C94.9978 98.9655 94.8476 99.3888 94.6981 99.8123L94.5128 100.338L94.3313 100.846L94.155 101.348C94.0634 101.606 94.002 101.78 93.9476 101.955C93.8367 102.313 93.7552 102.68 93.5074 103.795H97.1184C97.1184 103.721 97.1184 103.661 97.1147 103.602C97.0993 103.358 97.0206 103.117 96.6174 101.886L96.4106 101.261L96.2096 100.637L96.0124 100.041L96.0069 100.024Z" fill="black"/>
<path d="M51.8169 115.613C53.3335 115.613 54.8502 115.613 56.4127 115.613C56.4127 115.938 56.4127 116.263 56.4127 116.597C55.8169 116.597 55.2211 116.597 54.6072 116.597C54.6072 118.276 54.6072 119.956 54.6072 121.686C54.2822 121.686 53.9573 121.686 53.6224 121.686C53.6224 120.006 53.6224 118.327 53.6224 116.597C53.0266 116.597 52.4308 116.597 51.8169 116.597C51.8169 116.272 51.8169 115.947 51.8169 115.613Z" fill="black"/>
<path fill-rule="evenodd" clip-rule="evenodd" d="M10.5125 115.881C9.94807 115.613 9.25622 115.613 7.17194 115.613V121.686H8.15675V119.552L9.09028 119.572C9.79632 119.588 10.3135 119.548 10.9471 119.224C11.3392 118.789 11.5715 118.448 11.6613 117.863C11.6632 117.809 11.6656 117.757 11.6679 117.706C11.6877 117.262 11.7042 116.894 11.4145 116.512C11.0418 116.214 10.7929 116.014 10.5125 115.881ZM10.204 116.668C9.94801 116.54 9.62203 116.55 8.15676 116.598V118.731C8.77448 118.761 9.34938 118.786 9.96225 118.731C10.1979 118.589 10.3077 118.522 10.3916 118.432C10.4648 118.353 10.5185 118.256 10.6188 118.075C10.6918 117.564 10.728 117.25 10.4316 116.816C10.3448 116.753 10.2772 116.705 10.204 116.668Z" fill="black"/>
<path d="M23.0931 115.777C23.364 115.777 23.6348 115.777 23.9138 115.777C23.9138 117.673 23.9138 119.568 23.9138 121.522C23.643 121.522 23.3722 121.522 23.0931 121.522C23.0931 119.626 23.0931 117.73 23.0931 115.777Z" fill="black"/>
<path fill-rule="evenodd" clip-rule="evenodd" d="M85.1673 115.736L83.4951 115.777V121.686H84.48V119.388L85.4648 119.552C85.748 119.913 85.9694 120.235 86.1931 120.629C86.4209 121.037 86.6289 121.326 86.942 121.686C87.2773 121.722 87.4316 121.738 87.5856 121.735C87.717 121.733 87.8481 121.716 88.091 121.686C88.091 121.514 88.091 121.432 88.0611 121.363C88.0338 121.301 87.9819 121.249 87.8826 121.149C87.7423 121.017 87.6655 120.945 87.5981 120.865C87.5167 120.768 87.4489 120.66 87.2991 120.422L86.9933 119.932C86.8114 119.641 86.63 119.351 86.4496 119.06C86.8039 119.06 86.967 119.06 87.113 119.01C87.2376 118.967 87.3497 118.888 87.5575 118.742C87.7855 118.431 87.8728 118.313 87.9197 118.18C87.9488 118.097 87.9624 118.009 87.9845 117.867C87.9919 117.11 87.9724 116.668 87.453 116.087C86.8271 115.707 86.4083 115.709 85.6899 115.718L85.1673 115.736ZM86.5273 116.67C86.2718 116.54 85.9444 116.55 84.48 116.597V118.567L85.1878 118.577C85.4443 118.581 85.7009 118.578 85.9572 118.567C86.456 118.401 86.6337 118.322 86.942 117.911C87.0108 117.452 87.0221 117.206 86.7554 116.82C86.6684 116.757 86.6008 116.707 86.5273 116.67Z" fill="black"/>
</svg>
