<svg width="48" height="48" viewBox="0 0 48 48"  xmlns="http://www.w3.org/2000/svg">
<path d="M36.059 12.5984C37.978 16.7278 37.5426 21.5886 35.4178 25.539C33.6745 28.7801 31.0731 31.4607 28.9293 34.4278C27.9492 35.7863 26.9596 37.1987 26.2867 38.7456C26.0634 39.2602 25.8703 39.7874 25.6803 40.3163C25.4887 40.8435 25.3256 41.3818 25.1419 41.9123C24.9694 42.4094 24.7683 42.9952 24.1492 43H24.1381C23.4003 42.9984 23.2214 42.1608 23.0377 41.5956C22.588 40.2118 22.1178 38.8833 21.4243 37.5977C20.6168 36.103 19.6114 34.7208 18.5901 33.3686L36.059 12.5984ZM18.6709 17.1996L12.4024 24.6523C13.5488 27.0907 15.2857 29.1854 16.9482 31.2707C17.3398 31.7615 17.7288 32.2555 18.1151 32.7527L26.0064 23.3714L25.9605 23.3873C23.2039 24.3388 20.1164 22.9265 19.0065 20.2412C18.855 19.8766 18.744 19.4964 18.6756 19.1075C18.5759 18.4156 18.5537 17.9026 18.6693 17.2107L18.6709 17.1996ZM13.8369 9.98594L13.8322 9.99228C10.7494 13.8968 10.2206 19.3023 12.0636 23.8781L19.6399 14.8705L19.548 14.7914L13.8369 9.98594ZM28.3545 5.69036L22.2777 12.9151L22.3204 12.8993C24.8538 12.0269 27.7085 13.1368 29.0021 15.4738C29.2808 15.9789 29.5135 16.5552 29.599 17.1284C29.7067 17.8345 29.7336 18.3523 29.618 19.06L29.6133 19.0854L35.6869 11.8638C34.1 8.96869 31.4907 6.76924 28.3688 5.69511L28.3545 5.69036ZM20.1291 14.291L27.5644 5.45128L27.49 5.43228C26.3898 5.1429 25.2567 4.9976 24.1191 5.00003C22.2771 5.01738 20.4585 5.41538 18.7776 6.16904C17.0968 6.92269 15.5898 8.01574 14.3515 9.37953L14.3262 9.40803L20.1291 14.291Z" />
</svg>
