<svg width="48" height="48" viewBox="0 0 48 48" xmlns="http://www.w3.org/2000/svg">
<path fill-rule="evenodd" clip-rule="evenodd" d="M23.2234 7.54862C23.2257 7.75424 23.1874 7.9583 23.1108 8.14913C23.0342 8.33997 22.9208 8.51385 22.777 8.66085C22.6332 8.80784 22.4619 8.92507 22.2728 9.00584C22.0837 9.08662 21.8805 9.12935 21.6749 9.1316C19.9385 9.1496 18.3891 9.18875 17.0183 9.23885C16.6065 9.24897 16.2073 9.09637 15.9072 8.81414C15.6071 8.53192 15.4303 8.14279 15.4152 7.73112C15.4 7.31944 15.5478 6.91839 15.8263 6.61488C16.1049 6.31137 16.4918 6.12986 16.9032 6.1097C18.3015 6.05803 19.8782 6.01888 21.6412 6.0001C22.0563 5.99571 22.4562 6.15638 22.7529 6.44677C23.0496 6.73715 23.2189 7.13349 23.2234 7.54862ZM24.7821 7.54862C24.7844 7.343 24.8271 7.13984 24.9079 6.95073C24.9886 6.76163 25.1059 6.59028 25.2529 6.44649C25.3998 6.30269 25.5737 6.18926 25.7646 6.11266C25.9554 6.03607 26.1595 5.99782 26.3651 6.0001C28.1281 6.01888 29.704 6.05803 31.103 6.1097C31.3101 6.115 31.514 6.16133 31.7031 6.246C31.8921 6.33067 32.0624 6.452 32.2042 6.60297C32.346 6.75394 32.4565 6.93155 32.5292 7.1255C32.6018 7.31945 32.6353 7.52589 32.6276 7.73287C32.62 7.93985 32.5713 8.14326 32.4845 8.3313C32.3977 8.51934 32.2744 8.68829 32.1218 8.82836C31.9693 8.96843 31.7904 9.07684 31.5956 9.1473C31.4009 9.21776 31.1941 9.24888 30.9872 9.23885C29.6171 9.18875 28.067 9.1496 26.3314 9.1316C26.1257 9.12945 25.9225 9.08679 25.7333 9.00607C25.5441 8.92534 25.3727 8.80813 25.2288 8.66112C25.0849 8.51412 24.9714 8.3402 24.8947 8.14931C24.8181 7.95843 24.7798 7.75431 24.7821 7.54862ZM13.825 7.81245C13.8404 8.01757 13.8152 8.2237 13.7509 8.41908C13.6865 8.61446 13.5844 8.79525 13.4502 8.95112C13.3159 9.10699 13.1523 9.2349 12.9687 9.32752C12.785 9.42014 12.5849 9.47567 12.3798 9.49094L11.8036 9.53556C10.5674 9.63577 9.64286 10.5611 9.54187 11.7973C9.52674 11.9789 9.51212 12.1689 9.49803 12.3672C9.4671 12.7814 9.27288 13.1664 8.9581 13.4374C8.64332 13.7085 8.23377 13.8433 7.81955 13.8124C7.40532 13.7815 7.02035 13.5872 6.74933 13.2725C6.4783 12.9577 6.34342 12.5481 6.37436 12.1339L6.42133 11.5436C6.64524 8.77852 8.78483 6.63892 11.5492 6.41424C11.7402 6.39858 11.9393 6.38318 12.1465 6.36805C12.3516 6.35267 12.5576 6.37783 12.753 6.44209C12.9483 6.50636 13.129 6.60847 13.2849 6.7426C13.4408 6.87673 13.5687 7.04024 13.6614 7.22381C13.754 7.40737 13.8096 7.6074 13.825 7.81245ZM34.1876 7.81245C34.203 7.60739 34.2587 7.40739 34.3515 7.22386C34.4442 7.04033 34.5722 6.87687 34.7282 6.74281C34.8841 6.60876 35.0649 6.50673 35.2603 6.44256C35.4557 6.37839 35.6618 6.35334 35.8668 6.36883L36.4563 6.41424C39.2214 6.63892 41.3603 8.77852 41.5849 11.5436C41.6006 11.7315 41.616 11.9283 41.6311 12.1339C41.6465 12.339 41.6212 12.545 41.5569 12.7403C41.4926 12.9356 41.3904 13.1164 41.2563 13.2722C41.1221 13.428 40.9586 13.5559 40.775 13.6485C40.5914 13.7411 40.3914 13.7967 40.1863 13.812C39.9813 13.8273 39.7752 13.8021 39.5799 13.7378C39.3846 13.6735 39.2039 13.5713 39.0481 13.4372C38.8922 13.303 38.7644 13.1395 38.6717 12.9559C38.5791 12.7723 38.5236 12.5723 38.5082 12.3672L38.4636 11.7973C38.3634 10.5611 37.4381 9.63655 36.2027 9.53556L35.6328 9.49094C35.2188 9.45991 34.8341 9.26575 34.5632 8.95114C34.2923 8.63653 34.1575 8.22723 34.1883 7.81323M40.2682 15.3836C40.6831 15.3684 41.0871 15.5186 41.3913 15.8012C41.6955 16.0839 41.875 16.4757 41.8903 16.8907C41.9419 18.2905 41.9811 19.8695 41.9999 21.6349C42.0043 22.0502 41.8437 22.4502 41.5532 22.747C41.2627 23.0438 40.8662 23.213 40.451 23.2175C40.0357 23.2219 39.6357 23.0613 39.3389 22.7708C39.0421 22.4803 38.8728 22.0838 38.8684 21.6686C38.8528 20.1142 38.8171 18.56 38.7611 17.0065C38.7533 16.801 38.786 16.5959 38.8574 16.4031C38.9288 16.2102 39.0375 16.0333 39.1773 15.8824C39.3171 15.7316 39.4853 15.6097 39.6722 15.5239C39.8591 15.438 40.0611 15.3898 40.2666 15.3821M7.73813 15.3821C7.94366 15.3896 8.14568 15.4376 8.33265 15.5233C8.51963 15.609 8.6879 15.7306 8.82785 15.8813C8.9678 16.032 9.07668 16.2088 9.14829 16.4016C9.21989 16.5944 9.25281 16.7994 9.24516 17.005C9.19428 18.375 9.15592 19.9251 9.13713 21.6615C9.13266 22.0768 8.96342 22.4733 8.66663 22.7637C8.36984 23.0542 7.96981 23.2149 7.55455 23.2104C7.13928 23.206 6.7428 23.0367 6.45232 22.7399C6.16184 22.4431 6.00116 22.0431 6.00563 21.6278C6.02442 19.864 6.06434 18.2881 6.11523 16.8891C6.1228 16.6836 6.17079 16.4816 6.25645 16.2946C6.34211 16.1076 6.46377 15.9393 6.61448 15.7994C6.76519 15.6594 6.94199 15.5506 7.13479 15.4789C7.32759 15.4073 7.53261 15.3744 7.73813 15.3821ZM40.4498 24.7766C40.8649 24.7809 41.2613 24.9499 41.5519 25.2465C41.8424 25.543 42.0033 25.9428 41.9991 26.358C41.983 27.9398 41.9462 29.5213 41.8887 31.1022C41.8834 31.3093 41.8371 31.5132 41.7524 31.7022C41.6677 31.8912 41.5464 32.0616 41.3954 32.2034C41.2445 32.3452 41.0669 32.4556 40.8729 32.5283C40.679 32.601 40.4725 32.6345 40.2655 32.6268C40.0586 32.6192 39.8551 32.5705 39.6671 32.4837C39.4791 32.3968 39.3101 32.2736 39.17 32.121C39.03 31.9684 38.9216 31.7896 38.8511 31.5948C38.7806 31.4 38.7495 31.1932 38.7596 30.9863C38.8097 29.6147 38.8488 28.0639 38.8676 26.3251C38.8698 26.1195 38.9126 25.9163 38.9933 25.7272C39.0741 25.5381 39.1913 25.3668 39.3383 25.223C39.4853 25.0792 39.6592 24.9657 39.8501 24.8891C40.0409 24.8125 40.2442 24.7743 40.4498 24.7766ZM40.1867 34.175C40.6007 34.206 40.9854 34.4002 41.2563 34.7148C41.5272 35.0294 41.662 35.4387 41.6311 35.8527L41.5849 36.4492C41.3603 39.2144 39.2207 41.3532 36.4563 41.5778C36.2679 41.5935 36.0714 41.6089 35.8668 41.624C35.6617 41.6394 35.4556 41.6142 35.2602 41.5499C35.0649 41.4857 34.8841 41.3835 34.7282 41.2493C34.5723 41.1152 34.4443 40.9516 34.3516 40.768C34.2589 40.5844 34.2033 40.3843 34.188 40.1792C34.1726 39.9741 34.1978 39.768 34.2621 39.5726C34.3263 39.3773 34.4285 39.1965 34.5626 39.0406C34.6968 38.8847 34.8604 38.7567 35.044 38.664C35.2276 38.5714 35.4276 38.5157 35.6328 38.5004C35.8311 38.4863 36.0211 38.4717 36.2027 38.4565C37.4381 38.3563 38.3634 37.431 38.4636 36.1956C38.4793 36.0119 38.4942 35.8198 38.5082 35.6194C38.5236 35.4143 38.5792 35.2143 38.6719 35.0307C38.7645 34.8472 38.8925 34.6837 39.0483 34.5495C39.2042 34.4154 39.3849 34.3133 39.5803 34.249C39.7756 34.1848 39.9817 34.1596 40.1867 34.175ZM32.6179 40.2611C32.6331 40.676 32.4829 41.08 32.2003 41.3842C31.9177 41.6884 31.5258 41.8679 31.1109 41.8832C29.6093 41.938 27.9011 41.9802 25.9776 41.9967C25.5623 42.0003 25.1626 41.8388 24.8664 41.5478C24.5702 41.2567 24.4017 40.8599 24.3981 40.4446C24.3945 40.0294 24.5559 39.6297 24.847 39.3335C25.1381 39.0373 25.5349 38.8688 25.9502 38.8652C27.8447 38.8495 29.5232 38.808 30.9958 38.754C31.4107 38.7388 31.8147 38.889 32.1189 39.1716C32.4231 39.4542 32.6026 39.8461 32.6179 40.2611ZM33.7249 12.8236C32.459 12.6397 29.9201 12.4479 26.4144 13.0491C25.7724 13.1595 25.2957 13.5635 25.1046 14.0942C24.9121 14.6266 25.024 15.2412 25.4616 15.7304C25.7967 16.1047 26.2116 16.5533 26.7244 17.0872C25.3142 18.6305 23.9149 20.1837 22.5266 21.7468C22.0334 22.3019 21.8722 23.1294 22.2871 23.8144C22.5063 24.1761 22.8038 24.5989 23.167 24.9551C23.5076 25.2886 23.8763 25.5461 24.1942 25.7348C24.8557 26.1278 25.6347 25.9493 26.1553 25.489C27.2192 24.5472 29.3181 22.6785 30.9065 21.191C31.5062 21.7468 32.0049 22.1892 32.4144 22.5407C32.913 22.9689 33.5292 23.0668 34.056 22.8585C34.5806 22.6518 34.9689 22.1618 35.062 21.5175C35.5709 17.982 35.3157 15.4361 35.1004 14.1694C35.0452 13.8274 34.8818 13.5121 34.6342 13.2698C34.3867 13.0274 34.068 12.8708 33.7249 12.8229M10.5901 25.6409C11.7994 25.5842 13.0098 25.557 14.2203 25.5594C15.6921 25.5594 16.8946 25.5939 17.8513 25.6409C20.326 25.7614 22.2385 27.674 22.3591 30.1487C22.4158 31.3581 22.4429 32.5688 22.4405 33.7796C22.4405 35.2514 22.4061 36.4539 22.3599 37.4106C22.2385 39.8861 20.3268 41.7978 17.8505 41.9192C16.6413 41.9756 15.4309 42.0025 14.2203 41.9998C12.7485 41.9998 11.546 41.9654 10.5894 41.9192C8.11469 41.7978 6.20213 39.8861 6.08157 37.4098C6.02489 36.2006 5.99774 34.9902 6.00015 33.7796C6.00015 32.3078 6.03459 31.1053 6.08157 30.1487C6.20213 27.674 8.11548 25.7614 10.5901 25.6409Z"/>
</svg>
