<svg width="382" height="382" viewBox="0 0 382 382" fill="none" xmlns="http://www.w3.org/2000/svg">
<circle cx="191" cy="191" r="191" fill="#0B0B0B"/>
<path d="M191 11.6938V370.305L191 370.306C91.9717 370.306 11.6938 290.027 11.6938 191C11.6941 91.9718 91.9718 11.6941 191 11.6938H191Z" fill="#707070"/>
<path d="M192.444 10.9233C291.238 11.6991 371.085 92.0236 371.085 191C371.085 289.977 291.238 370.3 192.444 371.076C121.211 342.323 70.943 272.533 70.9429 191C70.9429 109.467 121.21 39.6763 192.444 10.9233Z" fill="white"/>
<circle cx="130.971" cy="192.559" r="45.2163" fill="#0B0B0B"/>
<path d="M191 0C296.486 0 382 85.5136 382 191C382 296.486 296.486 382 191 382V0Z" fill="#0B0B0B"/>
<path d="M264.326 180.776H264.086L261.254 186.392L253.238 200.984L245.222 186.392L242.39 180.776H242.15V209H238.214V175.496H243.59L253.19 193.544H253.43L263.078 175.496H268.262V209H264.326V180.776ZM298.143 193.832H281.199V209H277.167V175.496H281.199V190.28H298.143V175.496H302.175V209H298.143V193.832ZM311.105 175.496H324.881C327.665 175.496 329.841 176.28 331.409 177.848C333.009 179.416 333.809 181.512 333.809 184.136C333.809 185.384 333.633 186.44 333.281 187.304C332.929 188.168 332.481 188.888 331.937 189.464C331.393 190.008 330.801 190.424 330.161 190.712C329.521 190.968 328.929 191.144 328.385 191.24V191.528C328.993 191.56 329.665 191.72 330.401 192.008C331.169 192.296 331.889 192.76 332.561 193.4C333.233 194.008 333.793 194.808 334.241 195.8C334.721 196.76 334.961 197.928 334.961 199.304C334.961 200.68 334.737 201.96 334.289 203.144C333.873 204.328 333.281 205.352 332.513 206.216C331.745 207.08 330.833 207.768 329.777 208.28C328.721 208.76 327.569 209 326.321 209H311.105V175.496ZM315.137 205.448H325.073C326.801 205.448 328.161 205.016 329.153 204.152C330.145 203.256 330.641 201.96 330.641 200.264V198.632C330.641 196.936 330.145 195.656 329.153 194.792C328.161 193.896 326.801 193.448 325.073 193.448H315.137V205.448ZM315.137 189.992H324.401C326.001 189.992 327.249 189.592 328.145 188.792C329.041 187.992 329.489 186.84 329.489 185.336V183.704C329.489 182.2 329.041 181.048 328.145 180.248C327.249 179.448 326.001 179.048 324.401 179.048H315.137V189.992Z" fill="white"/>
</svg>
