<svg width="48" height="48" viewBox="0 0 48 48"  xmlns="http://www.w3.org/2000/svg">
<path d="M37.8996 14.6235L33.0643 8.37647L39.9996 7L41.3761 13.9176L37.8996 14.6235ZM32.7114 15.6294L27.8761 9.4L24.3996 10.0882L29.2525 16.3176L32.7114 15.6294ZM36.7525 26.0941C38.6937 26.0941 40.4937 26.6235 42.0466 27.5235V20.8H6.75253V38.4471C6.75253 39.3831 7.12438 40.2808 7.78627 40.9427C8.44817 41.6046 9.34589 41.9765 10.2819 41.9765H27.5937C26.6937 40.4235 26.1643 38.6235 26.1643 36.6824C26.1643 30.8412 30.9114 26.0941 36.7525 26.0941ZM10.5643 12.8588L8.83488 13.1941C7.92022 13.3816 7.11635 13.9221 6.59767 14.6985C6.079 15.4749 5.88735 16.4244 6.0643 17.3412L6.75253 20.8L15.3996 19.0882L10.5643 12.8588ZM24.0643 17.3588L19.229 11.0941L15.7525 11.8176L20.6055 18.0471L24.0643 17.3588ZM43.8114 34.7235L38.7114 34.2824L36.7525 29.6235L34.7584 34.2824L29.6937 34.7235L33.5408 38.0412L32.3408 43L36.7525 40.3706L41.0761 43L39.929 38.0412L43.8114 34.7235Z" />
</svg>
