<svg width="48" height="48" viewBox="0 0 48 48" xmlns="http://www.w3.org/2000/svg">
<path d="M42.0045 16.6988C42.001 16.5689 41.9835 16.4397 41.9522 16.3135C41.9396 16.2684 41.9144 16.2252 41.8982 16.1802C41.8604 16.0776 41.8262 15.9767 41.7722 15.8831C41.7433 15.8344 41.7037 15.7948 41.6695 15.748C41.6119 15.667 41.5561 15.5841 41.4858 15.5139C41.4444 15.4743 41.3904 15.4419 41.3454 15.404C41.2751 15.3464 41.2103 15.2834 41.1293 15.2348L41.104 15.2239L41.0896 15.2131L24.9198 6.22688C24.6527 6.07839 24.3522 6.00032 24.0466 6C23.741 5.99969 23.4403 6.07714 23.1729 6.22508L6.92744 15.2113C6.92264 15.2173 6.91603 15.2233 6.90763 15.2294L6.88962 15.2366C6.82659 15.2726 6.77977 15.3248 6.72034 15.368C6.65551 15.4166 6.58708 15.4599 6.52945 15.5157C6.47543 15.5715 6.43401 15.6363 6.38718 15.6994C6.34036 15.7624 6.28453 15.8182 6.24492 15.8867C6.19809 15.9641 6.17288 16.0523 6.13867 16.137C6.11345 16.1964 6.08104 16.2522 6.06483 16.3171C6.03407 16.4409 6.01657 16.5677 6.01261 16.6952C6.01081 16.7259 6 16.7529 6 16.7853V31.1957C6 31.8494 6.35477 32.4527 6.92744 32.7697L23.0955 41.7505L23.0973 41.7523L23.1009 41.7541L23.1369 41.7739C23.2144 41.8172 23.299 41.8406 23.38 41.8712C23.4377 41.8946 23.4935 41.9252 23.5547 41.9414C23.8534 42.0195 24.1672 42.0195 24.466 41.9414C24.5254 41.9252 24.5812 41.8946 24.6406 41.8712C24.7217 41.8406 24.8063 41.819 24.8838 41.7739L24.9198 41.7541L24.9234 41.7523L24.9252 41.7505L41.0932 32.7697C41.6623 32.4527 42.0171 31.8494 42.0171 31.1957V16.7853C42.0171 16.7547 42.0063 16.7295 42.0045 16.6988ZM23.9581 23.7618L11.507 16.7979L16.481 14.0462L28.788 21.0785L23.9581 23.7618ZM24.0446 9.86101L36.5083 16.7889L32.4671 19.0346L20.1673 12.0058L24.0446 9.86101ZM25.8094 37.1403L25.813 26.9133L31.212 23.8915V29.3949L34.8137 27.594V21.8763L38.4154 19.8611V30.135L25.8094 37.1403Z"/>
</svg>
