<svg width="48" height="48" viewBox="0 0 48 48" xmlns="http://www.w3.org/2000/svg">
<path fill-rule="evenodd" clip-rule="evenodd" d="M20.8 14.4V33.6C20.8 35.84 20.8 36.96 20.3648 37.816C19.981 38.5684 19.3688 39.1801 18.616 39.5632C17.76 40 16.64 40 14.4 40C12.16 40 11.04 40 10.184 39.5632C9.43121 39.1801 8.81903 38.5684 8.4352 37.816C8 36.96 8 35.84 8 33.6V14.4C8 12.16 8 11.04 8.4352 10.184C8.81876 9.43097 9.43097 8.81876 10.184 8.4352C11.04 8 12.16 8 14.4 8C16.64 8 17.76 8 18.616 8.4352C19.369 8.81876 19.9812 9.43097 20.3648 10.184C20.8 11.04 20.8 12.16 20.8 14.4ZM16 36.4C16.3183 36.4 16.6235 36.2736 16.8485 36.0485C17.0736 35.8235 17.2 35.5183 17.2 35.2C17.2 34.8817 17.0736 34.5765 16.8485 34.3515C16.6235 34.1264 16.3183 34 16 34H12.8C12.4817 34 12.1765 34.1264 11.9515 34.3515C11.7264 34.5765 11.6 34.8817 11.6 35.2C11.6 35.5183 11.7264 35.8235 11.9515 36.0485C12.1765 36.2736 12.4817 36.4 12.8 36.4H16Z"/>
<path d="M35.296 21.7822L25.9552 31.5262C24.7872 32.7438 24.2032 33.3534 23.7024 33.1518C23.2 32.9502 23.2 32.107 23.2 30.419V17.2382C23.2023 16.1822 23.6222 15.1699 24.368 14.4222L26.0544 12.7342L26.7424 12.2062C28.3488 10.979 29.152 10.3662 30.0272 10.1758C30.7475 10.0209 31.4967 10.068 32.192 10.3118C33.0368 10.6062 33.7584 11.3166 35.2 12.7342C36.8 14.3342 37.6 15.1342 37.896 16.0494C38.1484 16.8303 38.1545 17.6698 37.9136 18.4542C37.632 19.3742 36.8528 20.1774 35.296 21.7822ZM25.264 39.9998H33.44C35.68 39.9998 36.8 39.9998 37.6544 39.563C38.4072 39.1799 39.0193 38.5683 39.4032 37.8158C39.8384 36.9598 39.8384 35.8398 39.8384 33.5998C39.8384 31.3598 39.8384 30.2398 39.4032 29.3838C39.0193 28.6314 38.4072 28.0198 37.6544 27.6366C36.8 27.1998 35.68 27.1998 33.44 27.1998H33.088L23.8064 36.4766C23.6152 36.6589 23.463 36.8782 23.3591 37.121C23.2551 37.3639 23.2015 37.6253 23.2016 37.8894C23.2016 39.0302 24.1248 39.9998 25.2656 39.9998"/>
</svg>
