<svg width="48" height="48" viewBox="0 0 48 48"  xmlns="http://www.w3.org/2000/svg">
<path fill-rule="evenodd" clip-rule="evenodd" d="M39.0052 13.9891C39.0051 15.189 38.6453 16.3614 37.9722 17.3549C37.299 18.3483 36.3436 19.1171 35.2291 19.562C34.1147 20.0069 32.8924 20.1075 31.7202 19.8508C30.548 19.5941 29.4797 18.9918 28.6532 18.1219L20.8117 22.4807C21.0688 23.4711 21.0688 24.5108 20.8117 25.5013L28.6532 29.8601C29.6606 28.8024 31.0191 28.1484 32.4742 28.0207C33.9293 27.893 35.381 28.3004 36.5572 29.1664C37.7334 30.0325 38.5533 31.2979 38.8633 32.7253C39.1733 34.1527 38.9521 35.6441 38.241 36.9201C37.53 38.196 36.3781 39.1688 35.0011 39.6561C33.6241 40.1435 32.1167 40.1119 30.7613 39.5673C29.406 39.0226 28.2958 38.0024 27.6389 36.6978C26.982 35.3932 26.8234 33.8938 27.1929 32.4806L19.3514 28.1238C18.5249 28.9937 17.4565 29.5958 16.2843 29.8523C15.1121 30.1089 13.8899 30.0082 12.7755 29.5632C11.6611 29.1182 10.7057 28.3493 10.0327 27.3558C9.35967 26.3624 8.99994 25.1899 8.99994 23.99C8.99994 22.79 9.35967 21.6176 10.0327 20.6242C10.7057 19.6307 11.6611 18.8618 12.7755 18.4168C13.8899 17.9718 15.1121 17.871 16.2843 18.1276C17.4565 18.3842 18.5249 18.9863 19.3514 19.8562L27.1929 15.4994C26.9804 14.675 26.9457 13.8148 27.0911 12.976C27.2366 12.1372 27.5588 11.3389 28.0364 10.6342C28.5141 9.92949 29.1362 9.33447 29.8614 8.88865C30.5867 8.44283 31.3985 8.15643 32.243 8.04846C33.0874 7.94049 33.9452 8.01342 34.7593 8.26242C35.5734 8.51142 36.3252 8.93078 36.9648 9.49265C37.6044 10.0545 38.1171 10.746 38.4689 11.5213C38.8207 12.2965 39.0035 13.1377 39.0052 13.9891Z"/>
</svg>
