<svg width="48" height="48" viewBox="0 0 48 48" xmlns="http://www.w3.org/2000/svg">
<path d="M7.74194 11.9032C7.27995 11.9032 6.83688 12.0867 6.5102 12.4134C6.18352 12.7401 6 13.1831 6 13.6451C6 14.1071 6.18352 14.5502 6.5102 14.8769C6.83688 15.2035 7.27995 15.3871 7.74194 15.3871V11.9032ZM8.03226 15.3871C8.49425 15.3871 8.93732 15.2035 9.26399 14.8769C9.59067 14.5502 9.77419 14.1071 9.77419 13.6451C9.77419 13.1831 9.59067 12.7401 9.26399 12.4134C8.93732 12.0867 8.49425 11.9032 8.03226 11.9032V15.3871ZM14.9977 11.9032C14.5357 11.9032 14.0926 12.0867 13.7659 12.4134C13.4393 12.7401 13.2557 13.1831 13.2557 13.6451C13.2557 14.1071 13.4393 14.5502 13.7659 14.8769C14.0926 15.2035 14.5357 15.3871 14.9977 15.3871V11.9032ZM15.583 15.3871C16.045 15.3871 16.488 15.2035 16.8147 14.8769C17.1414 14.5502 17.3249 14.1071 17.3249 13.6451C17.3249 13.1831 17.1414 12.7401 16.8147 12.4134C16.488 12.0867 16.045 11.9032 15.583 11.9032V15.3871ZM22.5484 11.9032C22.0864 11.9032 21.6433 12.0867 21.3167 12.4134C20.99 12.7401 20.8065 13.1831 20.8065 13.6451C20.8065 14.1071 20.99 14.5502 21.3167 14.8769C21.6433 15.2035 22.0864 15.3871 22.5484 15.3871V11.9032ZM40.2581 15.3871C40.7201 15.3871 41.1631 15.2035 41.4898 14.8769C41.8165 14.5502 42 14.1071 42 13.6451C42 13.1831 41.8165 12.7401 41.4898 12.4134C41.1631 12.0867 40.7201 11.9032 40.2581 11.9032V15.3871ZM7.74194 21.7742C7.27995 21.7742 6.83688 21.9577 6.5102 22.2844C6.18352 22.611 6 23.0541 6 23.5161C6 23.9781 6.18352 24.4212 6.5102 24.7478C6.83688 25.0745 7.27995 25.258 7.74194 25.258V21.7742ZM25.4516 25.258C25.9136 25.258 26.3567 25.0745 26.6833 24.7478C27.01 24.4212 27.1935 23.9781 27.1935 23.5161C27.1935 23.0541 27.01 22.611 26.6833 22.2844C26.3567 21.9577 25.9136 21.7742 25.4516 21.7742V25.258ZM32.417 21.7742C31.955 21.7742 31.512 21.9577 31.1853 22.2844C30.8586 22.611 30.6751 23.0541 30.6751 23.5161C30.6751 23.9781 30.8586 24.4212 31.1853 24.7478C31.512 25.0745 31.955 25.258 32.417 25.258V21.7742ZM33.0023 25.258C33.4643 25.258 33.9074 25.0745 34.2341 24.7478C34.5607 24.4212 34.7443 23.9781 34.7443 23.5161C34.7443 23.0541 34.5607 22.611 34.2341 22.2844C33.9074 21.9577 33.4643 21.7742 33.0023 21.7742V25.258ZM39.9677 21.7742C39.5058 21.7742 39.0627 21.9577 38.736 22.2844C38.4093 22.611 38.2258 23.0541 38.2258 23.5161C38.2258 23.9781 38.4093 24.4212 38.736 24.7478C39.0627 25.0745 39.5058 25.258 39.9677 25.258V21.7742ZM40.2581 25.258C40.7201 25.258 41.1631 25.0745 41.4898 24.7478C41.8165 24.4212 42 23.9781 42 23.5161C42 23.0541 41.8165 22.611 41.4898 22.2844C41.1631 21.9577 40.7201 21.7742 40.2581 21.7742V25.258ZM7.74194 31.6451C7.27995 31.6451 6.83688 31.8287 6.5102 32.1553C6.18352 32.482 6 32.9251 6 33.3871C6 33.8491 6.18352 34.2921 6.5102 34.6188C6.83688 34.9455 7.27995 35.129 7.74194 35.129V31.6451ZM15 35.129C15.462 35.129 15.9051 34.9455 16.2317 34.6188C16.5584 34.2921 16.7419 33.8491 16.7419 33.3871C16.7419 32.9251 16.5584 32.482 16.2317 32.1553C15.9051 31.8287 15.462 31.6451 15 31.6451V35.129ZM21.9654 31.6451C21.5034 31.6451 21.0604 31.8287 20.7337 32.1553C20.407 32.482 20.2235 32.9251 20.2235 33.3871C20.2235 33.8491 20.407 34.2921 20.7337 34.6188C21.0604 34.9455 21.5034 35.129 21.9654 35.129V31.6451ZM22.5507 35.129C23.0127 35.129 23.4558 34.9455 23.7824 34.6188C24.1091 34.2921 24.2926 33.8491 24.2926 33.3871C24.2926 32.9251 24.1091 32.482 23.7824 32.1553C23.4558 31.8287 23.0127 31.6451 22.5507 31.6451V35.129ZM29.5161 31.6451C29.0541 31.6451 28.6111 31.8287 28.2844 32.1553C27.9577 32.482 27.7742 32.9251 27.7742 33.3871C27.7742 33.8491 27.9577 34.2921 28.2844 34.6188C28.6111 34.9455 29.0541 35.129 29.5161 35.129V31.6451ZM40.2581 35.129C40.7201 35.129 41.1631 34.9455 41.4898 34.6188C41.8165 34.2921 42 33.8491 42 33.3871C42 32.9251 41.8165 32.482 41.4898 32.1553C41.1631 31.8287 40.7201 31.6451 40.2581 31.6451V35.129ZM7.74194 15.3871H8.03226V11.9032H7.74194V15.3871ZM14.9977 15.3871H15.583V11.9032H14.9977V15.3871ZM22.5484 15.3871H40.2581V11.9032H22.5484V15.3871ZM7.74194 25.258H25.4516V21.7742H7.74194V25.258ZM32.417 25.258H33.0023V21.7742H32.417V25.258ZM39.9677 25.258H40.2581V21.7742H39.9677V25.258ZM7.74194 35.129H15V31.6451H7.74194V35.129ZM21.9654 35.129H22.5507V31.6451H21.9654V35.129ZM29.5161 35.129H40.2581V31.6451H29.5161V35.129Z"/>
<path d="M16.4515 9H14.1289C13.4876 9 12.9677 9.51993 12.9677 10.1613V17.129C12.9677 17.7704 13.4876 18.2903 14.1289 18.2903H16.4515C17.0929 18.2903 17.6128 17.7704 17.6128 17.129V10.1613C17.6128 9.51993 17.0929 9 16.4515 9Z" stroke="black" stroke-linecap="square" stroke-linejoin="round"/>
<path d="M33.871 18.871H31.5484C30.907 18.871 30.3871 19.3909 30.3871 20.0323V27C30.3871 27.6414 30.907 28.1613 31.5484 28.1613H33.871C34.5123 28.1613 35.0322 27.6414 35.0322 27V20.0323C35.0322 19.3909 34.5123 18.871 33.871 18.871Z" stroke="black" stroke-linecap="square" stroke-linejoin="round"/>
<path d="M23.4194 28.7419H21.0968C20.4555 28.7419 19.9355 29.2619 19.9355 29.9032V36.871C19.9355 37.5123 20.4555 38.0323 21.0968 38.0323H23.4194C24.0608 38.0323 24.5807 37.5123 24.5807 36.871V29.9032C24.5807 29.2619 24.0608 28.7419 23.4194 28.7419Z" stroke="black" stroke-linecap="square" stroke-linejoin="round"/>
</svg>
