<svg width="48" height="48" viewBox="0 0 48 48" xmlns="http://www.w3.org/2000/svg">
<path d="M14.0606 23.713L14.3481 24.3406C15.5793 26.8856 17.5174 29.0222 19.9307 30.4949L20.379 30.7571C20.4265 30.7837 20.4661 30.8225 20.4937 30.8694C20.5213 30.9164 20.5358 30.9699 20.5358 31.0244C20.5358 31.0789 20.5213 31.1323 20.4937 31.1793C20.4661 31.2263 20.4265 31.2651 20.379 31.2917C17.761 32.7649 15.6565 35.004 14.3481 37.7082L14.0606 38.3375C14.035 38.3937 13.9939 38.4414 13.942 38.4748C13.8901 38.5083 13.8296 38.526 13.7679 38.526C13.7062 38.526 13.6457 38.5083 13.5938 38.4748C13.5419 38.4414 13.5008 38.3937 13.4752 38.3375L13.1877 37.7082C11.8793 35.004 9.77484 32.7649 7.15682 31.2917C7.10927 31.2651 7.06966 31.2263 7.0421 31.1793C7.01453 31.1323 7 31.0789 7 31.0244C7 30.9699 7.01453 30.9164 7.0421 30.8694C7.06966 30.8225 7.10927 30.7837 7.15682 30.7571L7.60511 30.4949C10.0184 29.0222 11.9565 26.8856 13.1877 24.3406L13.4752 23.713C13.5008 23.6567 13.5419 23.6091 13.5938 23.5756C13.6457 23.5422 13.7062 23.5244 13.7679 23.5244C13.8296 23.5244 13.8901 23.5422 13.942 23.5756C13.9939 23.6091 14.035 23.6567 14.0606 23.713ZM29.125 6.33264C31.3501 11.5492 35.2374 15.8837 40.1818 18.6616C40.2649 18.7082 40.3341 18.7761 40.3822 18.8583C40.4304 18.9405 40.4558 19.0341 40.4558 19.1293C40.4558 19.2246 40.4304 19.3182 40.3822 19.4004C40.3341 19.4826 40.2649 19.5505 40.1818 19.5971C35.2371 22.3754 31.3498 26.7106 29.125 31.9277C29.081 32.0268 29.0092 32.1109 28.9184 32.1699C28.8276 32.229 28.7216 32.2604 28.6132 32.2604C28.5049 32.2604 28.3989 32.229 28.3081 32.1699C28.2172 32.1109 28.1455 32.0268 28.1015 31.9277C25.8767 26.7106 21.9893 22.3754 17.0447 19.5971C16.9616 19.5505 16.8924 19.4826 16.8442 19.4004C16.7961 19.3182 16.7707 19.2246 16.7707 19.1293C16.7707 19.0341 16.7961 18.9405 16.8442 18.8583C16.8924 18.7761 16.9616 18.7082 17.0447 18.6616C21.9891 15.8837 25.8764 11.5492 28.1015 6.33264C28.1455 6.23363 28.2172 6.14951 28.3081 6.09047C28.3989 6.03143 28.5049 6 28.6132 6C28.7216 6 28.8276 6.03143 28.9184 6.09047C29.0092 6.14951 29.081 6.23363 29.125 6.33264Z"/>
</svg>
