<svg width="48" height="48" viewBox="0 0 48 48"  xmlns="http://www.w3.org/2000/svg">
<path fill-rule="evenodd" clip-rule="evenodd" d="M11.2189 17.9655C10.7654 17.9655 10.3685 18.3623 10.3685 18.8159V29.2475C10.3685 29.7011 10.7654 30.0979 11.2189 30.0979H16.1513L23.4647 37.4114C23.975 37.9216 24.8821 37.5815 24.8821 36.8445V31.2885C24.8821 31.0617 24.7687 30.8349 24.6553 30.6648L12.1827 18.1922C12.0126 18.0222 11.7859 17.9655 11.5591 17.9655H11.2189ZM37.7516 35.7673L34.6334 32.6491C35.824 31.1751 37.5815 28.227 37.5815 24.0317C37.5815 17.5686 33.4995 14.167 33.4995 14.167C33.1594 13.8268 32.5924 13.8268 32.2523 14.167L31.4586 14.9607C31.1184 15.3009 31.1184 15.8678 31.4586 16.208C31.4586 16.208 34.6901 19.0426 34.6901 24.0317C34.6901 27.0931 33.4995 29.3042 32.5357 30.6082L30.4948 28.5672C31.1184 27.6034 31.7987 26.0727 31.7987 24.0317C31.7987 20.1765 29.4743 18.1922 29.4743 18.1922C29.1341 17.8521 28.5672 17.8521 28.227 18.1922L27.4333 18.9859C27.0931 19.3261 27.0931 19.893 27.4333 20.2332C27.4333 20.2332 28.9073 21.3671 28.9073 24.0317C28.9073 25.0522 28.6806 25.8459 28.3971 26.4695L24.8254 22.8978V11.2189C24.8254 10.4819 23.9183 10.1417 23.4081 10.652L18.0222 16.0946L12.2394 10.2551C11.8992 9.91496 11.389 9.91496 11.0488 10.2551L10.2551 11.0488C9.91496 11.389 9.91496 11.8992 10.2551 12.2394L12.6363 14.7339L27.8302 29.9278L35.7106 37.8083C36.0507 38.1484 36.561 38.1484 36.9012 37.8083L37.6949 37.0145C38.0917 36.6744 38.0917 36.1074 37.7516 35.7673Z" />
</svg>
