<svg width="48" height="48" viewBox="0 0 48 48"  xmlns="http://www.w3.org/2000/svg">
<path d="M29.8995 17.6713C29.7485 17.4712 29.5595 17.3027 29.3434 17.1756C29.1273 17.0485 28.8883 16.9652 28.64 16.9304C28.3917 16.8957 28.139 16.9102 27.8963 16.9731C27.6536 17.036 27.4257 17.1461 27.2256 17.2971C27.0254 17.4481 26.857 17.6371 26.7299 17.8532C26.6028 18.0693 26.5195 18.3083 26.4847 18.5566C26.45 18.8049 26.4645 19.0576 26.5274 19.3003C26.5903 19.543 26.7004 19.7709 26.8514 19.971C27.7388 21.1311 28.2308 22.5451 28.2552 24.0054C28.2305 25.4684 27.7376 26.885 26.8489 28.0474C26.6931 28.2471 26.5787 28.4759 26.5122 28.7203C26.4458 28.9647 26.4286 29.2199 26.4618 29.471C26.4949 29.7221 26.5777 29.9641 26.7053 30.1829C26.8329 30.4017 27.0028 30.5929 27.205 30.7454C27.4072 30.8979 27.6378 31.0086 27.8832 31.0711C28.1287 31.1336 28.3841 31.1467 28.6347 31.1095C28.8852 31.0723 29.1258 30.9856 29.3425 30.8545C29.5592 30.7234 29.7477 30.5505 29.8969 30.3458C31.2834 28.5208 32.0464 26.2984 32.0732 24.0066C32.0468 21.7164 31.2848 19.4953 29.8995 17.6713ZM34.6465 14.7034C34.4898 14.5043 34.2951 14.3384 34.0736 14.2153C33.8521 14.0923 33.6084 14.0145 33.3566 13.9866C33.1047 13.9587 32.8499 13.9813 32.6068 14.0529C32.3638 14.1245 32.1374 14.2437 31.941 14.4037C31.7445 14.5637 31.5818 14.7612 31.4625 14.9847C31.3431 15.2082 31.2694 15.4532 31.2457 15.7054C31.222 15.9577 31.2488 16.2121 31.3244 16.4539C31.4 16.6958 31.5231 16.9201 31.6863 17.1139C33.2657 19.0681 34.144 21.4955 34.1807 24.0079C34.1459 26.5199 33.2673 28.9471 31.6863 30.8994C31.3766 31.293 31.2339 31.7925 31.289 32.2902C31.3442 32.788 31.5927 33.2441 31.9811 33.5603C32.3694 33.8766 32.8665 34.0275 33.3651 33.9807C33.8637 33.9338 34.3239 33.6929 34.6465 33.3099C36.7941 30.6828 37.9775 27.3997 38 24.0066C37.9765 20.6138 36.7932 17.331 34.6465 14.7034ZM23.2396 10.1053C23.0118 10.0065 22.7602 9.97633 22.5155 10.0186C22.2709 10.0609 22.0439 10.1737 21.8626 10.3433L15.4279 16.363H11.2727C10.9351 16.363 10.6114 16.4971 10.3728 16.7358C10.1341 16.9744 10 17.2981 10 17.6357V30.3662C10 30.7037 10.1341 31.0274 10.3728 31.2661C10.6114 31.5048 10.9351 31.6388 11.2727 31.6388H15.4279L21.804 37.5975L21.8295 37.6242C22.0154 37.8117 22.2551 37.9368 22.5154 37.982C22.7756 38.0272 23.0434 37.9903 23.2817 37.8764C23.52 37.7626 23.717 37.5774 23.8454 37.3466C23.9737 37.1158 24.0271 36.8508 23.9981 36.5883L24.0057 11.2723C24.0056 11.0243 23.9331 10.7817 23.797 10.5744C23.6608 10.367 23.4671 10.204 23.2396 10.1053Z" />
</svg>
