<svg width="48" height="48" viewBox="0 0 48 48" xmlns="http://www.w3.org/2000/svg">
<path d="M25.3368 6C26.9798 6 28.5715 6.21638 30.0861 6.62162L26.1877 10.5182C25.8919 10.8151 25.6311 11.1449 25.4102 11.5011H25.3368C22.7982 11.5011 20.3165 12.2539 18.2057 13.6643C16.0948 15.0747 14.4496 17.0794 13.4781 19.4248C12.5066 21.7703 12.2524 24.3511 12.7477 26.841C13.243 29.3309 14.4655 31.618 16.2606 33.4132C18.0557 35.2083 20.3428 36.4308 22.8327 36.9261C25.3226 37.4213 27.9035 37.1671 30.2489 36.1956C32.5943 35.2241 34.599 33.5789 36.0094 31.4681C37.4198 29.3572 38.1726 26.8756 38.1726 24.3369V24.2635C38.5272 24.0435 38.8542 23.7837 39.1537 23.4842L43.0521 19.5876C43.4573 21.1023 43.6737 22.6939 43.6737 24.3369C43.6737 34.4643 35.4643 42.6738 25.3368 42.6738C15.2094 42.6738 7 34.4643 7 24.3369C7 14.2094 15.2094 6 25.3368 6ZM24.5777 15.1996C24.5777 16.7601 24.5007 18.3426 24.585 19.9012L23.5948 20.8914C23.2542 21.232 22.984 21.6364 22.7997 22.0814C22.6154 22.5264 22.5205 23.0034 22.5205 23.4851C22.5205 23.9668 22.6154 24.4438 22.7997 24.8889C22.984 25.3339 23.2542 25.7383 23.5948 26.0789C23.9355 26.4195 24.3398 26.6897 24.7849 26.874C25.2299 27.0584 25.7069 27.1532 26.1886 27.1532C26.6703 27.1532 27.1473 27.0584 27.5923 26.874C28.0374 26.6897 28.4417 26.4195 28.7823 26.0789L29.7725 25.0887C31.3312 25.173 32.9118 25.096 34.4741 25.096C34.3292 26.8386 33.6891 28.5035 32.6291 29.8943C31.5691 31.285 30.1335 32.3436 28.4916 32.9452C26.8498 33.5469 25.0701 33.6664 23.3625 33.2898C21.6549 32.9132 20.0906 32.0561 18.8541 30.8196C17.6177 29.5831 16.7606 28.0188 16.3839 26.3112C16.0073 24.6037 16.1269 22.824 16.7285 21.1821C17.3301 19.5402 18.3887 18.1046 19.7795 17.0446C21.1702 15.9846 22.8351 15.3445 24.5777 15.1996ZM37.2631 6.23288C37.5978 6.37165 37.8839 6.60647 38.0853 6.90769C38.2866 7.20892 38.3942 7.56304 38.3945 7.92537V11.281H41.7483C42.1109 11.2811 42.4654 11.3887 42.7669 11.5902C43.0683 11.7917 43.3033 12.078 43.4421 12.413C43.5808 12.7481 43.6171 13.1167 43.5464 13.4723C43.4757 13.828 43.3011 14.1547 43.0447 14.4111L36.559 20.8895C36.2152 21.2334 35.7489 21.4267 35.2626 21.4268H30.8379L27.4859 24.7806C27.1419 25.1247 26.6752 25.318 26.1886 25.318C25.702 25.318 25.2353 25.1247 24.8913 24.7806C24.5472 24.4366 24.3539 23.9699 24.3539 23.4833C24.3539 22.9967 24.5472 22.53 24.8913 22.186L28.2451 18.8358V14.4093C28.2449 14.1682 28.2922 13.9294 28.3844 13.7067C28.4766 13.4839 28.6118 13.2815 28.7823 13.111L35.2644 6.62895C35.5208 6.37236 35.8476 6.1976 36.2034 6.12677C36.5592 6.05594 36.928 6.09223 37.2631 6.23104"/>
</svg>
