<svg width="48" height="48" viewBox="0 0 48 48" xmlns="http://www.w3.org/2000/svg">
<path d="M24.4343 6.0009C34.1755 6.23105 42.0019 14.2029 42.002 23.9995C42.0018 33.9495 33.9585 42.0186 23.9988 42C14.0306 41.981 5.89059 33.7888 6.00111 23.8111C6.04633 19.448 7.67638 15.2501 10.5869 11.9992C11.0969 11.4296 11.9724 11.3811 12.5421 11.8911C13.1116 12.4012 13.1603 13.2767 12.6503 13.8463C10.1876 16.597 8.80842 20.1491 8.77041 23.8409C8.67707 32.2698 15.5658 39.2147 24.0043 39.2307C32.4254 39.2464 39.2325 32.4251 39.2327 23.9995C39.2326 16.0537 33.1477 9.52667 25.3862 8.82699V14.9993C25.386 15.7638 24.766 16.3838 24.0015 16.384C23.2371 16.3838 22.6171 15.7638 22.6169 14.9993V7.76236C22.6167 7.5272 22.6636 7.294 22.7548 7.07725C22.8466 6.85929 22.9818 6.66149 23.1515 6.49671L23.2849 6.38042C23.4232 6.27077 23.5776 6.1821 23.7428 6.11809C23.959 6.03442 24.19 5.99532 24.4216 6.0009L24.4225 6C24.4238 6.00011 24.4258 6.00081 24.427 6.0009C24.4296 6.00091 24.4326 5.99997 24.4352 6L24.4343 6.0009Z"/>
<path d="M15.7225 15.075C15.887 15.0606 16.0513 15.105 16.1868 15.1994L25.9658 22.0361C26.5655 22.4681 26.9716 23.1186 27.0954 23.8472C27.2191 24.5759 27.0511 25.3247 26.6275 25.9305C26.2039 26.536 25.5586 26.9505 24.8318 27.0843C24.1049 27.2181 23.3537 27.0605 22.7422 26.6453C22.4719 26.458 22.2353 26.2257 22.0436 25.9584L15.2069 16.1793C15.1123 16.0439 15.0688 15.8787 15.0834 15.7142C15.0979 15.5497 15.1704 15.3955 15.2871 15.2788C15.4039 15.1621 15.5581 15.0896 15.7225 15.075Z"/>
</svg>
