<svg width="48" height="48" viewBox="0 0 48 48" xmlns="http://www.w3.org/2000/svg">
<path fill-rule="evenodd" clip-rule="evenodd" d="M14 10C13.4696 10 12.9609 10.2107 12.5858 10.5858C12.2107 10.9609 12 11.4696 12 12V14C12 14.5304 11.7893 15.0391 11.4142 15.4142C11.0391 15.7893 10.5304 16 10 16C9.46957 16 8.96086 15.7893 8.58579 15.4142C8.21071 15.0391 8 14.5304 8 14V12C8 10.4087 8.63214 8.88258 9.75736 7.75736C10.8826 6.63214 12.4087 6 14 6H34C35.5913 6 37.1174 6.63214 38.2426 7.75736C39.3679 8.88258 40 10.4087 40 12V14C40 14.5304 39.7893 15.0391 39.4142 15.4142C39.0391 15.7893 38.5304 16 38 16C37.4696 16 36.9609 15.7893 36.5858 15.4142C36.2107 15.0391 36 14.5304 36 14V12C36 11.4696 35.7893 10.9609 35.4142 10.5858C35.0391 10.2107 34.5304 10 34 10H26V38H30C30.5304 38 31.0391 38.2107 31.4142 38.5858C31.7893 38.9609 32 39.4696 32 40C32 40.5304 31.7893 41.0391 31.4142 41.4142C31.0391 41.7893 30.5304 42 30 42H18C17.4696 42 16.9609 41.7893 16.5858 41.4142C16.2107 41.0391 16 40.5304 16 40C16 39.4696 16.2107 38.9609 16.5858 38.5858C16.9609 38.2107 17.4696 38 18 38H22V10H14Z"/>
</svg>
