<svg width="48" height="48" viewBox="0 0 48 48" xmlns="http://www.w3.org/2000/svg">
<path d="M38.3157 26.5263L21.4737 26.528C20.8456 26.528 20.2401 26.762 19.7753 27.1842C19.3104 27.6064 19.0194 28.1867 18.9591 28.8118L18.9473 29.0526V32.421C18.9491 38.3157 25.2058 40 29.8946 40C34.4791 40 40.5641 38.3899 40.8336 32.8084L40.842 32.421V29.0526C40.842 28.4246 40.6081 27.8191 40.1858 27.3542C39.7636 26.8894 39.1834 26.5984 38.5583 26.5381L38.3157 26.5263ZM18.1255 26.5263H9.68415C9.05647 26.5263 8.45115 26.76 7.98631 27.1819C7.52148 27.6037 7.23038 28.1836 7.16965 28.8084L7.15791 29.0526V31.5789C7.15952 36.736 11.9714 38.3157 15.579 38.3157C16.8009 38.3186 18.0162 38.1358 19.1831 37.7735C18.0833 36.5103 17.371 34.9053 17.2749 32.8926L17.2632 32.421V29.0526C17.2632 28.2206 17.5158 27.4509 17.9352 26.7992L18.1255 26.5263H9.68415H18.1255ZM29.8946 8C27.8846 8 25.9569 8.79849 24.5355 10.2198C23.1142 11.6411 22.3157 13.5689 22.3157 15.579C22.3157 17.589 23.1142 19.5168 24.5355 20.9381C25.9569 22.3594 27.8846 23.1579 29.8946 23.1579C31.9047 23.1579 33.8325 22.3594 35.2538 20.9381C36.6751 19.5168 37.4736 17.589 37.4736 15.579C37.4736 13.5689 36.6751 11.6411 35.2538 10.2198C33.8325 8.79849 31.9047 8 29.8946 8ZM14.7368 11.3684C13.1734 11.3684 11.6741 11.9895 10.5686 13.095C9.46314 14.2004 8.8421 15.6998 8.8421 17.2632C8.8421 18.8266 9.46314 20.3259 10.5686 21.4313C11.6741 22.5368 13.1734 23.1579 14.7368 23.1579C16.3002 23.1579 17.7995 22.5368 18.905 21.4313C20.0105 20.3259 20.6315 18.8266 20.6315 17.2632C20.6315 15.6998 20.0105 14.2004 18.905 13.095C17.7995 11.9895 16.3002 11.3684 14.7368 11.3684Z"/>
</svg>
