<svg width="48" height="48" viewBox="0 0 48 48" xmlns="http://www.w3.org/2000/svg">
<path d="M29.0546 4L27.9897 6.35294L25.6196 7.43495L27.9897 8.51696L29.0546 10.8699L30.1366 8.51696L32.4895 7.43495L30.1366 6.35294L29.0546 4ZM21.3259 7.43495L19.4539 11.5741L15.3148 13.4461L19.4539 15.3182L21.3259 19.4573L23.2151 15.3182L27.3371 13.4461L23.2151 11.5741L21.3259 7.43495ZM35.7355 12.8278C33.4513 12.6904 30.8407 13.7037 28.7798 15.7475C26.049 18.4783 25.1902 22.1709 26.4096 24.7986L9.64708 41.5612L12.0687 43.9828L23.9021 32.1838L35.7184 44L38.14 41.5784L26.3238 29.7621L28.8485 27.2374C31.4762 28.4568 35.1688 27.5981 37.8996 24.8673C41.1799 21.5869 41.8154 16.8811 39.2907 14.3564C38.3461 13.4461 37.0923 12.9137 35.7355 12.8278ZM10.0078 13.4461C8.72194 14.7369 8 16.4846 8 18.3066C8 20.1285 8.72194 21.8762 10.0078 23.167L17.204 30.3461L22.0644 25.4684L10.0078 13.4461Z"/>
</svg>
