<svg width="48" height="48" viewBox="0 0 48 48" xmlns="http://www.w3.org/2000/svg">
<path d="M17.1458 12.1707L12.8606 14.5704L15.2603 10.2852L12.8606 6L17.1458 8.39971L21.431 6L19.0313 10.2852L21.431 14.5704L17.1458 12.1707ZM37.7148 28.9687L42 26.569L39.6003 30.8542L42 35.1394L37.7148 32.7397L33.4296 35.1394L35.8293 30.8542L33.4296 26.569L37.7148 28.9687ZM42 6L39.6003 10.2852L42 14.5704L37.7148 12.1707L33.4296 14.5704L35.8293 10.2852L33.4296 6L37.7148 8.39971L42 6ZM27.1561 24.4778L31.3384 20.2954L27.7046 16.6616L23.5222 20.8439L27.1561 24.4778ZM28.9216 15.0675L32.9325 19.0784C33.601 19.7127 33.601 20.8268 32.9325 21.4953L12.9292 41.4986C12.2607 42.1671 11.1465 42.1671 10.5123 41.4986L6.50137 37.4877C5.83288 36.8535 5.83288 35.7393 6.50137 35.0708L26.5047 15.0675C27.1732 14.399 28.2873 14.399 28.9216 15.0675Z"/>
</svg>
