<svg width="48" height="48" viewBox="0 0 48 48"  xmlns="http://www.w3.org/2000/svg">
<path fill-rule="evenodd" clip-rule="evenodd" d="M24 44C35.0457 44 44 35.0457 44 24C44 12.9543 35.0457 4 24 4C12.9543 4 4 12.9543 4 24C4 27.6679 4.98735 31.1051 6.71078 34.0605L4 44L14.034 41.344C16.968 43.0335 20.3711 44 24 44ZM29.64 26.3527C30.0975 26.5227 32.53 27.7202 33.0225 27.9677C33.1209 28.0169 33.213 28.0612 33.2982 28.1022C33.6414 28.2674 33.8744 28.3795 33.9725 28.5477C34.0975 28.7552 34.0975 29.7452 33.6875 30.9052C33.27 32.0627 31.2925 33.1177 30.3425 33.2627C29.4875 33.3852 28.415 33.4427 27.2275 33.0627C26.505 32.8327 25.58 32.5302 24.405 32.0177C19.7338 29.998 16.5915 25.4654 16.0247 24.6479C15.9882 24.5951 15.9623 24.5578 15.9475 24.5377L15.9435 24.5323C15.6791 24.1808 13.9225 21.845 13.9225 19.4152C13.9225 17.1213 15.0449 15.9255 15.5583 15.3784C15.5916 15.343 15.6223 15.3103 15.65 15.2802C15.816 15.0917 16.0191 14.9395 16.2467 14.8333C16.4743 14.727 16.7214 14.6689 16.9725 14.6627C17.305 14.6627 17.6375 14.6627 17.9225 14.6802C17.958 14.6816 17.9949 14.6811 18.0331 14.6805C18.3223 14.6763 18.6816 14.671 19.035 15.5302C19.2114 15.9463 19.4894 16.6224 19.7612 17.2834C20.1329 18.187 20.4928 19.0622 20.565 19.2052C20.6875 19.4527 20.765 19.7377 20.6025 20.0727C20.5791 20.1202 20.5574 20.1652 20.5366 20.2082C20.4128 20.4647 20.3215 20.6537 20.1075 20.8977C20.0154 21.0038 19.9194 21.1202 19.8241 21.236C19.6633 21.4313 19.504 21.6246 19.3675 21.7627C19.12 22.0102 18.8625 22.2752 19.1475 22.7702C19.4425 23.2627 20.43 24.8877 21.905 26.2002C23.4772 27.6081 24.847 28.2047 25.5467 28.5094C25.6881 28.571 25.8022 28.6207 25.885 28.6627C26.38 28.9077 26.675 28.8702 26.96 28.5377C27.245 28.2152 28.195 27.0927 28.5275 26.6002C28.8525 26.1052 29.185 26.1902 29.64 26.3527Z" />
</svg>
