<svg width="128" height="128" viewBox="0 0 128 128" fill="none" xmlns="http://www.w3.org/2000/svg">
<path d="M77.6748 18.7685C78.1592 19.0031 78.2379 19.3063 78.445 19.7965C78.5229 19.9774 78.6008 20.1584 78.6811 20.3448C78.7603 20.5358 78.8395 20.7267 78.9211 20.9235C79.0389 21.1992 79.0389 21.1992 79.1591 21.4804C79.396 22.0366 79.6287 22.5944 79.8612 23.1524C79.9428 23.3438 80.0243 23.5352 80.1083 23.7324C80.1856 23.9146 80.2629 24.0969 80.3426 24.2847C80.4475 24.531 80.4475 24.531 80.5545 24.7823C80.7063 25.1807 80.7063 25.1807 80.7063 25.5187C80.8196 25.4612 80.9328 25.4036 81.0494 25.3443C82.1155 24.8028 83.1823 24.263 84.2501 23.7249C84.7991 23.4482 85.3477 23.1709 85.8956 22.8922C86.4242 22.6233 86.9536 22.3561 87.4836 22.09C87.7844 21.9384 88.0844 21.7851 88.3843 21.6318C88.567 21.5404 88.7497 21.4491 88.938 21.3549C89.099 21.2735 89.26 21.192 89.4259 21.1081C89.8334 20.9552 89.8334 20.9552 90.3404 21.1242C90.4878 21.4899 90.4878 21.4899 90.6071 21.9785C90.6528 22.1604 90.6984 22.3422 90.7455 22.5296C90.7931 22.7281 90.8407 22.9267 90.8897 23.1313C90.9944 23.5514 91.0992 23.9716 91.204 24.3917C91.257 24.6075 91.3101 24.8234 91.3648 25.0457C91.6072 26.0258 91.8609 27.0029 92.1151 27.98C92.1879 28.2614 92.1879 28.2614 92.2621 28.5485C92.6051 29.8722 92.9605 31.1924 93.3194 32.5119C93.722 33.9937 94.0969 35.4793 94.4464 36.9745C94.8473 38.6871 95.2724 40.3937 95.8474 42.0575C95.9398 42.5327 95.9023 42.8038 95.749 43.2657C95.4954 43.6336 95.2411 43.9692 94.9567 44.3115C94.7863 44.5224 94.6159 44.7335 94.4457 44.9447C94.3551 45.0562 94.2646 45.1677 94.1712 45.2826C93.6854 45.8857 93.2125 46.4987 92.7384 47.1109C92.5377 47.3693 92.337 47.6276 92.1362 47.886C92.0356 48.0156 91.9349 48.1451 91.8312 48.2786C91.5213 48.6772 91.2109 49.0752 90.9003 49.4732C90.6961 49.7351 90.4918 49.9969 90.2876 50.2588C90.1893 50.3847 90.091 50.5105 89.9898 50.6402C89.5474 51.2083 89.1089 51.7781 88.6826 52.3584C88.6119 52.4544 88.5413 52.5504 88.4685 52.6493C88.2842 52.9014 88.1014 53.1547 87.9187 53.4081C87.8254 53.5193 87.7322 53.6304 87.6361 53.7449C87.5246 53.7449 87.413 53.7449 87.2981 53.7449C87.2769 53.6481 87.2557 53.5514 87.2339 53.4518C86.8373 51.65 86.423 49.8601 85.915 48.0862C85.541 46.7718 85.2337 45.4432 84.9318 44.1108C83.5949 44.2179 82.3067 44.5023 81.0005 44.793C80.304 44.9479 79.607 45.1001 78.9099 45.2523C78.693 45.2997 78.693 45.2997 78.4717 45.3481C76.9343 45.6828 75.3926 45.9956 73.8505 46.308C71.592 46.7663 69.3406 47.2498 67.0923 47.7557C65.1145 48.2005 63.1327 48.6194 61.1462 49.0234C59.6307 49.3318 58.1189 49.6523 56.6106 49.9948C54.0143 50.5832 51.4038 51.1033 48.7944 51.6297C48.4477 51.6998 48.101 51.7699 47.7542 51.8401C47.5054 51.8903 47.5054 51.8903 47.2515 51.9416C46.2048 52.1544 45.1658 52.385 44.1305 52.6484C43.6381 52.7407 43.1769 52.7448 42.6771 52.7307C42.1879 50.5556 41.843 48.367 41.5362 46.1601C41.5172 46.0249 41.4982 45.8897 41.4786 45.7504C41.4238 45.3594 41.3702 44.9682 41.317 44.5769C41.3007 44.4598 41.2843 44.3426 41.2675 44.2219C41.1795 43.5603 41.1401 42.9188 41.1559 42.2516C39.4246 43.1101 37.8507 43.9679 36.4234 45.2939C36.2818 45.424 36.1401 45.5541 35.9942 45.6881C34.8024 46.8301 33.672 48.1391 32.8159 49.5577C32.4042 49.9985 31.905 50.1162 31.3422 50.28C31.1124 50.3518 30.8826 50.424 30.653 50.4965C30.5411 50.5314 30.4292 50.5662 30.3139 50.6022C29.6295 50.8214 28.969 51.0918 28.3105 51.3786C28.0971 51.4688 28.0971 51.4688 27.8793 51.5608C26.1745 52.3369 25.2368 53.3689 24.5749 55.1214C24.3972 55.6861 24.2942 56.1977 24.254 56.7872C23.0387 57.1571 21.8139 57.4951 20.5356 57.4633C20.5135 57.369 20.4915 57.2748 20.4687 57.1777C19.9241 54.8564 19.3577 52.5476 18.687 50.2588C18.3475 49.0847 18.0654 47.8991 17.7891 46.7087C17.7555 46.5645 17.7219 46.4203 17.6874 46.2717C17.6553 46.1332 17.6232 45.9946 17.5901 45.8519C17.5028 45.5013 17.3994 45.1616 17.2886 44.8179C17.1501 44.2593 17.1935 43.9821 17.3242 43.4347C22.2224 42.4443 27.1203 41.4588 32.0389 40.5745C32.6172 40.4704 33.195 40.3642 33.7723 40.2547C33.8927 40.2319 34.0131 40.2091 34.1372 40.1856C34.4683 40.1227 34.7993 40.0593 35.1304 39.9959C35.9373 39.8512 36.7457 39.74 37.559 39.6364C38.13 39.5535 38.13 39.5535 38.7438 39.3845C39.4095 39.2157 40.0727 39.1111 40.7538 39.0197C43.3949 38.6416 45.5739 38.3103 47.7089 36.6175C48.4885 36.0348 49.3348 35.5505 50.1667 35.0471C50.5467 34.8144 50.9265 34.5816 51.3063 34.3486C51.6975 34.1094 52.0888 33.8705 52.4802 33.6316C52.6757 33.5122 52.8711 33.3927 53.0666 33.2733C55.3989 31.8488 57.7399 30.4404 60.0928 29.0502C61.8937 27.986 63.6874 26.91 65.4802 25.8322C65.6523 25.7287 65.8244 25.6253 66.0017 25.5187C66.0975 25.4611 66.1933 25.4035 66.292 25.3441C67.4759 24.6324 68.6609 23.9227 69.8489 23.2178C69.9579 23.1531 70.0669 23.0884 70.1792 23.0218C70.7521 22.682 71.3253 22.3426 71.8987 22.0035C72.9454 21.3839 73.99 20.7624 75.0237 20.1213C75.1797 20.0252 75.3357 19.9291 75.4963 19.83C75.7785 19.6555 76.0595 19.4793 76.3394 19.3011C76.5231 19.1878 76.5231 19.1878 76.7106 19.0722C76.8143 19.0068 76.9179 18.9414 77.0247 18.874C77.326 18.7579 77.326 18.7579 77.6748 18.7685Z" fill="white"/>
<path d="M77.9552 81.9586C78.299 82.1858 78.6253 82.4287 78.9528 82.6788C79.2095 82.8666 79.4665 83.0539 79.7239 83.2407C79.8575 83.3382 79.9911 83.4356 80.1287 83.5361C83.5773 86.0188 87.2401 88.1058 91.3546 89.2389C91.5244 89.2902 91.5244 89.2902 91.6976 89.3426C92.8627 89.6561 94.0487 89.6222 95.2456 89.6117C95.6127 89.6086 95.9798 89.6082 96.3469 89.6083C97.3486 89.6047 98.3101 89.5899 99.2984 89.4079C99.7511 89.389 100.197 89.4001 100.651 89.4079C100.265 89.7934 100.064 89.8422 99.5441 89.9783C99.2978 90.0437 99.2978 90.0437 99.0465 90.1105C98.8647 90.1575 98.6829 90.2045 98.4956 90.253C98.3052 90.3033 98.1148 90.3536 97.9186 90.4054C97.3742 90.549 96.8295 90.6915 96.2847 90.8335C95.1993 91.1165 94.1145 91.4012 93.0296 91.6858C92.6229 91.7923 92.2161 91.8982 91.8093 92.0039C90.4083 92.3695 89.0162 92.7554 87.6287 93.1694C86.6275 93.4667 85.6197 93.7265 84.6044 93.9714C82.9008 94.3904 81.2106 94.8441 79.5232 95.3236C77.394 95.9278 75.266 96.5253 73.1162 97.0528C72.1026 97.3024 71.0968 97.5738 70.092 97.8566C68.9703 98.172 67.8455 98.4759 66.72 98.7779C65.3671 99.1411 64.0147 99.5064 62.6636 99.8765C60.9834 100.336 59.3003 100.785 57.6169 101.233C56.2173 101.606 54.8186 101.981 53.4204 102.359C52.0523 102.728 50.6828 103.091 49.3111 103.447C47.7563 103.85 46.2062 104.269 44.6571 104.694C43.6177 104.978 42.577 105.259 41.5362 105.539C41.3538 105.588 41.1715 105.637 40.9836 105.687C40.0306 105.944 39.0774 106.2 38.1242 106.455C37.7403 106.558 37.3565 106.661 36.9727 106.764C36.789 106.813 36.6052 106.863 36.4159 106.913C35.2605 107.224 34.1104 107.547 32.9651 107.894C32.536 108 32.536 108 31.8599 108C31.2421 105.839 30.6267 103.678 30.0131 101.516C29.8468 100.931 29.6804 100.345 29.5137 99.7591C29.3505 99.1855 29.1875 98.6118 29.0248 98.038C28.9335 97.7166 28.842 97.3952 28.7504 97.0738C28.6951 96.8785 28.6397 96.6831 28.5827 96.4819C28.5098 96.2252 28.5098 96.2252 28.4353 95.9633C28.3195 95.5266 28.2245 95.0914 28.1415 94.6475C28.3925 94.5638 28.3925 94.5638 28.6485 94.4785C28.7601 94.3111 28.8716 94.1438 28.9866 93.9714C29.318 93.8497 29.318 93.8497 29.726 93.7667C29.9525 93.7185 29.9525 93.7185 30.1836 93.6693C30.3463 93.6366 30.5091 93.6038 30.6768 93.57C31.0182 93.4971 31.3596 93.4236 31.7008 93.3495C31.8711 93.3125 32.0415 93.2755 32.217 93.2374C32.8973 93.0825 33.5666 92.8973 34.2367 92.7038C35.4872 92.345 36.7458 92.0371 38.0124 91.7408C39.059 91.4951 40.0974 91.227 41.1348 90.9449C42.0294 90.7045 42.9294 90.4859 43.8285 90.2635C45.0241 89.9675 46.2146 89.6613 47.3991 89.3234C48.7895 88.927 50.1925 88.5905 51.6007 88.2637C52.5142 88.0496 53.4173 87.8158 54.3183 87.554C55.5142 87.2071 56.7191 86.9144 57.9311 86.6296C59.2506 86.3155 60.5678 86.0017 61.8713 85.6261C63.4068 85.1839 64.9581 84.8061 66.5088 84.4218C68.8611 83.8417 68.8611 83.8417 71.199 83.207C72.3776 82.8717 73.5612 82.5591 74.7484 82.2563C75.0085 82.1886 75.0085 82.1886 75.2738 82.1195C77.3024 81.6076 77.3024 81.6076 77.9552 81.9586Z" fill="white"/>
<path d="M12.4227 54.7589C12.9089 56.0172 13.2851 57.2709 13.5953 58.5829C13.8864 59.7819 14.187 60.9729 14.546 62.1534C14.8992 63.3161 15.1975 64.4877 15.4855 65.668C15.7449 66.7212 16.0415 67.7591 16.3551 68.7973C16.615 69.6662 16.8225 70.5398 17.0173 71.4257C17.1838 72.1175 17.3839 72.7963 17.5884 73.4777C18.5081 76.5608 18.5081 76.5608 18.1694 77.2384C17.8466 77.4688 17.5121 77.6637 17.1678 77.8603C16.5757 78.2372 16.0873 78.7373 15.8691 79.4198C15.5694 81.026 15.9154 82.6505 16.7083 84.0717C17.4555 85.1334 18.4123 85.9014 19.6905 86.1964C20.3093 86.2701 20.928 86.3233 21.5497 86.3654C22.0177 87.6992 22.378 89.0543 22.7329 90.4218C22.829 90.7909 22.9252 91.16 23.0214 91.529C23.4965 93.3553 23.9677 95.1823 24.4231 97.0136C25.2039 96.9578 25.9848 96.902 26.7893 96.8446C27.1798 98.3505 27.5702 99.8565 27.9725 101.408C27.3339 101.663 26.7659 101.851 26.1047 102.014C25.9074 102.063 25.7102 102.112 25.507 102.162C25.1953 102.239 25.1953 102.239 24.8773 102.317C24.6658 102.369 24.4543 102.421 24.2364 102.475C23.8156 102.579 23.3947 102.683 22.9738 102.787C22.231 102.97 21.4889 103.155 20.7469 103.341C20.3948 103.429 20.0427 103.517 19.6905 103.605C18.994 101.354 18.3219 99.0959 17.6801 96.8279C17.285 95.4328 16.8805 94.0407 16.4739 92.649C16.0394 91.1612 15.6076 89.6725 15.1765 88.1837C15.1058 87.9394 15.0351 87.6951 14.9643 87.4508C14.6756 86.4539 14.387 85.457 14.0985 84.46C13.1078 81.0361 12.1087 77.6148 11.1008 74.196C10.8833 73.4582 10.6661 72.7203 10.4491 71.9824C10.4144 71.8646 10.3798 71.7469 10.3441 71.6255C10.0494 70.6236 9.7568 69.6211 9.46489 68.6184C9.12824 67.463 8.79095 66.3079 8.45077 65.1535C8.0593 63.8251 7.67119 62.4958 7.28477 61.1659C7.05375 60.3716 6.82125 59.578 6.58166 58.7863C6.54201 58.6544 6.50236 58.5226 6.4615 58.3868C6.38855 58.1449 6.31488 57.9033 6.24032 57.6619C6.07453 57.1104 6 56.6951 6 56.111C6.16384 56.07 6.32769 56.0291 6.49649 55.9869C6.6047 55.9598 6.7129 55.9327 6.82438 55.9048C7.06593 55.8445 7.30752 55.7843 7.54915 55.7243C8.18389 55.5663 8.81778 55.4059 9.45036 55.2395C9.56976 55.2085 9.68916 55.1775 9.81217 55.1456C10.146 55.0588 10.4796 54.9709 10.8131 54.883C11.3705 54.7668 11.8557 54.7344 12.4227 54.7589Z" fill="white"/>
<path d="M16.3101 48.5053C16.9469 50.3834 17.4823 52.2826 17.9254 54.2148C18.2756 55.7395 18.6866 57.2465 19.1155 58.7507C19.6819 60.7425 20.2102 62.7362 20.6831 64.7523C20.9181 65.7493 21.1705 66.7367 21.4547 67.7206C21.8505 69.1009 22.1833 70.4956 22.511 71.8933C22.5613 72.1063 22.6117 72.3193 22.6635 72.5388C22.9603 73.8176 23.2115 75.0954 23.4089 76.3934C22.7729 76.6054 22.1798 76.5805 21.518 76.573C21.3913 76.5722 21.2646 76.5715 21.1341 76.5707C20.8219 76.5687 20.5098 76.5657 20.1976 76.5624C20.1523 76.367 20.1069 76.1716 20.0602 75.9702C19.6215 74.0948 19.1571 72.2266 18.6764 70.3615C18.6224 70.1513 18.5683 69.941 18.5127 69.7244C18.1813 68.4445 17.8351 67.1696 17.4792 65.8963C17.2295 65.0017 16.9851 64.1058 16.7446 63.2086C16.7109 63.0832 16.6773 62.9578 16.6426 62.8286C16.574 62.5727 16.5054 62.3169 16.4368 62.061C15.9248 60.1526 15.407 58.2476 14.8418 56.3541C14.2288 54.2981 13.7156 52.2193 13.2078 50.1352C13.1164 49.7606 13.0238 49.3863 12.9298 49.0123C13.3345 48.9268 13.7395 48.8425 14.1446 48.7588C14.2584 48.7346 14.3723 48.7104 14.4896 48.6855C15.1059 48.5592 15.6808 48.476 16.3101 48.5053Z" fill="white"/>
<path d="M96.9322 45.8008C97.0437 45.8008 97.1553 45.8008 97.2702 45.8008C97.2965 45.9044 97.3228 46.008 97.3499 46.1147C97.8372 48.0273 98.3346 49.929 98.9472 51.8056C99.11 52.33 99.2486 52.8556 99.3784 53.389C99.5711 54.1585 99.7955 54.9199 100.014 55.6824C100.212 56.3861 100.378 57.0757 100.482 57.8011C100.183 58.0238 99.8834 58.2454 99.5837 58.4666C99.417 58.5902 99.2503 58.7137 99.0786 58.841C98.2777 59.3892 97.5515 59.347 96.6153 59.3447C96.4666 59.3449 96.3179 59.3451 96.1647 59.3452C95.8493 59.3453 95.5339 59.345 95.2185 59.3443C94.7415 59.3434 94.2645 59.3443 93.7875 59.3454C89.6722 59.3473 89.6722 59.3473 88.8932 58.9103C88.511 58.2289 88.3139 57.5725 88.3122 56.787C88.5684 56.1961 88.9541 55.7555 89.3792 55.2764C89.4896 55.1437 89.6001 55.011 89.7139 54.8743C90.0314 54.4941 90.3544 54.1193 90.6785 53.7447C90.9331 53.4357 91.1868 53.126 91.4391 52.8151C91.5567 52.6728 91.6744 52.5305 91.7956 52.3839C92.4244 51.6082 93.032 50.8162 93.6427 50.0263C94.4415 48.996 95.2584 47.9817 96.0873 46.9755C96.5553 46.419 96.5553 46.419 96.9322 45.8008Z" fill="white"/>
<path d="M52.1422 19.2649C52.4543 19.8412 52.7633 20.4191 53.0718 20.9973C53.1605 21.161 53.2491 21.3246 53.3405 21.4932C53.4663 21.7301 53.4663 21.7301 53.5947 21.9718C53.6726 22.117 53.7505 22.2622 53.8307 22.4117C54.0014 22.8143 54.0014 22.8143 54.0014 23.4904C53.6576 23.7954 53.6576 23.7954 53.1695 24.109C52.9879 24.2276 52.8062 24.3462 52.6191 24.4685C52.4179 24.5967 52.2166 24.7249 52.0154 24.8531C51.8091 24.9871 51.6029 25.1213 51.3969 25.2559C51.0746 25.4664 50.7522 25.6767 50.4292 25.8862C49.2599 26.645 48.1073 27.4276 46.9554 28.2123C46.7538 28.3494 46.5522 28.4864 46.3505 28.6234C45.1105 29.4664 43.873 30.3128 42.6388 31.1642C42.1688 31.4883 41.6977 31.8106 41.2259 32.1321C38.7447 33.8236 36.276 35.528 33.8881 37.3499C33.7766 37.2941 33.665 37.2384 33.5501 37.1809C33.9437 36.7823 34.3384 36.3847 34.7332 35.9872C34.8428 35.8762 34.9524 35.7652 35.0653 35.6508C35.5977 35.1158 36.1338 34.5968 36.7087 34.1075C37.7394 33.2188 38.6788 32.2326 39.6348 31.2652C40.0181 30.8774 40.402 30.4901 40.7862 30.1032C40.8711 30.0169 40.956 29.9306 41.0435 29.8417C41.4963 29.3859 41.9596 28.9542 42.4481 28.5368C43.312 27.7884 44.11 26.9754 44.9132 26.1634C45.1955 25.8781 45.4784 25.5935 45.7615 25.309C46.5653 24.5011 47.368 23.6923 48.1701 22.8827C48.663 22.3853 49.1567 21.8887 49.6509 21.3926C49.8387 21.2038 50.0262 21.0146 50.2134 20.8251C50.4735 20.5618 50.7346 20.2995 50.996 20.0374C51.1443 19.8878 51.2926 19.7383 51.4454 19.5842C51.8042 19.2649 51.8042 19.2649 52.1422 19.2649Z" fill="#CD2D2D"/>
<path d="M105.806 88.6997C106.033 88.6966 106.033 88.6966 106.266 88.6935C107.73 88.6903 109.031 88.9534 110.285 89.7455C110.602 90.0848 110.783 90.405 111.003 90.8125C111.273 91.2265 111.523 91.492 111.88 91.8266C112.838 92.7547 113.274 93.8152 113.38 95.133C113.366 95.8735 113.155 96.2881 112.651 96.8443C111.89 97.307 111.242 97.4596 110.373 97.3217C108.338 96.6569 107.022 94.9805 105.861 93.2882C105.777 93.165 105.692 93.0417 105.605 92.9146C105.521 92.7913 105.436 92.6681 105.349 92.541C104.48 91.2996 103.449 90.2661 102.341 89.2385C103.111 88.4684 104.769 88.7005 105.806 88.6997Z" fill="#CD2D2D"/>
<path d="M26.7893 85.5202C26.9209 85.8149 26.9209 85.8149 27.0176 86.2033C27.0548 86.3483 27.0919 86.4934 27.1303 86.6428C27.1873 86.88 27.1873 86.88 27.2456 87.1219C27.2861 87.2839 27.3267 87.4459 27.3684 87.6129C27.454 87.9568 27.5384 88.3009 27.6219 88.6453C27.7494 89.1701 27.8806 89.6939 28.0124 90.2177C28.0951 90.552 28.1775 90.8862 28.2597 91.2206C28.3183 91.4547 28.3183 91.4547 28.3781 91.6934C28.5795 92.5325 28.692 93.2773 28.6485 94.1401C28.3287 94.2544 28.0081 94.3667 27.6873 94.4782C27.5088 94.5409 27.3304 94.6037 27.1465 94.6683C26.6569 94.8059 26.2794 94.8461 25.7752 94.8162C25.5031 93.8887 25.2658 92.9555 25.0358 92.0168C24.785 90.9992 24.5214 89.9896 24.2224 88.9851C23.9197 87.9533 23.7261 86.9225 23.578 85.8582C24.6039 85.5308 25.7394 85.1702 26.7893 85.5202Z" fill="white"/>
<path d="M105.89 65.4069C106.932 68.3244 107.651 71.3347 108.343 74.3512C108.432 74.731 108.524 75.1098 108.617 75.4886C108.648 75.6187 108.68 75.7488 108.713 75.8828C108.773 76.131 108.834 76.3789 108.896 76.6267C109.043 77.2371 109.136 77.7931 109.102 78.4213C107.273 77.5591 106.454 76.5174 105.754 74.6387C105.429 73.6547 105.223 72.6552 105.024 71.6394C104.943 71.2375 104.862 70.8356 104.78 70.4339C104.721 70.1465 104.721 70.1465 104.662 69.8533C104.51 69.1668 104.317 68.4967 104.108 67.8254C104.023 67.3972 104.047 67.1647 104.2 66.759C104.5 66.3972 104.5 66.3972 104.865 66.0407C104.986 65.9213 105.106 65.8019 105.229 65.6789C105.552 65.4069 105.552 65.4069 105.89 65.4069Z" fill="white"/>
<path d="M103.862 34.4764C104.402 34.7365 104.913 35.0323 105.425 35.3427C105.576 35.4337 105.727 35.5248 105.882 35.6186C106.054 35.7226 106.054 35.7226 106.228 35.8286C105.961 36.4868 105.511 36.9242 105.011 37.4105C104.925 37.4964 104.838 37.5823 104.749 37.6707C104.471 37.9449 104.193 38.2178 103.915 38.4906C103.551 38.8483 103.187 39.2066 102.825 39.5655C102.737 39.6523 102.649 39.7392 102.559 39.8286C101.984 40.4016 101.441 40.9926 100.915 41.6104C100.461 42.1306 99.9696 42.6122 99.478 43.0964C99.3289 43.2445 99.3289 43.2445 99.1767 43.3955C98.936 43.6342 98.6947 43.8724 98.4534 44.1105C98.3418 44.0547 98.2303 43.999 98.1153 43.9415C99.2536 41.9917 100.406 40.0542 101.62 38.1505C102.391 36.9397 103.131 35.7117 103.862 34.4764Z" fill="#CD2D2D"/>
<path d="M96.9322 45.8008C97.0437 45.8008 97.1553 45.8008 97.2702 45.8008C97.2029 46.2885 97.1367 46.4468 96.7526 46.7726C96.6445 46.8424 96.5365 46.9121 96.4251 46.9839C96.4251 46.3889 96.544 46.2337 96.9322 45.8008Z" fill="white"/>
<path d="M121.271 34.2651C120.751 33.8105 120.236 33.5139 119.581 33.2932C118.407 33.057 117.702 33.2669 116.863 34.1119L116.538 34.4763C113.798 37.5179 112.045 41.3136 110.38 45.0083C107.753 50.8389 105.22 56.3354 99.9455 60.2147L99.4675 60.5052L99.4674 60.5053C98.4339 60.9152 97.9117 61.1223 97.3698 61.2158C96.8164 61.3113 96.2425 61.2882 95.0824 61.2416L95.0823 61.2416C94.7822 61.2367 94.482 61.2332 94.1818 61.2312C92.5324 61.2237 90.8929 61.1806 89.2478 61.0579C88.8452 61.0272 88.4425 60.9987 88.0396 60.9723L87.5421 60.9412L87.5412 60.9412C85.8011 60.8325 84.0607 60.7238 82.322 60.595C80.0407 60.4248 77.7587 60.2777 75.475 60.1441L74.9439 60.1131C72.2595 59.9553 69.5749 59.8014 66.89 59.652C64.9035 59.5414 62.917 59.4293 60.9307 59.3154C59.6521 59.242 58.3735 59.169 57.0947 59.0993C55.9407 59.0364 54.7867 58.9724 53.6328 58.9054L53.4468 58.8945L53.4452 58.8944C52.9032 58.8626 52.3613 58.8309 51.8191 58.8019C51.2507 58.7722 50.6824 58.7412 50.1142 58.7076L49.4862 58.6698C49.3879 58.6651 49.2901 58.6609 49.1929 58.6567L49.1923 58.6567C48.3215 58.6195 47.4953 58.5842 46.712 58.1426L46.2265 57.8009L45.8478 57.5493L45.5227 57.3137C45.136 57.0349 44.7517 56.7531 44.3683 56.4698L44.1901 56.338L44.1901 56.3379C43.7448 56.0081 43.3006 55.6791 42.8351 55.3776C42.3316 55.0616 41.8599 54.7357 41.3897 54.3704C41.0698 53.8502 40.9079 53.5869 40.8183 53.3009C40.7265 53.0078 40.7107 52.6909 40.6786 52.049V52.049C40.6635 51.7077 40.6561 51.5401 40.6381 51.3736C40.6207 51.2128 40.5935 51.0531 40.54 50.7391C40.1754 48.9721 39.9181 47.1946 39.6733 45.4074L39.6348 45.1245C39.1181 45.2347 38.7429 45.3147 38.4016 45.4694C37.4969 45.8793 36.8299 46.8141 34.3952 50.2268L34.3952 50.2268C34.3381 50.3093 34.2842 50.3901 34.2317 50.4688C33.9121 50.948 33.6466 51.346 33.043 51.5472C32.8279 51.6052 32.6088 51.6626 32.3872 51.7206L32.3856 51.7211C30.6411 52.1781 28.7381 52.6767 27.3492 53.8079C26.3596 54.7996 26.0973 55.6111 26.0499 57.0087L26.0499 57.0087C26.0651 57.3222 26.0723 57.4718 26.0565 57.619C26.0421 57.7534 26.0085 57.8857 25.9443 58.1389L25.9442 58.139L25.5072 58.4004C24.9033 58.6575 24.5105 58.9578 24.0164 59.3786L23.7047 59.6496L23.3852 59.9186L23.0788 60.1824C22.6727 60.5318 22.4039 60.8383 22.2258 61.3503L22.2259 61.3504C22.3952 61.6829 22.464 61.8179 22.5427 61.9469C22.5965 62.035 22.6549 62.1203 22.7532 62.2639L22.7534 62.2641L23.0709 62.7025C23.2765 62.9909 23.4814 63.2849 23.6877 63.5807C24.5403 64.8036 25.416 66.0595 26.4513 67.097H26.9584L27.1274 65.9138C27.2957 65.998 27.3803 66.0403 27.4681 66.0737C27.5567 66.1074 27.6486 66.1321 27.8332 66.1817L28.2907 66.2915L28.8006 66.4154C30.1189 66.7353 31.4385 67.0556 32.7406 67.4372L33.0853 67.5406C33.4086 67.6305 33.5618 67.673 33.7111 67.7268C33.8455 67.7752 33.9767 67.8327 34.2262 67.9421C34.8155 68.4062 35.0469 68.8928 35.2881 69.5967L35.4119 69.9782C35.5491 70.384 35.6857 70.7898 35.8198 71.1966C35.9128 71.4791 36.0066 71.7614 36.1011 72.0435C36.38 72.8728 36.6566 73.7028 36.9305 74.5338C36.4923 74.5181 36.1054 74.5295 35.6756 74.6213L35.2442 74.7457L34.7516 74.8865L34.2262 75.0409C33.6663 75.2036 33.1068 75.3674 32.5479 75.5331L31.9655 75.7064C31.6243 75.8075 31.2826 75.9076 30.9407 76.0077L30.9403 76.0078C29.542 76.4173 28.1419 76.8274 26.7676 77.3081C25.3532 77.8069 23.9948 78.1437 22.4988 78.2923L22.0542 78.3348C21.7487 78.364 21.4433 78.3928 21.1378 78.4212C19.8929 78.5236 18.8508 78.6375 17.8591 79.4869C17.7561 79.6368 17.6878 79.7363 17.6446 79.8457C17.5594 80.0617 17.5722 80.3165 17.6102 81.0741C17.7472 82.0972 18.2018 83.3087 18.9828 84.0094C19.3752 84.2513 19.6422 84.4157 19.9322 84.506C20.549 84.6979 21.2702 84.5541 23.5252 84.1045C24.2951 83.9331 25.0594 83.7737 25.8386 83.6503C26.1561 83.6011 26.473 83.5479 26.7893 83.4918C28.0892 83.138 29.3376 83.1017 30.6779 83.109L31.0676 83.1115C33.1091 83.1162 35.1411 83.1757 37.1788 83.2991L37.6359 83.3273L37.636 83.3273C39.1719 83.4224 40.7069 83.5174 42.2462 83.5403L42.7616 83.5446C44.74 83.5826 46.359 83.1668 48.0857 82.1921C50.6006 80.7268 52.6934 80.026 55.5822 79.8066C55.8761 79.7848 56.17 79.7625 56.4638 79.7396C57.3257 79.6723 58.1879 79.6097 59.0504 79.5498C59.6276 79.5099 60.2048 79.47 60.782 79.4292L61.2157 79.3984C61.9407 79.3475 62.6653 79.2961 63.3884 79.2229C65.4931 78.9959 67.5666 78.8806 69.6845 78.8821C70.2321 78.8842 70.7797 78.886 71.3273 78.8842C75.8629 78.8665 79.387 79.2434 83.0033 82.178C83.1952 82.3345 83.3874 82.4907 83.5797 82.6467C88.8835 86.8183 93.842 87.6988 100.482 86.9567C100.738 86.9275 101.003 86.896 101.274 86.8637C103.85 86.557 107.01 86.1808 109.358 87.0254L109.778 87.2102C112.101 88.1829 113.446 89.7338 114.848 91.7737C114.955 91.9295 115.062 92.088 115.17 92.248C116.293 93.9092 117.529 95.7394 119.412 96.5063C120.042 96.6076 120.574 96.604 121.155 96.3056C121.853 95.5555 122.006 94.9811 122 93.9796L121.989 93.5484C121.987 93.131 121.982 92.7145 121.968 92.2972C121.876 90.7219 120.985 89.7422 119.845 88.7208C118.221 87.2872 116.733 85.6974 115.376 84.0094C113.816 82.0673 112.252 80.8807 109.919 79.9884C108.416 79.4226 106.957 78.8503 105.575 78.0271C103.537 76.436 102.781 73.5522 102.225 71.1534C102.201 71.0462 102.177 70.9391 102.154 70.8322C102.017 70.2046 101.882 69.585 101.642 68.9846C101.56 68.8043 101.519 68.7134 101.496 68.6181C101.472 68.5211 101.467 68.4196 101.457 68.2149V68.2147L101.464 67.8259L101.467 67.433L101.467 67.433C101.867 66.6171 102.072 66.1976 102.351 65.835C102.646 65.4513 103.024 65.1311 103.802 64.4723L104.137 64.1603C104.884 63.4591 105.637 62.7849 106.457 62.1689C107.333 61.5209 108.095 60.8798 108.794 60.0424L109.102 59.6601C112.002 56.2417 113.758 52.195 115.488 48.0982C115.988 46.9128 116.495 45.7303 117.01 44.551L117.341 43.7935C118.169 41.8735 119.093 40.0806 120.168 38.2854L120.384 37.9267L120.764 37.2863C120.961 36.9697 121.147 36.6537 121.318 36.323C121.57 35.6484 121.565 34.9259 121.271 34.2651Z" fill="#CD2D2D"/>
<path d="M28.8175 57.2942C30.0409 57.3524 30.8316 57.6495 31.8599 58.3083V58.8154C31.3995 59.0428 30.9382 59.2677 30.476 59.4914L30.0822 59.6869C29.3275 60.0496 29.0482 60.1839 28.7592 60.2098C28.5894 60.225 28.4163 60.2028 28.1415 60.1675V59.8295L28.4769 59.6202C28.87 59.3426 28.87 59.3426 28.8836 58.8292L28.8598 58.2766L28.8413 57.72L28.8175 57.2942Z" fill="white"/>
</svg>
